  0
SECTION
  2
HEADER
  9
$ACADVER
  1
AC1014
  9
$HANDSEED
  5
FFFF
  9
$MEASUREMENT
 70
     1
  0
ENDSEC
  0
SECTION
  2
TABLES
  0
TABLE
  2
VPORT
  5
8
330
0
100
AcDbSymbolTable
 70
     4
  0
VPORT
  5
2E
330
8
100
AcDbSymbolTableRecord
100
AcDbViewportTableRecord
  2
*ACTIVE
 70
     0
 10
0.0
 20
0.0
 11
1.0
 21
1.0
 12
210.0
 22
148.5
 13
0.0
 23
0.0
 14
10.0
 24
10.0
 15
10.0
 25
10.0
 16
0.0
 26
0.0
 36
1.0
 17
0.0
 27
0.0
 37
0.0
 40
341.0
 41
1.24
 42
50.0
 43
0.0
 44
0.0
 50
0.0
 51
0.0
 71
     0
 72
   100
 73
     1
 74
     3
 75
     0
 76
     0
 77
     0
 78
     0
  0
ENDTAB
  0
TABLE
  2
LTYPE
  5
5
330
0
100
AcDbSymbolTable
 70
     1
  0
LTYPE
  5
14
330
5
100
AcDbSymbolTableRecord
100
AcDbLinetypeTableRecord
  2
BYBLOCK
 70
     0
  3

 72
    65
 73
     0
 40
0.0
  0
LTYPE
  5
15
330
5
100
AcDbSymbolTableRecord
100
AcDbLinetypeTableRecord
  2
BYLAYER
 70
     0
  3

 72
    65
 73
     0
 40
0.0
  0
LTYPE
  5
16
330
5
100
AcDbSymbolTableRecord
100
AcDbLinetypeTableRecord
  2
CONTINUOUS
 70
     0
  3
Solid line
 72
    65
 73
     0
 40
0.0
  0
ENDTAB
  0
TABLE
  2
LAYER
  5
2
100
AcDbSymbolTable
 70
2
  0
LAYER
  5
50
100
AcDbSymbolTableRecord
100
AcDbLayerTableRecord
  2
0
 70
0
  6
CONTINUOUS
  0
LAYER
  5
51
100
AcDbSymbolTableRecord
100
AcDbLayerTableRecord
  2
Ebene_1
 70
0
  6
CONTINUOUS
  0
ENDTAB
  0
TABLE
  2
STYLE
  5
3
330
0
100
AcDbSymbolTable
 70
     1
  0
STYLE
  5
11
330
3
100
AcDbSymbolTableRecord
100
AcDbTextStyleTableRecord
  2
STANDARD
 70
     0
 40
0.0
 41
1.0
 50
0.0
 71
     0
 42
2.5
  3
txt
  4

  0
ENDTAB
  0
TABLE
  2
VIEW
  5
6
330
0
100
AcDbSymbolTable
 70
     0
  0
ENDTAB
  0
TABLE
  2
UCS
  5
7
330
0
100
AcDbSymbolTable
 70
     0
  0
ENDTAB
  0
TABLE
  2
APPID
  5
9
330
0
100
AcDbSymbolTable
 70
     2
  0
APPID
  5
12
330
9
100
AcDbSymbolTableRecord
100
AcDbRegAppTableRecord
  2
ACAD
 70
     0
  0
ENDTAB
  0
TABLE
  2
DIMSTYLE
  5
A
330
0
100
AcDbSymbolTable
 70
     1
  0
DIMSTYLE
105
27
330
A
100
AcDbSymbolTableRecord
100
AcDbDimStyleTableRecord
  2
ISO-25
 70
     0
  3

  4

  5

  6

  7

 40
1.0
 41
2.5
 42
0.625
 43
3.75
 44
1.25
 45
0.0
 46
0.0
 47
0.0
 48
0.0
140
2.5
141
2.5
142
0.0
143
0.03937007874016
144
1.0
145
0.0
146
1.0
147
0.625
 71
     0
 72
     0
 73
     0
 74
     0
 75
     0
 76
     0
 77
     1
 78
     8
170
     0
171
     3
172
     1
173
     0
174
     0
175
     0
176
     0
177
     0
178
     0
270
     2
271
     2
272
     2
273
     2
274
     3
340
11
275
     0
280
     0
281
     0
282
     0
283
     0
284
     8
285
     0
286
     0
287
     3
288
     0
  0
ENDTAB
  0
TABLE
  2
BLOCK_RECORD
  5
1
330
0
100
AcDbSymbolTable
 70
     1
  0
BLOCK_RECORD
  5
1F
330
1
100
AcDbSymbolTableRecord
100
AcDbBlockTableRecord
  2
*MODEL_SPACE
  0
BLOCK_RECORD
  5
1B
330
1
100
AcDbSymbolTableRecord
100
AcDbBlockTableRecord
  2
*PAPER_SPACE
  0
ENDTAB
  0
ENDSEC
  0
SECTION
  2
BLOCKS
  0
BLOCK
  5
20
330
1F
100
AcDbEntity
  8
0
100
AcDbBlockBegin
  2
*MODEL_SPACE
 70
     0
 10
0.0
 20
0.0
 30
0.0
  3
*MODEL_SPACE
  1

  0
ENDBLK
  5
21
330
1F
100
AcDbEntity
  8
0
100
AcDbBlockEnd
  0
BLOCK
  5
1C
330
1B
100
AcDbEntity
 67
     1
  8
0
100
AcDbBlockBegin
  2
*PAPER_SPACE
  1

  0
ENDBLK
  5
1D
330
1B
100
AcDbEntity
 67
     1
  8
0
100
AcDbBlockEnd
  0
ENDSEC
  0
SECTION
  2
ENTITIES
  0
LWPOLYLINE
  5
100
100
AcDbEntity
  8
Ebene_1
 62
7
100
AcDbPolyline
 90
77
 70
1
 10
429.468037
 20
98.513567
 30
0.0
 10
425.468034
 20
98.513567
 30
0.0
 10
425.468034
 20
106.889573
 30
0.0
 10
429.468037
 20
106.889573
 30
0.0
 10
429.468037
 20
114.513580
 30
0.0
 10
425.468034
 20
114.513580
 30
0.0
 10
425.468034
 20
122.889586
 30
0.0
 10
429.468037
 20
122.889586
 30
0.0
 10
429.468037
 20
130.513593
 30
0.0
 10
425.468034
 20
130.513593
 30
0.0
 10
425.468034
 20
138.889599
 30
0.0
 10
429.468037
 20
138.889599
 30
0.0
 10
429.468037
 20
150.513610
 30
0.0
 10
425.468034
 20
150.513610
 30
0.0
 10
425.468034
 20
158.889615
 30
0.0
 10
435.968043
 20
158.889615
 30
0.0
 10
435.968043
 20
162.889619
 30
0.0
 10
446.844052
 20
162.889619
 30
0.0
 10
446.844052
 20
158.889615
 30
0.0
 10
454.468058
 20
158.889615
 30
0.0
 10
454.468058
 20
162.889619
 30
0.0
 10
462.844063
 20
162.889619
 30
0.0
 10
462.844063
 20
158.889615
 30
0.0
 10
470.468071
 20
158.889615
 30
0.0
 10
470.468071
 20
162.889619
 30
0.0
 10
478.844077
 20
162.889619
 30
0.0
 10
478.844077
 20
158.889615
 30
0.0
 10
486.468084
 20
158.889615
 30
0.0
 10
486.468084
 20
162.889619
 30
0.0
 10
494.844090
 20
162.889619
 30
0.0
 10
494.844090
 20
158.889615
 30
0.0
 10
502.468097
 20
158.889615
 30
0.0
 10
502.468097
 20
162.889619
 30
0.0
 10
510.844103
 20
162.889619
 30
0.0
 10
510.844103
 20
158.889615
 30
0.0
 10
518.468110
 20
158.889615
 30
0.0
 10
518.468110
 20
162.889619
 30
0.0
 10
529.344120
 20
162.889619
 30
0.0
 10
529.344120
 20
158.889615
 30
0.0
 10
539.844127
 20
158.889615
 30
0.0
 10
539.844127
 20
150.513610
 30
0.0
 10
539.844127
 20
138.889599
 30
0.0
 10
539.844127
 20
130.513593
 30
0.0
 10
539.844127
 20
122.889586
 30
0.0
 10
539.844127
 20
114.513580
 30
0.0
 10
539.844127
 20
106.889573
 30
0.0
 10
539.844127
 20
98.513567
 30
0.0
 10
539.844127
 20
86.889558
 30
0.0
 10
539.844127
 20
78.513551
 30
0.0
 10
529.344120
 20
78.513551
 30
0.0
 10
529.344120
 20
74.513547
 30
0.0
 10
518.468110
 20
74.513547
 30
0.0
 10
518.468110
 20
78.513551
 30
0.0
 10
510.844103
 20
78.513551
 30
0.0
 10
510.844103
 20
74.513547
 30
0.0
 10
502.468097
 20
74.513547
 30
0.0
 10
502.468097
 20
78.513551
 30
0.0
 10
494.844090
 20
78.513551
 30
0.0
 10
494.844090
 20
74.513547
 30
0.0
 10
486.468084
 20
74.513547
 30
0.0
 10
486.468084
 20
78.513551
 30
0.0
 10
478.844077
 20
78.513551
 30
0.0
 10
478.844077
 20
74.513547
 30
0.0
 10
470.468071
 20
74.513547
 30
0.0
 10
470.468071
 20
78.513551
 30
0.0
 10
462.844063
 20
78.513551
 30
0.0
 10
462.844063
 20
74.513547
 30
0.0
 10
454.468058
 20
74.513547
 30
0.0
 10
454.468058
 20
78.513551
 30
0.0
 10
446.844052
 20
78.513551
 30
0.0
 10
446.844052
 20
74.513547
 30
0.0
 10
435.968043
 20
74.513547
 30
0.0
 10
435.968043
 20
78.513551
 30
0.0
 10
425.468034
 20
78.513551
 30
0.0
 10
425.468034
 20
86.889558
 30
0.0
 10
429.468037
 20
86.889558
 30
0.0
 10
429.468037
 20
98.513567
 30
0.0
  0
LWPOLYLINE
  5
101
100
AcDbEntity
  8
Ebene_1
 62
7
100
AcDbPolyline
 90
133
 70
1
 10
418.139248
 20
159.688891
 30
0.0
 10
418.139248
 20
151.688885
 30
0.0
 10
422.139251
 20
151.688885
 30
0.0
 10
422.139251
 20
139.312874
 30
0.0
 10
418.139248
 20
139.312874
 30
0.0
 10
418.139248
 20
131.688868
 30
0.0
 10
422.139251
 20
131.688868
 30
0.0
 10
422.139251
 20
123.312863
 30
0.0
 10
418.139248
 20
123.312863
 30
0.0
 10
418.139248
 20
115.688855
 30
0.0
 10
422.139251
 20
115.688855
 30
0.0
 10
422.139251
 20
107.312849
 30
0.0
 10
418.139248
 20
107.312849
 30
0.0
 10
418.139248
 20
99.688842
 30
0.0
 10
422.139251
 20
99.688842
 30
0.0
 10
422.139251
 20
87.312833
 30
0.0
 10
418.139248
 20
87.312833
 30
0.0
 10
418.139248
 20
79.312826
 30
0.0
 10
412.139243
 20
79.312826
 30
0.0
 10
412.139243
 20
75.312823
 30
0.0
 10
401.763236
 20
75.312823
 30
0.0
 10
401.763236
 20
79.312826
 30
0.0
 10
394.139228
 20
79.312826
 30
0.0
 10
394.139228
 20
75.312823
 30
0.0
 10
385.763222
 20
75.312823
 30
0.0
 10
385.763222
 20
79.312826
 30
0.0
 10
378.139215
 20
79.312826
 30
0.0
 10
378.139215
 20
75.312823
 30
0.0
 10
369.763209
 20
75.312823
 30
0.0
 10
369.763209
 20
79.312826
 30
0.0
 10
362.139202
 20
79.312826
 30
0.0
 10
362.139202
 20
75.312823
 30
0.0
 10
353.763196
 20
75.312823
 30
0.0
 10
353.763196
 20
79.312826
 30
0.0
 10
346.139189
 20
79.312826
 30
0.0
 10
346.139189
 20
75.312823
 30
0.0
 10
337.763183
 20
75.312823
 30
0.0
 10
337.763183
 20
79.312826
 30
0.0
 10
330.139175
 20
79.312826
 30
0.0
 10
330.139175
 20
75.312823
 30
0.0
 10
321.763170
 20
75.312823
 30
0.0
 10
321.763170
 20
79.312826
 30
0.0
 10
314.139162
 20
79.312826
 30
0.0
 10
314.139162
 20
75.312823
 30
0.0
 10
305.763157
 20
75.312823
 30
0.0
 10
305.763157
 20
79.312826
 30
0.0
 10
298.139149
 20
79.312826
 30
0.0
 10
298.139149
 20
75.312823
 30
0.0
 10
289.763144
 20
75.312823
 30
0.0
 10
289.763144
 20
79.312826
 30
0.0
 10
282.139136
 20
79.312826
 30
0.0
 10
282.139136
 20
75.312823
 30
0.0
 10
273.763130
 20
75.312823
 30
0.0
 10
273.763130
 20
79.312826
 30
0.0
 10
266.139123
 20
79.312826
 30
0.0
 10
266.139123
 20
75.312823
 30
0.0
 10
257.763117
 20
75.312823
 30
0.0
 10
257.763117
 20
79.312826
 30
0.0
 10
250.139110
 20
79.312826
 30
0.0
 10
250.139110
 20
75.312823
 30
0.0
 10
241.763104
 20
75.312823
 30
0.0
 10
241.763104
 20
79.312826
 30
0.0
 10
234.139098
 20
79.312826
 30
0.0
 10
234.139098
 20
75.312823
 30
0.0
 10
223.763089
 20
75.312823
 30
0.0
 10
223.763089
 20
79.312826
 30
0.0
 10
217.763084
 20
79.312826
 30
0.0
 10
217.763084
 20
87.312833
 30
0.0
 10
213.763081
 20
87.312833
 30
0.0
 10
213.763081
 20
99.688842
 30
0.0
 10
217.763084
 20
99.688842
 30
0.0
 10
217.763084
 20
107.312849
 30
0.0
 10
213.763081
 20
107.312849
 30
0.0
 10
213.763081
 20
115.688855
 30
0.0
 10
217.763084
 20
115.688855
 30
0.0
 10
217.763084
 20
123.312863
 30
0.0
 10
213.763081
 20
123.312863
 30
0.0
 10
213.763081
 20
131.688868
 30
0.0
 10
217.763084
 20
131.688868
 30
0.0
 10
217.763084
 20
139.312874
 30
0.0
 10
213.763081
 20
139.312874
 30
0.0
 10
213.763081
 20
151.688885
 30
0.0
 10
217.763084
 20
151.688885
 30
0.0
 10
217.763084
 20
159.688891
 30
0.0
 10
223.763089
 20
159.688891
 30
0.0
 10
223.763089
 20
163.688895
 30
0.0
 10
234.139098
 20
163.688895
 30
0.0
 10
234.139098
 20
159.688891
 30
0.0
 10
241.763104
 20
159.688891
 30
0.0
 10
241.763104
 20
163.688895
 30
0.0
 10
250.139110
 20
163.688895
 30
0.0
 10
250.139110
 20
159.688891
 30
0.0
 10
257.763117
 20
159.688891
 30
0.0
 10
257.763117
 20
163.688895
 30
0.0
 10
266.139123
 20
163.688895
 30
0.0
 10
266.139123
 20
159.688891
 30
0.0
 10
273.763130
 20
159.688891
 30
0.0
 10
273.763130
 20
163.688895
 30
0.0
 10
282.139136
 20
163.688895
 30
0.0
 10
282.139136
 20
159.688891
 30
0.0
 10
289.763144
 20
159.688891
 30
0.0
 10
289.763144
 20
163.688895
 30
0.0
 10
298.139149
 20
163.688895
 30
0.0
 10
298.139149
 20
159.688891
 30
0.0
 10
305.763157
 20
159.688891
 30
0.0
 10
305.763157
 20
163.688895
 30
0.0
 10
314.139162
 20
163.688895
 30
0.0
 10
314.139162
 20
159.688891
 30
0.0
 10
321.763170
 20
159.688891
 30
0.0
 10
321.763170
 20
163.688895
 30
0.0
 10
330.139175
 20
163.688895
 30
0.0
 10
330.139175
 20
159.688891
 30
0.0
 10
337.763183
 20
159.688891
 30
0.0
 10
337.763183
 20
163.688895
 30
0.0
 10
346.139189
 20
163.688895
 30
0.0
 10
346.139189
 20
159.688891
 30
0.0
 10
353.763196
 20
159.688891
 30
0.0
 10
353.763196
 20
163.688895
 30
0.0
 10
362.139202
 20
163.688895
 30
0.0
 10
362.139202
 20
159.688891
 30
0.0
 10
369.763209
 20
159.688891
 30
0.0
 10
369.763209
 20
163.688895
 30
0.0
 10
378.139215
 20
163.688895
 30
0.0
 10
378.139215
 20
159.688891
 30
0.0
 10
385.763222
 20
159.688891
 30
0.0
 10
385.763222
 20
163.688895
 30
0.0
 10
394.139228
 20
163.688895
 30
0.0
 10
394.139228
 20
159.688891
 30
0.0
 10
401.763236
 20
159.688891
 30
0.0
 10
401.763236
 20
163.688895
 30
0.0
 10
412.139243
 20
163.688895
 30
0.0
 10
412.139243
 20
159.688891
 30
0.0
 10
418.139248
 20
159.688891
 30
0.0
  0
LWPOLYLINE
  5
102
100
AcDbEntity
  8
Ebene_1
 62
7
100
AcDbPolyline
 90
112
 70
1
 10
422.139251
 20
278.064987
 30
0.0
 10
422.139251
 20
267.188978
 30
0.0
 10
418.139248
 20
267.188978
 30
0.0
 10
418.139248
 20
257.064970
 30
0.0
 10
422.139251
 20
257.064970
 30
0.0
 10
422.139251
 20
248.688964
 30
0.0
 10
418.139248
 20
248.688964
 30
0.0
 10
418.139248
 20
241.064957
 30
0.0
 10
422.139251
 20
241.064957
 30
0.0
 10
422.139251
 20
232.688951
 30
0.0
 10
418.139248
 20
232.688951
 30
0.0
 10
418.139248
 20
225.064943
 30
0.0
 10
422.139251
 20
225.064943
 30
0.0
 10
422.139251
 20
216.688938
 30
0.0
 10
418.139248
 20
216.688938
 30
0.0
 10
418.139248
 20
209.064930
 30
0.0
 10
422.139251
 20
209.064930
 30
0.0
 10
422.139251
 20
200.688925
 30
0.0
 10
418.139248
 20
200.688925
 30
0.0
 10
418.139248
 20
193.064917
 30
0.0
 10
422.139251
 20
193.064917
 30
0.0
 10
422.139251
 20
184.688912
 30
0.0
 10
418.139248
 20
184.688912
 30
0.0
 10
418.139248
 20
174.564903
 30
0.0
 10
422.139251
 20
174.564903
 30
0.0
 10
422.139251
 20
163.688894
 30
0.0
 10
411.763244
 20
163.688894
 30
0.0
 10
411.763244
 20
167.688898
 30
0.0
 10
402.139235
 20
167.688898
 30
0.0
 10
402.139235
 20
163.688894
 30
0.0
 10
393.763229
 20
163.688894
 30
0.0
 10
393.763229
 20
167.688898
 30
0.0
 10
386.139222
 20
167.688898
 30
0.0
 10
386.139222
 20
163.688894
 30
0.0
 10
377.763216
 20
163.688894
 30
0.0
 10
377.763216
 20
167.688898
 30
0.0
 10
370.139208
 20
167.688898
 30
0.0
 10
370.139208
 20
163.688894
 30
0.0
 10
361.763203
 20
163.688894
 30
0.0
 10
361.763203
 20
167.688898
 30
0.0
 10
354.139195
 20
167.688898
 30
0.0
 10
354.139195
 20
163.688894
 30
0.0
 10
345.763190
 20
163.688894
 30
0.0
 10
345.763190
 20
167.688898
 30
0.0
 10
338.139182
 20
167.688898
 30
0.0
 10
338.139182
 20
163.688894
 30
0.0
 10
329.763176
 20
163.688894
 30
0.0
 10
329.763176
 20
167.688898
 30
0.0
 10
322.139169
 20
167.688898
 30
0.0
 10
322.139169
 20
163.688894
 30
0.0
 10
313.763163
 20
163.688894
 30
0.0
 10
313.763163
 20
167.688898
 30
0.0
 10
306.139156
 20
167.688898
 30
0.0
 10
306.139156
 20
163.688894
 30
0.0
 10
297.763150
 20
163.688894
 30
0.0
 10
297.763150
 20
167.688898
 30
0.0
 10
290.139143
 20
167.688898
 30
0.0
 10
290.139143
 20
163.688894
 30
0.0
 10
281.763137
 20
163.688894
 30
0.0
 10
281.763137
 20
167.688898
 30
0.0
 10
274.139129
 20
167.688898
 30
0.0
 10
274.139129
 20
163.688894
 30
0.0
 10
265.763124
 20
163.688894
 30
0.0
 10
265.763124
 20
167.688898
 30
0.0
 10
258.139116
 20
167.688898
 30
0.0
 10
258.139116
 20
163.688894
 30
0.0
 10
249.763111
 20
163.688894
 30
0.0
 10
249.763111
 20
167.688898
 30
0.0
 10
242.139103
 20
167.688898
 30
0.0
 10
242.139103
 20
163.688894
 30
0.0
 10
233.763098
 20
163.688894
 30
0.0
 10
233.763098
 20
167.688898
 30
0.0
 10
224.139090
 20
167.688898
 30
0.0
 10
224.139090
 20
163.688894
 30
0.0
 10
213.763081
 20
163.688894
 30
0.0
 10
213.763081
 20
174.564903
 30
0.0
 10
217.763084
 20
174.564903
 30
0.0
 10
217.763084
 20
184.688912
 30
0.0
 10
213.763081
 20
184.688912
 30
0.0
 10
213.763081
 20
193.064917
 30
0.0
 10
217.763084
 20
193.064917
 30
0.0
 10
217.763084
 20
200.688925
 30
0.0
 10
213.763081
 20
200.688925
 30
0.0
 10
213.763081
 20
209.064930
 30
0.0
 10
217.763084
 20
209.064930
 30
0.0
 10
217.763084
 20
216.688938
 30
0.0
 10
213.763081
 20
216.688938
 30
0.0
 10
213.763081
 20
225.064943
 30
0.0
 10
217.763084
 20
225.064943
 30
0.0
 10
217.763084
 20
232.688951
 30
0.0
 10
213.763081
 20
232.688951
 30
0.0
 10
213.763081
 20
241.064957
 30
0.0
 10
217.763084
 20
241.064957
 30
0.0
 10
217.763084
 20
248.688964
 30
0.0
 10
213.763081
 20
248.688964
 30
0.0
 10
213.763081
 20
257.064970
 30
0.0
 10
217.763084
 20
257.064970
 30
0.0
 10
217.763084
 20
267.188978
 30
0.0
 10
213.763081
 20
267.188978
 30
0.0
 10
213.763000
 20
274.065005
 30
0.0
 10
237.763000
 20
274.065005
 30
0.0
 10
237.763000
 20
278.064987
 30
0.0
 10
345.763190
 20
278.064987
 30
0.0
 10
354.139195
 20
278.064987
 30
0.0
 10
361.763203
 20
278.064987
 30
0.0
 10
370.139208
 20
278.064987
 30
0.0
 10
377.763216
 20
278.064987
 30
0.0
 10
386.139222
 20
278.064987
 30
0.0
 10
393.763229
 20
278.064987
 30
0.0
 10
402.139235
 20
278.064987
 30
0.0
 10
411.763244
 20
278.064987
 30
0.0
 10
422.139251
 20
278.064987
 30
0.0
  0
LWPOLYLINE
  5
103
100
AcDbEntity
  8
Ebene_1
 62
7
100
AcDbPolyline
 90
116
 70
1
 10
241.450470
 20
72.916026
 30
0.0
 10
241.450470
 20
68.916022
 30
0.0
 10
249.074477
 20
68.916022
 30
0.0
 10
249.074477
 20
72.916026
 30
0.0
 10
257.450483
 20
72.916026
 30
0.0
 10
257.450483
 20
68.916022
 30
0.0
 10
265.074490
 20
68.916022
 30
0.0
 10
265.074490
 20
72.916026
 30
0.0
 10
273.450496
 20
72.916026
 30
0.0
 10
273.450496
 20
68.916022
 30
0.0
 10
281.074503
 20
68.916022
 30
0.0
 10
281.074503
 20
72.916026
 30
0.0
 10
289.450509
 20
72.916026
 30
0.0
 10
289.450509
 20
68.916022
 30
0.0
 10
297.074517
 20
68.916022
 30
0.0
 10
297.074517
 20
72.916026
 30
0.0
 10
305.450522
 20
72.916026
 30
0.0
 10
305.450522
 20
68.916022
 30
0.0
 10
313.074530
 20
68.916022
 30
0.0
 10
313.074530
 20
72.916026
 30
0.0
 10
321.450535
 20
72.916026
 30
0.0
 10
321.450535
 20
68.916022
 30
0.0
 10
329.074543
 20
68.916022
 30
0.0
 10
329.074543
 20
72.916026
 30
0.0
 10
337.450549
 20
72.916026
 30
0.0
 10
337.450549
 20
68.916022
 30
0.0
 10
345.074556
 20
68.916022
 30
0.0
 10
345.074556
 20
72.916026
 30
0.0
 10
353.450562
 20
72.916026
 30
0.0
 10
353.450562
 20
68.916022
 30
0.0
 10
361.074569
 20
68.916022
 30
0.0
 10
361.074569
 20
72.916026
 30
0.0
 10
369.450575
 20
72.916026
 30
0.0
 10
369.450575
 20
68.916022
 30
0.0
 10
377.074582
 20
68.916022
 30
0.0
 10
377.074582
 20
72.916026
 30
0.0
 10
385.450588
 20
72.916026
 30
0.0
 10
385.450588
 20
68.916022
 30
0.0
 10
393.074596
 20
68.916022
 30
0.0
 10
393.074596
 20
72.916026
 30
0.0
 10
401.450601
 20
72.916026
 30
0.0
 10
401.450601
 20
68.916022
 30
0.0
 10
411.074610
 20
68.916022
 30
0.0
 10
411.074610
 20
72.916026
 30
0.0
 10
421.450618
 20
72.916026
 30
0.0
 10
421.450618
 20
62.040016
 30
0.0
 10
417.450614
 20
62.040016
 30
0.0
 10
417.450614
 20
51.916008
 30
0.0
 10
421.450618
 20
51.916008
 30
0.0
 10
421.450618
 20
43.540003
 30
0.0
 10
417.450614
 20
43.540003
 30
0.0
 10
417.450614
 20
35.915995
 30
0.0
 10
421.450618
 20
35.915995
 30
0.0
 10
421.450618
 20
27.539990
 30
0.0
 10
417.450614
 20
27.539990
 30
0.0
 10
417.450614
 20
19.915982
 30
0.0
 10
421.450618
 20
19.915982
 30
0.0
 10
421.450618
 20
11.539976
 30
0.0
 10
417.450614
 20
11.539976
 30
0.0
 10
417.450614
 20
3.915969
 30
0.0
 10
421.450618
 20
3.915969
 30
0.0
 10
421.450618
 20
-4.460037
 30
0.0
 10
417.450614
 20
-4.460037
 30
0.0
 10
417.450614
 20
-12.084044
 30
0.0
 10
421.450618
 20
-12.084044
 30
0.0
 10
421.450618
 20
-20.460050
 30
0.0
 10
417.450614
 20
-20.460050
 30
0.0
 10
417.450614
 20
-30.584058
 30
0.0
 10
421.450618
 20
-30.584058
 30
0.0
 10
421.450618
 20
-41.460067
 30
0.0
 10
411.074610
 20
-41.460067
 30
0.0
 10
401.450601
 20
-41.460067
 30
0.0
 10
393.074596
 20
-41.460067
 30
0.0
 10
385.450588
 20
-41.460067
 30
0.0
 10
377.074582
 20
-41.460067
 30
0.0
 10
369.450575
 20
-41.460067
 30
0.0
 10
361.074569
 20
-41.460067
 30
0.0
 10
353.450562
 20
-41.460067
 30
0.0
 10
345.074556
 20
-41.460067
 30
0.0
 10
337.450549
 20
-41.460067
 30
0.0
 10
329.074543
 20
-41.460067
 30
0.0
 10
321.450535
 20
-41.460067
 30
0.0
 10
313.074530
 20
-41.460067
 30
0.0
 10
237.074000
 20
-41.460067
 30
0.0
 10
237.074000
 20
-37.459996
 30
0.0
 10
213.074000
 20
-37.459996
 30
0.0
 10
213.074448
 20
-30.584058
 30
0.0
 10
217.074451
 20
-30.584058
 30
0.0
 10
217.074451
 20
-20.460050
 30
0.0
 10
213.074448
 20
-20.460050
 30
0.0
 10
213.074448
 20
-12.084044
 30
0.0
 10
217.074451
 20
-12.084044
 30
0.0
 10
217.074451
 20
-4.460037
 30
0.0
 10
213.074448
 20
-4.460037
 30
0.0
 10
213.074448
 20
3.915969
 30
0.0
 10
217.074451
 20
3.915969
 30
0.0
 10
217.074451
 20
11.539976
 30
0.0
 10
213.074448
 20
11.539976
 30
0.0
 10
213.074448
 20
19.915982
 30
0.0
 10
217.074451
 20
19.915982
 30
0.0
 10
217.074451
 20
27.539990
 30
0.0
 10
213.074448
 20
27.539990
 30
0.0
 10
213.074448
 20
35.915995
 30
0.0
 10
217.074451
 20
35.915995
 30
0.0
 10
217.074451
 20
43.540003
 30
0.0
 10
213.074448
 20
43.540003
 30
0.0
 10
213.074448
 20
51.916008
 30
0.0
 10
217.074451
 20
51.916008
 30
0.0
 10
217.074451
 20
62.040016
 30
0.0
 10
213.074448
 20
62.040016
 30
0.0
 10
213.074448
 20
72.916026
 30
0.0
 10
223.450456
 20
72.916026
 30
0.0
 10
223.450456
 20
68.916022
 30
0.0
 10
233.074464
 20
68.916022
 30
0.0
 10
233.074464
 20
72.916026
 30
0.0
 10
241.450470
 20
72.916026
 30
0.0
  0
SPLINE
  5
104
100
AcDbEntity
  8
Ebene_1
 62
7
100
AcDbSpline
 70
8
 71
3
 72
8
 73
4
 74
0
 40
0
 40
0
 40
0
 40
0
 40
1
 40
1
 40
1
 40
1
 10
252.013449
 20
-16.754190
 30
0.0
 10
252.013438
 20
-17.862127
 30
0.0
 10
251.082340
 20
-18.760282
 30
0.0
 10
249.933776
 20
-18.760282
 30
0.0
  0
SPLINE
  5
105
100
AcDbEntity
  8
Ebene_1
 62
7
100
AcDbSpline
 70
8
 71
3
 72
8
 73
4
 74
0
 40
0
 40
0
 40
0
 40
0
 40
1
 40
1
 40
1
 40
1
 10
249.933776
 20
-18.760282
 30
0.0
 10
248.785212
 20
-18.760282
 30
0.0
 10
247.854114
 20
-17.862127
 30
0.0
 10
247.854103
 20
-16.754190
 30
0.0
  0
SPLINE
  5
106
100
AcDbEntity
  8
Ebene_1
 62
7
100
AcDbSpline
 70
8
 71
3
 72
8
 73
4
 74
0
 40
0
 40
0
 40
0
 40
0
 40
1
 40
1
 40
1
 40
1
 10
247.854103
 20
-16.754190
 30
0.0
 10
247.854101
 20
-16.222135
 30
0.0
 10
248.073207
 20
-15.711870
 30
0.0
 10
248.463222
 20
-15.335649
 30
0.0
  0
SPLINE
  5
107
100
AcDbEntity
  8
Ebene_1
 62
7
100
AcDbSpline
 70
8
 71
3
 72
8
 73
4
 74
0
 40
0
 40
0
 40
0
 40
0
 40
1
 40
1
 40
1
 40
1
 10
248.463222
 20
-15.335649
 30
0.0
 10
248.853237
 20
-14.959428
 30
0.0
 10
249.382211
 20
-14.748070
 30
0.0
 10
249.933776
 20
-14.748070
 30
0.0
  0
SPLINE
  5
108
100
AcDbEntity
  8
Ebene_1
 62
7
100
AcDbSpline
 70
8
 71
3
 72
8
 73
4
 74
0
 40
0
 40
0
 40
0
 40
0
 40
1
 40
1
 40
1
 40
1
 10
249.933776
 20
-14.748070
 30
0.0
 10
250.485341
 20
-14.748070
 30
0.0
 10
251.014316
 20
-14.959428
 30
0.0
 10
251.404330
 20
-15.335649
 30
0.0
  0
SPLINE
  5
109
100
AcDbEntity
  8
Ebene_1
 62
7
100
AcDbSpline
 70
8
 71
3
 72
8
 73
4
 74
0
 40
0
 40
0
 40
0
 40
0
 40
1
 40
1
 40
1
 40
1
 10
251.404330
 20
-15.335649
 30
0.0
 10
251.794345
 20
-15.711870
 30
0.0
 10
252.013452
 20
-16.222135
 30
0.0
 10
252.013449
 20
-16.754190
 30
0.0
  0
LWPOLYLINE
  5
10a
100
AcDbEntity
  8
Ebene_1
 62
7
100
AcDbPolyline
 90
77
 70
1
 10
202.808626
 20
139.688875
 30
0.0
 10
206.808629
 20
139.688875
 30
0.0
 10
206.808629
 20
131.312869
 30
0.0
 10
202.808626
 20
131.312869
 30
0.0
 10
202.808626
 20
123.688862
 30
0.0
 10
206.808629
 20
123.688862
 30
0.0
 10
206.808629
 20
115.312856
 30
0.0
 10
202.808626
 20
115.312856
 30
0.0
 10
202.808626
 20
107.688848
 30
0.0
 10
206.808629
 20
107.688848
 30
0.0
 10
206.808629
 20
99.312843
 30
0.0
 10
202.808626
 20
99.312843
 30
0.0
 10
202.808626
 20
87.688832
 30
0.0
 10
206.808629
 20
87.688832
 30
0.0
 10
206.808629
 20
79.312826
 30
0.0
 10
196.308620
 20
79.312826
 30
0.0
 10
196.308620
 20
75.312823
 30
0.0
 10
185.432611
 20
75.312823
 30
0.0
 10
185.432611
 20
79.312826
 30
0.0
 10
177.808605
 20
79.312826
 30
0.0
 10
177.808605
 20
75.312823
 30
0.0
 10
169.432599
 20
75.312823
 30
0.0
 10
169.432599
 20
79.312826
 30
0.0
 10
161.808592
 20
79.312826
 30
0.0
 10
161.808592
 20
75.312823
 30
0.0
 10
153.432586
 20
75.312823
 30
0.0
 10
153.432586
 20
79.312826
 30
0.0
 10
145.808579
 20
79.312826
 30
0.0
 10
145.808579
 20
75.312823
 30
0.0
 10
137.432573
 20
75.312823
 30
0.0
 10
137.432573
 20
79.312826
 30
0.0
 10
129.808565
 20
79.312826
 30
0.0
 10
129.808565
 20
75.312823
 30
0.0
 10
121.432560
 20
75.312823
 30
0.0
 10
121.432560
 20
79.312826
 30
0.0
 10
113.808552
 20
79.312826
 30
0.0
 10
113.808552
 20
75.312823
 30
0.0
 10
102.932543
 20
75.312823
 30
0.0
 10
102.932543
 20
79.312826
 30
0.0
 10
96.432999
 20
79.312826
 30
0.0
 10
96.432999
 20
87.688832
 30
0.0
 10
96.432999
 20
99.312843
 30
0.0
 10
96.432999
 20
107.688848
 30
0.0
 10
96.432999
 20
115.312856
 30
0.0
 10
96.432999
 20
123.688862
 30
0.0
 10
96.432999
 20
131.312869
 30
0.0
 10
96.432999
 20
139.688875
 30
0.0
 10
96.432999
 20
151.312884
 30
0.0
 10
96.432999
 20
159.688891
 30
0.0
 10
102.932543
 20
159.688891
 30
0.0
 10
102.932543
 20
163.688895
 30
0.0
 10
113.808552
 20
163.688895
 30
0.0
 10
113.808552
 20
159.688891
 30
0.0
 10
121.432560
 20
159.688891
 30
0.0
 10
121.432560
 20
163.688895
 30
0.0
 10
129.808565
 20
163.688895
 30
0.0
 10
129.808565
 20
159.688891
 30
0.0
 10
137.432573
 20
159.688891
 30
0.0
 10
137.432573
 20
163.688895
 30
0.0
 10
145.808579
 20
163.688895
 30
0.0
 10
145.808579
 20
159.688891
 30
0.0
 10
153.432586
 20
159.688891
 30
0.0
 10
153.432586
 20
163.688895
 30
0.0
 10
161.808592
 20
163.688895
 30
0.0
 10
161.808592
 20
159.688891
 30
0.0
 10
169.432599
 20
159.688891
 30
0.0
 10
169.432599
 20
163.688895
 30
0.0
 10
177.808605
 20
163.688895
 30
0.0
 10
177.808605
 20
159.688891
 30
0.0
 10
185.432611
 20
159.688891
 30
0.0
 10
185.432611
 20
163.688895
 30
0.0
 10
196.308620
 20
163.688895
 30
0.0
 10
196.308620
 20
159.688891
 30
0.0
 10
206.808629
 20
159.688891
 30
0.0
 10
206.808629
 20
151.312884
 30
0.0
 10
202.808626
 20
151.312884
 30
0.0
 10
202.808626
 20
139.688875
 30
0.0
  0
SPLINE
  5
10b
100
AcDbEntity
  8
Ebene_1
 62
7
100
AcDbSpline
 70
8
 71
3
 72
8
 73
4
 74
0
 40
0
 40
0
 40
0
 40
0
 40
1
 40
1
 40
1
 40
1
 10
383.258692
 20
-16.754190
 30
0.0
 10
383.258681
 20
-17.862127
 30
0.0
 10
382.327583
 20
-18.760282
 30
0.0
 10
381.179019
 20
-18.760282
 30
0.0
  0
SPLINE
  5
10c
100
AcDbEntity
  8
Ebene_1
 62
7
100
AcDbSpline
 70
8
 71
3
 72
8
 73
4
 74
0
 40
0
 40
0
 40
0
 40
0
 40
1
 40
1
 40
1
 40
1
 10
381.179019
 20
-18.760282
 30
0.0
 10
380.030455
 20
-18.760282
 30
0.0
 10
379.099357
 20
-17.862127
 30
0.0
 10
379.099346
 20
-16.754190
 30
0.0
  0
SPLINE
  5
10d
100
AcDbEntity
  8
Ebene_1
 62
7
100
AcDbSpline
 70
8
 71
3
 72
8
 73
4
 74
0
 40
0
 40
0
 40
0
 40
0
 40
1
 40
1
 40
1
 40
1
 10
379.099346
 20
-16.754190
 30
0.0
 10
379.099344
 20
-16.222135
 30
0.0
 10
379.318450
 20
-15.711870
 30
0.0
 10
379.708465
 20
-15.335649
 30
0.0
  0
SPLINE
  5
10e
100
AcDbEntity
  8
Ebene_1
 62
7
100
AcDbSpline
 70
8
 71
3
 72
8
 73
4
 74
0
 40
0
 40
0
 40
0
 40
0
 40
1
 40
1
 40
1
 40
1
 10
379.708465
 20
-15.335649
 30
0.0
 10
380.098480
 20
-14.959428
 30
0.0
 10
380.627454
 20
-14.748070
 30
0.0
 10
381.179019
 20
-14.748070
 30
0.0
  0
SPLINE
  5
10f
100
AcDbEntity
  8
Ebene_1
 62
7
100
AcDbSpline
 70
8
 71
3
 72
8
 73
4
 74
0
 40
0
 40
0
 40
0
 40
0
 40
1
 40
1
 40
1
 40
1
 10
381.179019
 20
-14.748070
 30
0.0
 10
381.730584
 20
-14.748070
 30
0.0
 10
382.259559
 20
-14.959428
 30
0.0
 10
382.649573
 20
-15.335649
 30
0.0
  0
SPLINE
  5
110
100
AcDbEntity
  8
Ebene_1
 62
7
100
AcDbSpline
 70
8
 71
3
 72
8
 73
4
 74
0
 40
0
 40
0
 40
0
 40
0
 40
1
 40
1
 40
1
 40
1
 10
382.649573
 20
-15.335649
 30
0.0
 10
383.039588
 20
-15.711870
 30
0.0
 10
383.258695
 20
-16.222135
 30
0.0
 10
383.258692
 20
-16.754190
 30
0.0
  0
LWPOLYLINE
  5
111
100
AcDbEntity
  8
Ebene_1
 62
7
100
AcDbPolyline
 90
2
 70
1
 10
252.013449
 20
-16.754190
 30
0.0
 10
252.013449
 20
-16.754190
 30
0.0
  0
LWPOLYLINE
  5
112
100
AcDbEntity
  8
Ebene_1
 62
7
100
AcDbPolyline
 90
2
 70
1
 10
383.258692
 20
-16.754190
 30
0.0
 10
383.258692
 20
-16.754190
 30
0.0
  0
LWPOLYLINE
  5
113
100
AcDbEntity
  8
Ebene_1
 62
7
100
AcDbPolyline
 90
5
 70
1
 10
63.947376
 20
165.357559
 30
0.0
 10
86.959599
 20
165.357559
 30
0.0
 10
86.959599
 20
78.345332
 30
0.0
 10
63.947376
 20
78.345332
 30
0.0
 10
63.947376
 20
165.357559
 30
0.0
  0
LWPOLYLINE
  5
114
100
AcDbEntity
  8
Ebene_1
 62
7
100
AcDbPolyline
 90
5
 70
1
 10
71.447375
 20
116.107551
 30
0.0
 10
77.459597
 20
116.107551
 30
0.0
 10
77.459597
 20
116.595329
 30
0.0
 10
71.447375
 20
116.595329
 30
0.0
 10
71.447375
 20
116.107551
 30
0.0
  0
SPLINE
  5
115
100
AcDbEntity
  8
Ebene_1
 62
3
100
AcDbSpline
 70
8
 71
3
 72
8
 73
4
 74
0
 40
0
 40
0
 40
0
 40
0
 40
1
 40
1
 40
1
 40
1
 10
330.996947
 20
239.905756
 30
0.0
 10
336.314114
 20
244.017822
 30
0.0
 10
340.922325
 20
246.676484
 30
0.0
 10
344.821581
 20
247.881744
 30
0.0
  0
SPLINE
  5
116
100
AcDbEntity
  8
Ebene_1
 62
3
100
AcDbSpline
 70
8
 71
3
 72
8
 73
4
 74
0
 40
0
 40
0
 40
0
 40
0
 40
1
 40
1
 40
1
 40
1
 10
344.821581
 20
247.881744
 30
0.0
 10
348.649941
 20
249.016107
 30
0.0
 10
350.209643
 20
248.307130
 30
0.0
 10
349.500687
 20
245.754814
 30
0.0
  0
SPLINE
  5
117
100
AcDbEntity
  8
Ebene_1
 62
3
100
AcDbSpline
 70
8
 71
3
 72
8
 73
4
 74
0
 40
0
 40
0
 40
0
 40
0
 40
1
 40
1
 40
1
 40
1
 10
349.500687
 20
245.754814
 30
0.0
 10
348.720837
 20
243.344294
 30
0.0
 10
346.806657
 20
241.004671
 30
0.0
 10
343.758148
 20
238.735946
 30
0.0
  0
SPLINE
  5
118
100
AcDbEntity
  8
Ebene_1
 62
3
100
AcDbSpline
 70
8
 71
3
 72
8
 73
4
 74
0
 40
0
 40
0
 40
0
 40
0
 40
1
 40
1
 40
1
 40
1
 10
343.758148
 20
238.735946
 30
0.0
 10
340.851430
 20
236.679913
 30
0.0
 10
338.051055
 20
235.510102
 30
0.0
 10
335.357024
 20
235.226512
 30
0.0
  0
SPLINE
  5
119
100
AcDbEntity
  8
Ebene_1
 62
3
100
AcDbSpline
 70
8
 71
3
 72
8
 73
4
 74
0
 40
0
 40
0
 40
0
 40
0
 40
1
 40
1
 40
1
 40
1
 10
335.357024
 20
235.226512
 30
0.0
 10
337.483891
 20
234.163046
 30
0.0
 10
338.724563
 20
231.468935
 30
0.0
 10
339.079041
 20
227.144177
 30
0.0
  0
SPLINE
  5
11a
100
AcDbEntity
  8
Ebene_1
 62
3
100
AcDbSpline
 70
8
 71
3
 72
8
 73
4
 74
0
 40
0
 40
0
 40
0
 40
0
 40
1
 40
1
 40
1
 40
1
 10
339.079041
 20
227.144177
 30
0.0
 10
339.362622
 20
222.535830
 30
0.0
 10
337.732024
 20
219.806270
 30
0.0
 10
334.187246
 20
218.955497
 30
0.0
  0
SPLINE
  5
11b
100
AcDbEntity
  8
Ebene_1
 62
3
100
AcDbSpline
 70
8
 71
3
 72
8
 73
4
 74
0
 40
0
 40
0
 40
0
 40
0
 40
1
 40
1
 40
1
 40
1
 10
334.187246
 20
218.955497
 30
0.0
 10
330.926051
 20
218.104726
 30
0.0
 10
328.551050
 20
219.558128
 30
0.0
 10
327.062243
 20
223.315705
 30
0.0
  0
LWPOLYLINE
  5
11c
100
AcDbEntity
  8
Ebene_1
 62
7
100
AcDbPolyline
 90
5
 70
1
 10
71.447375
 20
127.107552
 30
0.0
 10
77.459597
 20
127.107552
 30
0.0
 10
77.459597
 20
127.595329
 30
0.0
 10
71.447375
 20
127.595329
 30
0.0
 10
71.447375
 20
127.107552
 30
0.0
  0
SPLINE
  5
11d
100
AcDbEntity
  8
Ebene_1
 62
3
100
AcDbSpline
 70
8
 71
3
 72
8
 73
4
 74
0
 40
0
 40
0
 40
0
 40
0
 40
1
 40
1
 40
1
 40
1
 10
325.254406
 20
231.078998
 30
0.0
 10
321.355151
 20
229.164761
 30
0.0
 10
318.306642
 20
228.030398
 30
0.0
 10
316.108879
 20
227.675911
 30
0.0
  0
SPLINE
  5
11e
100
AcDbEntity
  8
Ebene_1
 62
3
100
AcDbSpline
 70
8
 71
3
 72
8
 73
4
 74
0
 40
0
 40
0
 40
0
 40
0
 40
1
 40
1
 40
1
 40
1
 10
316.108879
 20
227.675911
 30
0.0
 10
312.138728
 20
227.108729
 30
0.0
 10
309.728279
 20
228.455785
 30
0.0
 10
308.877532
 20
231.717076
 30
0.0
  0
SPLINE
  5
11f
100
AcDbEntity
  8
Ebene_1
 62
3
100
AcDbSpline
 70
8
 71
3
 72
8
 73
4
 74
0
 40
0
 40
0
 40
0
 40
0
 40
1
 40
1
 40
1
 40
1
 10
308.877532
 20
231.717076
 30
0.0
 10
307.955891
 20
235.191063
 30
0.0
 10
309.232011
 20
238.097867
 30
0.0
 10
312.705893
 20
240.437490
 30
0.0
  0
SPLINE
  5
120
100
AcDbEntity
  8
Ebene_1
 62
3
100
AcDbSpline
 70
8
 71
3
 72
8
 73
4
 74
0
 40
0
 40
0
 40
0
 40
0
 40
1
 40
1
 40
1
 40
1
 10
312.705893
 20
240.437490
 30
0.0
 10
315.825298
 20
242.635317
 30
0.0
 10
319.051045
 20
243.450640
 30
0.0
 10
322.383136
 20
242.883459
 30
0.0
  0
SPLINE
  5
121
100
AcDbEntity
  8
Ebene_1
 62
3
100
AcDbSpline
 70
8
 71
3
 72
8
 73
4
 74
0
 40
0
 40
0
 40
0
 40
0
 40
1
 40
1
 40
1
 40
1
 10
322.383136
 20
242.883459
 30
0.0
 10
319.901791
 20
244.514104
 30
0.0
 10
318.838358
 20
247.669051
 30
0.0
 10
319.192837
 20
252.348297
 30
0.0
  0
SPLINE
  5
122
100
AcDbEntity
  8
Ebene_1
 62
3
100
AcDbSpline
 70
8
 71
3
 72
8
 73
4
 74
0
 40
0
 40
0
 40
0
 40
0
 40
1
 40
1
 40
1
 40
1
 10
319.192837
 20
252.348297
 30
0.0
 10
319.405523
 20
257.098440
 30
0.0
 10
321.142464
 20
259.579858
 30
0.0
 10
324.403660
 20
259.792552
 30
0.0
  0
SPLINE
  5
123
100
AcDbEntity
  8
Ebene_1
 62
3
100
AcDbSpline
 70
8
 71
3
 72
8
 73
4
 74
0
 40
0
 40
0
 40
0
 40
0
 40
1
 40
1
 40
1
 40
1
 10
324.403660
 20
259.792552
 30
0.0
 10
327.310377
 20
259.934346
 30
0.0
 10
329.295453
 20
257.346581
 30
0.0
 10
330.358888
 20
252.029257
 30
0.0
  0
SPLINE
  5
124
100
AcDbEntity
  8
Ebene_1
 62
3
100
AcDbSpline
 70
8
 71
3
 72
8
 73
4
 74
0
 40
0
 40
0
 40
0
 40
0
 40
1
 40
1
 40
1
 40
1
 10
330.358888
 20
252.029257
 30
0.0
 10
330.996948
 20
248.484374
 30
0.0
 10
331.209634
 20
244.443207
 30
0.0
 10
330.996947
 20
239.905756
 30
0.0
  0
SPLINE
  5
125
100
AcDbEntity
  8
Ebene_1
 62
3
100
AcDbSpline
 70
8
 71
3
 72
8
 73
4
 74
0
 40
0
 40
0
 40
0
 40
0
 40
1
 40
1
 40
1
 40
1
 10
298.455886
 20
221.401468
 30
0.0
 10
299.023050
 20
225.159044
 30
0.0
 10
300.263723
 20
226.187060
 30
0.0
 10
302.177903
 20
224.485515
 30
0.0
  0
SPLINE
  5
126
100
AcDbEntity
  8
Ebene_1
 62
3
100
AcDbSpline
 70
8
 71
3
 72
8
 73
4
 74
0
 40
0
 40
0
 40
0
 40
0
 40
1
 40
1
 40
1
 40
1
 10
302.177903
 20
224.485515
 30
0.0
 10
303.950292
 20
222.925767
 30
0.0
 10
305.155516
 20
220.408900
 30
0.0
 10
305.793576
 20
216.934915
 30
0.0
  0
SPLINE
  5
127
100
AcDbEntity
  8
Ebene_1
 62
3
100
AcDbSpline
 70
8
 71
3
 72
8
 73
4
 74
0
 40
0
 40
0
 40
0
 40
0
 40
1
 40
1
 40
1
 40
1
 10
305.793576
 20
216.934915
 30
0.0
 10
306.431637
 20
213.602725
 30
0.0
 10
306.325293
 20
210.695920
 30
0.0
 10
305.474546
 20
208.214502
 30
0.0
  0
SPLINE
  5
128
100
AcDbEntity
  8
Ebene_1
 62
3
100
AcDbSpline
 70
8
 71
3
 72
8
 73
4
 74
0
 40
0
 40
0
 40
0
 40
0
 40
1
 40
1
 40
1
 40
1
 10
305.474546
 20
208.214502
 30
0.0
 10
307.246935
 20
209.632455
 30
0.0
 10
310.047309
 20
209.597007
 30
0.0
 10
313.875670
 20
208.108155
 30
0.0
  0
SPLINE
  5
129
100
AcDbEntity
  8
Ebene_1
 62
3
100
AcDbSpline
 70
8
 71
3
 72
8
 73
4
 74
0
 40
0
 40
0
 40
0
 40
0
 40
1
 40
1
 40
1
 40
1
 10
313.875670
 20
208.108155
 30
0.0
 10
317.987612
 20
206.619305
 30
0.0
 10
319.653657
 20
204.173335
 30
0.0
 10
318.873806
 20
200.770247
 30
0.0
  0
SPLINE
  5
12a
100
AcDbEntity
  8
Ebene_1
 62
3
100
AcDbSpline
 70
8
 71
3
 72
8
 73
4
 74
0
 40
0
 40
0
 40
0
 40
0
 40
1
 40
1
 40
1
 40
1
 10
318.873806
 20
200.770247
 30
0.0
 10
318.235746
 20
197.650751
 30
0.0
 10
316.037984
 20
196.197349
 30
0.0
 10
312.280519
 20
196.410041
 30
0.0
  0
LWPOLYLINE
  5
12b
100
AcDbEntity
  8
Ebene_1
 62
3
100
AcDbPolyline
 90
2
 70
0
 10
327.062243
 20
223.315705
 30
0.0
 10
325.254406
 20
231.078998
 30
0.0
  0
SPLINE
  5
12c
100
AcDbEntity
  8
Ebene_1
 62
3
100
AcDbSpline
 70
8
 71
3
 72
8
 73
4
 74
0
 40
0
 40
0
 40
0
 40
0
 40
1
 40
1
 40
1
 40
1
 10
305.049172
 20
198.111585
 30
0.0
 10
305.049172
 20
193.928623
 30
0.0
 10
304.730142
 20
190.844575
 30
0.0
 10
304.092082
 20
188.859441
 30
0.0
  0
SPLINE
  5
12d
100
AcDbEntity
  8
Ebene_1
 62
3
100
AcDbSpline
 70
8
 71
3
 72
8
 73
4
 74
0
 40
0
 40
0
 40
0
 40
0
 40
1
 40
1
 40
1
 40
1
 10
304.092082
 20
188.859441
 30
0.0
 10
303.028649
 20
185.243660
 30
0.0
 10
300.937230
 20
183.683911
 30
0.0
 10
297.817825
 20
184.180195
 30
0.0
  0
SPLINE
  5
12e
100
AcDbEntity
  8
Ebene_1
 62
3
100
AcDbSpline
 70
8
 71
3
 72
8
 73
4
 74
0
 40
0
 40
0
 40
0
 40
0
 40
1
 40
1
 40
1
 40
1
 10
297.817825
 20
184.180195
 30
0.0
 10
294.485734
 20
184.818274
 30
0.0
 10
292.536107
 20
187.122448
 30
0.0
 10
291.968942
 20
191.092717
 30
0.0
  0
SPLINE
  5
12f
100
AcDbEntity
  8
Ebene_1
 62
3
100
AcDbSpline
 70
8
 71
3
 72
8
 73
4
 74
0
 40
0
 40
0
 40
0
 40
0
 40
1
 40
1
 40
1
 40
1
 10
291.968942
 20
191.092717
 30
0.0
 10
291.330882
 20
194.637600
 30
0.0
 10
291.933494
 20
197.686199
 30
0.0
 10
293.776779
 20
200.238515
 30
0.0
  0
SPLINE
  5
130
100
AcDbEntity
  8
Ebene_1
 62
3
100
AcDbSpline
 70
8
 71
3
 72
8
 73
4
 74
0
 40
0
 40
0
 40
0
 40
0
 40
1
 40
1
 40
1
 40
1
 10
293.776779
 20
200.238515
 30
0.0
 10
291.366330
 20
198.820562
 30
0.0
 10
288.211477
 20
199.175050
 30
0.0
 10
284.312221
 20
201.301980
 30
0.0
  0
SPLINE
  5
131
100
AcDbEntity
  8
Ebene_1
 62
3
100
AcDbSpline
 70
8
 71
3
 72
8
 73
4
 74
0
 40
0
 40
0
 40
0
 40
0
 40
1
 40
1
 40
1
 40
1
 10
284.312221
 20
201.301980
 30
0.0
 10
280.412966
 20
203.428910
 30
0.0
 10
279.030503
 20
205.910328
 30
0.0
 10
280.164832
 20
208.746235
 30
0.0
  0
SPLINE
  5
132
100
AcDbEntity
  8
Ebene_1
 62
3
100
AcDbSpline
 70
8
 71
3
 72
8
 73
4
 74
0
 40
0
 40
0
 40
0
 40
0
 40
1
 40
1
 40
1
 40
1
 10
280.164832
 20
208.746235
 30
0.0
 10
281.228265
 20
211.298550
 30
0.0
 10
284.241326
 20
211.972078
 30
0.0
 10
289.204015
 20
210.766817
 30
0.0
  0
SPLINE
  5
133
100
AcDbEntity
  8
Ebene_1
 62
3
100
AcDbSpline
 70
8
 71
3
 72
8
 73
4
 74
0
 40
0
 40
0
 40
0
 40
0
 40
1
 40
1
 40
1
 40
1
 10
289.204015
 20
210.766817
 30
0.0
 10
292.465210
 20
209.916046
 30
0.0
 10
295.974540
 20
208.498093
 30
0.0
 10
299.732005
 20
206.512958
 30
0.0
  0
SPLINE
  5
134
100
AcDbEntity
  8
Ebene_1
 62
3
100
AcDbSpline
 70
8
 71
3
 72
8
 73
4
 74
0
 40
0
 40
0
 40
0
 40
0
 40
1
 40
1
 40
1
 40
1
 10
299.732005
 20
206.512958
 30
0.0
 10
298.314095
 20
212.610157
 30
0.0
 10
297.888722
 20
217.572994
 30
0.0
 10
298.455886
 20
221.401468
 30
0.0
  0
SPLINE
  5
135
100
AcDbEntity
  8
Ebene_1
 62
3
100
AcDbSpline
 70
8
 71
3
 72
8
 73
4
 74
0
 40
0
 40
0
 40
0
 40
0
 40
1
 40
1
 40
1
 40
1
 10
352.159272
 20
206.300265
 30
0.0
 10
355.278674
 20
207.363731
 30
0.0
 10
356.554795
 20
206.831998
 30
0.0
 10
355.987634
 20
204.705068
 30
0.0
  0
SPLINE
  5
136
100
AcDbEntity
  8
Ebene_1
 62
3
100
AcDbSpline
 70
8
 71
3
 72
8
 73
4
 74
0
 40
0
 40
0
 40
0
 40
0
 40
1
 40
1
 40
1
 40
1
 10
355.987634
 20
204.705068
 30
0.0
 10
355.491360
 20
202.719933
 30
0.0
 10
354.002552
 20
200.770248
 30
0.0
 10
351.521211
 20
198.856012
 30
0.0
  0
SPLINE
  5
137
100
AcDbEntity
  8
Ebene_1
 62
3
100
AcDbSpline
 70
8
 71
3
 72
8
 73
4
 74
0
 40
0
 40
0
 40
0
 40
0
 40
1
 40
1
 40
1
 40
1
 10
351.521211
 20
198.856012
 30
0.0
 10
349.181657
 20
197.012672
 30
0.0
 10
346.913000
 20
195.913758
 30
0.0
 10
344.715238
 20
195.559269
 30
0.0
  0
SPLINE
  5
138
100
AcDbEntity
  8
Ebene_1
 62
3
100
AcDbSpline
 70
8
 71
3
 72
8
 73
4
 74
0
 40
0
 40
0
 40
0
 40
0
 40
1
 40
1
 40
1
 40
1
 10
344.715238
 20
195.559269
 30
0.0
 10
346.487627
 20
194.779395
 30
0.0
 10
347.551060
 20
192.617017
 30
0.0
 10
347.905537
 20
189.072134
 30
0.0
  0
SPLINE
  5
139
100
AcDbEntity
  8
Ebene_1
 62
3
100
AcDbSpline
 70
8
 71
3
 72
8
 73
4
 74
0
 40
0
 40
0
 40
0
 40
0
 40
1
 40
1
 40
1
 40
1
 10
347.905537
 20
189.072134
 30
0.0
 10
348.330911
 20
185.314558
 30
0.0
 10
347.090239
 20
183.010384
 30
0.0
 10
344.183520
 20
182.159612
 30
0.0
  0
SPLINE
  5
13a
100
AcDbEntity
  8
Ebene_1
 62
3
100
AcDbSpline
 70
8
 71
3
 72
8
 73
4
 74
0
 40
0
 40
0
 40
0
 40
0
 40
1
 40
1
 40
1
 40
1
 10
344.183520
 20
182.159612
 30
0.0
 10
341.489490
 20
181.450635
 30
0.0
 10
339.504414
 20
182.584998
 30
0.0
 10
338.228294
 20
185.562699
 30
0.0
  0
LWPOLYLINE
  5
13b
100
AcDbEntity
  8
Ebene_1
 62
3
100
AcDbPolyline
 90
2
 70
0
 10
312.280519
 20
196.410041
 30
0.0
 10
305.049172
 20
198.111585
 30
0.0
  0
SPLINE
  5
13c
100
AcDbEntity
  8
Ebene_1
 62
3
100
AcDbSpline
 70
8
 71
3
 72
8
 73
4
 74
0
 40
0
 40
0
 40
0
 40
0
 40
1
 40
1
 40
1
 40
1
 10
336.526801
 20
191.837142
 30
0.0
 10
333.336500
 20
190.206496
 30
0.0
 10
330.819708
 20
189.213929
 30
0.0
 10
328.976423
 20
188.859441
 30
0.0
  0
SPLINE
  5
13d
100
AcDbEntity
  8
Ebene_1
 62
3
100
AcDbSpline
 70
8
 71
3
 72
8
 73
4
 74
0
 40
0
 40
0
 40
0
 40
0
 40
1
 40
1
 40
1
 40
1
 10
328.976423
 20
188.859441
 30
0.0
 10
325.715227
 20
188.292259
 30
0.0
 10
323.694704
 20
189.320275
 30
0.0
 10
322.914854
 20
191.943489
 30
0.0
  0
SPLINE
  5
13e
100
AcDbEntity
  8
Ebene_1
 62
3
100
AcDbSpline
 70
8
 71
3
 72
8
 73
4
 74
0
 40
0
 40
0
 40
0
 40
0
 40
1
 40
1
 40
1
 40
1
 10
322.914854
 20
191.943489
 30
0.0
 10
322.064106
 20
194.779395
 30
0.0
 10
323.021197
 20
197.225364
 30
0.0
 10
325.786124
 20
199.281397
 30
0.0
  0
SPLINE
  5
13f
100
AcDbEntity
  8
Ebene_1
 62
3
100
AcDbSpline
 70
8
 71
3
 72
8
 73
4
 74
0
 40
0
 40
0
 40
0
 40
0
 40
1
 40
1
 40
1
 40
1
 10
325.786124
 20
199.281397
 30
0.0
 10
328.338363
 20
201.195634
 30
0.0
 10
330.996947
 20
201.940059
 30
0.0
 10
333.761874
 20
201.514674
 30
0.0
  0
SPLINE
  5
140
100
AcDbEntity
  8
Ebene_1
 62
3
100
AcDbSpline
 70
8
 71
3
 72
8
 73
4
 74
0
 40
0
 40
0
 40
0
 40
0
 40
1
 40
1
 40
1
 40
1
 10
333.761874
 20
201.514674
 30
0.0
 10
331.705902
 20
202.861729
 30
0.0
 10
330.713364
 20
205.449493
 30
0.0
 10
330.784260
 20
209.277967
 30
0.0
  0
SPLINE
  5
141
100
AcDbEntity
  8
Ebene_1
 62
3
100
AcDbSpline
 70
8
 71
3
 72
8
 73
4
 74
0
 40
0
 40
0
 40
0
 40
0
 40
1
 40
1
 40
1
 40
1
 10
330.784260
 20
209.277967
 30
0.0
 10
330.926051
 20
213.177339
 30
0.0
 10
332.308515
 20
215.268820
 30
0.0
 10
334.931651
 20
215.552410
 30
0.0
  0
SPLINE
  5
142
100
AcDbEntity
  8
Ebene_1
 62
3
100
AcDbSpline
 70
8
 71
3
 72
8
 73
4
 74
0
 40
0
 40
0
 40
0
 40
0
 40
1
 40
1
 40
1
 40
1
 10
334.931651
 20
215.552410
 30
0.0
 10
337.342100
 20
215.694206
 30
0.0
 10
339.043593
 20
213.602725
 30
0.0
 10
340.036131
 20
209.277967
 30
0.0
  0
SPLINE
  5
143
100
AcDbEntity
  8
Ebene_1
 62
3
100
AcDbSpline
 70
8
 71
3
 72
8
 73
4
 74
0
 40
0
 40
0
 40
0
 40
0
 40
1
 40
1
 40
1
 40
1
 10
340.036131
 20
209.277967
 30
0.0
 10
340.674191
 20
206.512959
 30
0.0
 10
340.993221
 20
203.216217
 30
0.0
 10
340.993221
 20
199.387743
 30
0.0
  0
SPLINE
  5
144
100
AcDbEntity
  8
Ebene_1
 62
3
100
AcDbSpline
 70
8
 71
3
 72
8
 73
4
 74
0
 40
0
 40
0
 40
0
 40
0
 40
1
 40
1
 40
1
 40
1
 10
340.993221
 20
199.387743
 30
0.0
 10
345.176059
 20
202.932626
 30
0.0
 10
348.898076
 20
205.236800
 30
0.0
 10
352.159272
 20
206.300265
 30
0.0
  0
SPLINE
  5
145
100
AcDbEntity
  8
Ebene_1
 62
3
100
AcDbSpline
 70
8
 71
3
 72
8
 73
4
 74
0
 40
0
 40
0
 40
0
 40
0
 40
1
 40
1
 40
1
 40
1
 10
342.694714
 20
215.127025
 30
0.0
 10
343.190983
 20
215.127025
 30
0.0
 10
343.616356
 20
214.914331
 30
0.0
 10
343.970835
 20
214.488945
 30
0.0
  0
LWPOLYLINE
  5
146
100
AcDbEntity
  8
Ebene_1
 62
3
100
AcDbPolyline
 90
2
 70
0
 10
338.228294
 20
185.562699
 30
0.0
 10
336.526801
 20
191.837142
 30
0.0
  0
SPLINE
  5
147
100
AcDbEntity
  8
Ebene_1
 62
3
100
AcDbSpline
 70
8
 71
3
 72
8
 73
4
 74
0
 40
0
 40
0
 40
0
 40
0
 40
1
 40
1
 40
1
 40
1
 10
344.289864
 20
214.169906
 30
0.0
 10
344.927924
 20
213.106441
 30
0.0
 10
344.927924
 20
211.121306
 30
0.0
 10
344.289864
 20
208.214502
 30
0.0
  0
LWPOLYLINE
  5
148
100
AcDbEntity
  8
Ebene_1
 62
3
100
AcDbPolyline
 90
2
 70
0
 10
343.970835
 20
214.488945
 30
0.0
 10
344.289864
 20
214.169906
 30
0.0
  0
SPLINE
  5
149
100
AcDbEntity
  8
Ebene_1
 62
3
100
AcDbSpline
 70
8
 71
3
 72
8
 73
4
 74
0
 40
0
 40
0
 40
0
 40
0
 40
1
 40
1
 40
1
 40
1
 10
343.120088
 20
204.173336
 30
0.0
 10
344.537999
 20
206.654754
 30
0.0
 10
346.133148
 20
208.746235
 30
0.0
 10
347.905537
 20
210.447779
 30
0.0
  0
SPLINE
  5
14a
100
AcDbEntity
  8
Ebene_1
 62
3
100
AcDbSpline
 70
8
 71
3
 72
8
 73
4
 74
0
 40
0
 40
0
 40
0
 40
0
 40
1
 40
1
 40
1
 40
1
 10
347.905537
 20
210.447779
 30
0.0
 10
348.827180
 20
211.298550
 30
0.0
 10
349.713374
 20
211.759385
 30
0.0
 10
350.564121
 20
211.830283
 30
0.0
  0
LWPOLYLINE
  5
14b
100
AcDbEntity
  8
Ebene_1
 62
3
100
AcDbPolyline
 90
3
 70
0
 10
344.289864
 20
208.214502
 30
0.0
 10
342.907401
 20
204.066989
 30
0.0
 10
343.120088
 20
204.173336
 30
0.0
  0
SPLINE
  5
14c
100
AcDbEntity
  8
Ebene_1
 62
3
100
AcDbSpline
 70
8
 71
3
 72
8
 73
4
 74
0
 40
0
 40
0
 40
0
 40
0
 40
1
 40
1
 40
1
 40
1
 10
352.265614
 20
211.404897
 30
0.0
 10
352.974570
 20
210.483227
 30
0.0
 10
352.868227
 20
209.597007
 30
0.0
 10
351.946585
 20
208.746235
 30
0.0
  0
LWPOLYLINE
  5
14d
100
AcDbEntity
  8
Ebene_1
 62
3
100
AcDbPolyline
 90
2
 70
0
 10
350.564121
 20
211.830283
 30
0.0
 10
352.265614
 20
211.404897
 30
0.0
  0
SPLINE
  5
14e
100
AcDbEntity
  8
Ebene_1
 62
3
100
AcDbSpline
 70
8
 71
3
 72
8
 73
4
 74
0
 40
0
 40
0
 40
0
 40
0
 40
1
 40
1
 40
1
 40
1
 10
351.414867
 20
209.384314
 30
0.0
 10
351.982032
 20
209.809699
 30
0.0
 10
352.052927
 20
210.235086
 30
0.0
 10
351.627554
 20
210.660472
 30
0.0
  0
LWPOLYLINE
  5
14f
100
AcDbEntity
  8
Ebene_1
 62
3
100
AcDbPolyline
 90
4
 70
0
 10
351.946585
 20
208.746235
 30
0.0
 10
350.138748
 20
208.320849
 30
0.0
 10
350.245092
 20
209.171620
 30
0.0
 10
351.414867
 20
209.384314
 30
0.0
  0
SPLINE
  5
150
100
AcDbEntity
  8
Ebene_1
 62
3
100
AcDbSpline
 70
8
 71
3
 72
8
 73
4
 74
0
 40
0
 40
0
 40
0
 40
0
 40
1
 40
1
 40
1
 40
1
 10
343.651804
 20
203.535256
 30
0.0
 10
343.793596
 20
202.329996
 30
0.0
 10
342.871953
 20
200.061271
 30
0.0
 10
340.886877
 20
196.729081
 30
0.0
  0
SPLINE
  5
151
100
AcDbEntity
  8
Ebene_1
 62
3
100
AcDbSpline
 70
8
 71
3
 72
8
 73
4
 74
0
 40
0
 40
0
 40
0
 40
0
 40
1
 40
1
 40
1
 40
1
 10
340.886877
 20
196.729081
 30
0.0
 10
338.901801
 20
193.609584
 30
0.0
 10
337.129413
 20
191.305410
 30
0.0
 10
335.569711
 20
189.816559
 30
0.0
  0
SPLINE
  5
152
100
AcDbEntity
  8
Ebene_1
 62
3
100
AcDbSpline
 70
8
 71
3
 72
8
 73
4
 74
0
 40
0
 40
0
 40
0
 40
0
 40
1
 40
1
 40
1
 40
1
 10
335.569711
 20
189.816559
 30
0.0
 10
338.263741
 20
197.189916
 30
0.0
 10
340.390608
 20
201.762815
 30
0.0
 10
341.950311
 20
203.535256
 30
0.0
  0
LWPOLYLINE
  5
153
100
AcDbEntity
  8
Ebene_1
 62
3
100
AcDbPolyline
 90
6
 70
0
 10
351.627554
 20
210.660472
 30
0.0
 10
350.670464
 20
210.979511
 30
0.0
 10
348.437255
 20
209.809700
 30
0.0
 10
345.459641
 20
206.300265
 30
0.0
 10
343.758148
 20
203.535256
 30
0.0
 10
343.651804
 20
203.535256
 30
0.0
  0
SPLINE
  5
154
100
AcDbEntity
  8
Ebene_1
 62
3
100
AcDbSpline
 70
8
 71
3
 72
8
 73
4
 74
0
 40
0
 40
0
 40
0
 40
0
 40
1
 40
1
 40
1
 40
1
 10
343.332774
 20
208.533542
 30
0.0
 10
344.041729
 20
211.085858
 30
0.0
 10
344.112625
 20
212.787402
 30
0.0
 10
343.545461
 20
213.638173
 30
0.0
  0
LWPOLYLINE
  5
155
100
AcDbEntity
  8
Ebene_1
 62
3
100
AcDbPolyline
 90
3
 70
0
 10
341.950311
 20
203.535256
 30
0.0
 10
341.843967
 20
203.641603
 30
0.0
 10
343.332774
 20
208.533542
 30
0.0
  0
SPLINE
  5
156
100
AcDbEntity
  8
Ebene_1
 62
3
100
AcDbSpline
 70
8
 71
3
 72
8
 73
4
 74
0
 40
0
 40
0
 40
0
 40
0
 40
1
 40
1
 40
1
 40
1
 10
342.162998
 20
214.063560
 30
0.0
 10
341.595834
 20
213.496378
 30
0.0
 10
341.595834
 20
212.893748
 30
0.0
 10
342.162998
 20
212.255669
 30
0.0
  0
LWPOLYLINE
  5
157
100
AcDbEntity
  8
Ebene_1
 62
3
100
AcDbPolyline
 90
3
 70
0
 10
343.545461
 20
213.638173
 30
0.0
 10
343.332774
 20
213.957213
 30
0.0
 10
342.162998
 20
214.063560
 30
0.0
  0
SPLINE
  5
158
100
AcDbEntity
  8
Ebene_1
 62
3
100
AcDbSpline
 70
8
 71
3
 72
8
 73
4
 74
0
 40
0
 40
0
 40
0
 40
0
 40
1
 40
1
 40
1
 40
1
 10
341.524937
 20
211.723936
 30
0.0
 10
341.099564
 20
212.220220
 30
0.0
 10
340.922325
 20
212.751953
 30
0.0
 10
340.993221
 20
213.319134
 30
0.0
  0
SPLINE
  5
159
100
AcDbEntity
  8
Ebene_1
 62
3
100
AcDbSpline
 70
8
 71
3
 72
8
 73
4
 74
0
 40
0
 40
0
 40
0
 40
0
 40
1
 40
1
 40
1
 40
1
 10
340.993221
 20
213.319134
 30
0.0
 10
341.064117
 20
213.886316
 30
0.0
 10
341.276803
 20
214.347150
 30
0.0
 10
341.631280
 20
214.701638
 30
0.0
  0
LWPOLYLINE
  5
15a
100
AcDbEntity
  8
Ebene_1
 62
3
100
AcDbPolyline
 90
4
 70
0
 10
342.162998
 20
212.255669
 30
0.0
 10
342.269340
 20
212.149323
 30
0.0
 10
341.737624
 20
211.511244
 30
0.0
 10
341.524937
 20
211.723936
 30
0.0
  0
LWPOLYLINE
  5
15b
100
AcDbEntity
  8
Ebene_1
 62
3
100
AcDbPolyline
 90
2
 70
0
 10
341.631280
 20
214.701638
 30
0.0
 10
342.694714
 20
215.127025
 30
0.0
  0
LWPOLYLINE
  5
15c
100
AcDbEntity
  8
Ebene_1
 62
3
100
AcDbPolyline
 90
2
 70
0
 10
343.003793
 20
215.092681
 30
0.0
 10
341.104639
 20
213.811648
 30
0.0
  0
LWPOLYLINE
  5
15d
100
AcDbEntity
  8
Ebene_1
 62
3
100
AcDbPolyline
 90
2
 70
0
 10
342.401734
 20
214.041856
 30
0.0
 10
343.583252
 20
214.838824
 30
0.0
  0
LWPOLYLINE
  5
15e
100
AcDbEntity
  8
Ebene_1
 62
3
100
AcDbPolyline
 90
2
 70
0
 10
341.894139
 20
213.699468
 30
0.0
 10
340.989573
 20
213.089313
 30
0.0
  0
LWPOLYLINE
  5
15f
100
AcDbEntity
  8
Ebene_1
 62
3
100
AcDbPolyline
 90
2
 70
0
 10
343.244021
 20
213.965282
 30
0.0
 10
343.990785
 20
214.468994
 30
0.0
  0
LWPOLYLINE
  5
160
100
AcDbEntity
  8
Ebene_1
 62
3
100
AcDbPolyline
 90
2
 70
0
 10
341.763284
 20
212.966482
 30
0.0
 10
341.071878
 20
212.500110
 30
0.0
  0
LWPOLYLINE
  5
161
100
AcDbEntity
  8
Ebene_1
 62
3
100
AcDbPolyline
 90
2
 70
0
 10
343.588778
 20
213.553110
 30
0.0
 10
344.341518
 20
214.060855
 30
0.0
  0
LWPOLYLINE
  5
162
100
AcDbEntity
  8
Ebene_1
 62
3
100
AcDbPolyline
 90
2
 70
0
 10
342.007125
 20
212.486239
 30
0.0
 10
341.313270
 20
212.018215
 30
0.0
  0
LWPOLYLINE
  5
163
100
AcDbEntity
  8
Ebene_1
 62
3
100
AcDbPolyline
 90
2
 70
0
 10
343.793486
 20
213.046470
 30
0.0
 10
344.548037
 20
213.555437
 30
0.0
  0
LWPOLYLINE
  5
164
100
AcDbEntity
  8
Ebene_1
 62
3
100
AcDbPolyline
 90
2
 70
0
 10
342.020188
 20
211.850329
 30
0.0
 10
341.648950
 20
211.599920
 30
0.0
  0
LWPOLYLINE
  5
165
100
AcDbEntity
  8
Ebene_1
 62
3
100
AcDbPolyline
 90
2
 70
0
 10
343.896204
 20
212.471037
 30
0.0
 10
344.678113
 20
212.998456
 30
0.0
  0
LWPOLYLINE
  5
166
100
AcDbEntity
  8
Ebene_1
 62
3
100
AcDbPolyline
 90
2
 70
0
 10
344.746386
 20
212.399788
 30
0.0
 10
343.917016
 20
211.840354
 30
0.0
  0
LWPOLYLINE
  5
167
100
AcDbEntity
  8
Ebene_1
 62
3
100
AcDbPolyline
 90
2
 70
0
 10
343.871055
 20
211.164632
 30
0.0
 10
344.763984
 20
211.766939
 30
0.0
  0
LWPOLYLINE
  5
168
100
AcDbEntity
  8
Ebene_1
 62
3
100
AcDbPolyline
 90
2
 70
0
 10
344.738859
 20
211.105269
 30
0.0
 10
343.769944
 20
210.451710
 30
0.0
  0
LWPOLYLINE
  5
169
100
AcDbEntity
  8
Ebene_1
 62
3
100
AcDbPolyline
 90
2
 70
0
 10
343.605836
 20
209.696294
 30
0.0
 10
344.668405
 20
210.413026
 30
0.0
  0
LWPOLYLINE
  5
16a
100
AcDbEntity
  8
Ebene_1
 62
3
100
AcDbPolyline
 90
2
 70
0
 10
344.553875
 20
209.691053
 30
0.0
 10
343.425931
 20
208.930221
 30
0.0
  0
LWPOLYLINE
  5
16b
100
AcDbEntity
  8
Ebene_1
 62
3
100
AcDbPolyline
 90
2
 70
0
 10
343.213722
 20
208.142360
 30
0.0
 10
344.422788
 20
208.957908
 30
0.0
  0
LWPOLYLINE
  5
16c
100
AcDbEntity
  8
Ebene_1
 62
3
100
AcDbPolyline
 90
2
 70
0
 10
344.291699
 20
208.224766
 30
0.0
 10
342.966825
 20
207.331100
 30
0.0
  0
LWPOLYLINE
  5
16d
100
AcDbEntity
  8
Ebene_1
 62
3
100
AcDbPolyline
 90
2
 70
0
 10
346.732104
 20
209.226168
 30
0.0
 10
350.585007
 20
211.825061
 30
0.0
  0
LWPOLYLINE
  5
16e
100
AcDbEntity
  8
Ebene_1
 62
3
100
AcDbPolyline
 90
2
 70
0
 10
344.016513
 20
207.394425
 30
0.0
 10
342.719926
 20
206.519839
 30
0.0
  0
LWPOLYLINE
  5
16f
100
AcDbEntity
  8
Ebene_1
 62
3
100
AcDbPolyline
 90
2
 70
0
 10
348.955354
 20
210.081094
 30
0.0
 10
351.282351
 20
211.650720
 30
0.0
  0
LWPOLYLINE
  5
170
100
AcDbEntity
  8
Ebene_1
 62
3
100
AcDbPolyline
 90
2
 70
0
 10
348.282359
 20
209.627139
 30
0.0
 10
345.502319
 20
207.751923
 30
0.0
  0
LWPOLYLINE
  5
171
100
AcDbEntity
  8
Ebene_1
 62
3
100
AcDbPolyline
 90
2
 70
0
 10
342.473028
 20
205.708581
 30
0.0
 10
343.739281
 20
206.562703
 30
0.0
  0
LWPOLYLINE
  5
172
100
AcDbEntity
  8
Ebene_1
 62
3
100
AcDbPolyline
 90
2
 70
0
 10
351.979697
 20
211.476378
 30
0.0
 10
351.053695
 20
210.851764
 30
0.0
  0
LWPOLYLINE
  5
173
100
AcDbEntity
  8
Ebene_1
 62
3
100
AcDbPolyline
 90
2
 70
0
 10
344.595027
 20
206.495208
 30
0.0
 10
347.003351
 20
208.119691
 30
0.0
  0
LWPOLYLINE
  5
174
100
AcDbEntity
  8
Ebene_1
 62
3
100
AcDbPolyline
 90
2
 70
0
 10
343.462048
 20
205.730982
 30
0.0
 10
342.226131
 20
204.897320
 30
0.0
  0
LWPOLYLINE
  5
175
100
AcDbEntity
  8
Ebene_1
 62
3
100
AcDbPolyline
 90
2
 70
0
 10
351.659354
 20
210.615578
 30
0.0
 10
352.439659
 20
211.141915
 30
0.0
  0
LWPOLYLINE
  5
176
100
AcDbEntity
  8
Ebene_1
 62
3
100
AcDbPolyline
 90
2
 70
0
 10
345.724341
 20
206.612242
 30
0.0
 10
343.833884
 20
205.337076
 30
0.0
  0
LWPOLYLINE
  5
177
100
AcDbEntity
  8
Ebene_1
 62
3
100
AcDbPolyline
 90
2
 70
0
 10
341.979233
 20
204.086060
 30
0.0
 10
343.184817
 20
204.899260
 30
0.0
  0
LWPOLYLINE
  5
178
100
AcDbEntity
  8
Ebene_1
 62
3
100
AcDbPolyline
 90
2
 70
0
 10
352.660843
 20
210.646391
 30
0.0
 10
351.895659
 20
210.130252
 30
0.0
  0
LWPOLYLINE
  5
179
100
AcDbEntity
  8
Ebene_1
 62
3
100
AcDbPolyline
 90
2
 70
0
 10
350.223970
 20
209.002650
 30
0.0
 10
350.559121
 20
209.228718
 30
0.0
  0
LWPOLYLINE
  5
17a
100
AcDbEntity
  8
Ebene_1
 62
3
100
AcDbPolyline
 90
2
 70
0
 10
344.921734
 20
205.426140
 30
0.0
 10
343.159366
 20
204.237373
 30
0.0
  0
LWPOLYLINE
  5
17b
100
AcDbEntity
  8
Ebene_1
 62
3
100
AcDbPolyline
 90
2
 70
0
 10
341.769450
 20
203.299834
 30
0.0
 10
342.907584
 20
204.067539
 30
0.0
  0
LWPOLYLINE
  5
17c
100
AcDbEntity
  8
Ebene_1
 62
3
100
AcDbPolyline
 90
2
 70
0
 10
352.715033
 20
210.038223
 30
0.0
 10
350.185202
 20
208.331780
 30
0.0
  0
LWPOLYLINE
  5
17d
100
AcDbEntity
  8
Ebene_1
 62
3
100
AcDbPolyline
 90
2
 70
0
 10
340.930712
 20
202.089362
 30
0.0
 10
344.243452
 20
204.323899
 30
0.0
  0
LWPOLYLINE
  5
17e
100
AcDbEntity
  8
Ebene_1
 62
3
100
AcDbPolyline
 90
2
 70
0
 10
352.275366
 20
209.096934
 30
0.0
 10
351.653054
 20
208.677167
 30
0.0
  0
LWPOLYLINE
  5
17f
100
AcDbEntity
  8
Ebene_1
 62
3
100
AcDbPolyline
 90
2
 70
0
 10
340.323164
 20
201.034833
 30
0.0
 10
343.653487
 20
203.281231
 30
0.0
  0
LWPOLYLINE
  5
180
100
AcDbEntity
  8
Ebene_1
 62
3
100
AcDbPolyline
 90
2
 70
0
 10
343.584027
 20
202.589658
 30
0.0
 10
339.798977
 20
200.036533
 30
0.0
  0
LWPOLYLINE
  5
181
100
AcDbEntity
  8
Ebene_1
 62
3
100
AcDbPolyline
 90
2
 70
0
 10
339.331588
 20
199.076545
 30
0.0
 10
343.385064
 20
201.810730
 30
0.0
  0
LWPOLYLINE
  5
182
100
AcDbEntity
  8
Ebene_1
 62
3
100
AcDbPolyline
 90
2
 70
0
 10
343.077560
 20
200.958590
 30
0.0
 10
338.902372
 20
198.142306
 30
0.0
  0
LWPOLYLINE
  5
183
100
AcDbEntity
  8
Ebene_1
 62
3
100
AcDbPolyline
 90
2
 70
0
 10
338.490529
 20
197.219787
 30
0.0
 10
342.678185
 20
200.044480
 30
0.0
  0
LWPOLYLINE
  5
184
100
AcDbEntity
  8
Ebene_1
 62
3
100
AcDbPolyline
 90
2
 70
0
 10
342.200363
 20
199.077455
 30
0.0
 10
338.105404
 20
196.315289
 30
0.0
  0
LWPOLYLINE
  5
185
100
AcDbEntity
  8
Ebene_1
 62
3
100
AcDbPolyline
 90
2
 70
0
 10
337.732509
 20
195.419039
 30
0.0
 10
341.624161
 20
198.044070
 30
0.0
  0
LWPOLYLINE
  5
186
100
AcDbEntity
  8
Ebene_1
 62
3
100
AcDbPolyline
 90
2
 70
0
 10
341.042824
 20
197.007222
 30
0.0
 10
337.373139
 20
194.531914
 30
0.0
  0
LWPOLYLINE
  5
187
100
AcDbEntity
  8
Ebene_1
 62
3
100
AcDbPolyline
 90
2
 70
0
 10
337.040832
 20
193.663043
 30
0.0
 10
340.321672
 20
195.876063
 30
0.0
  0
LWPOLYLINE
  5
188
100
AcDbEntity
  8
Ebene_1
 62
3
100
AcDbPolyline
 90
2
 70
0
 10
339.549265
 20
194.710333
 30
0.0
 10
336.708525
 20
192.794171
 30
0.0
  0
LWPOLYLINE
  5
189
100
AcDbEntity
  8
Ebene_1
 62
3
100
AcDbPolyline
 90
2
 70
0
 10
336.376217
 20
191.925300
 30
0.0
 10
338.648865
 20
193.458266
 30
0.0
  0
LWPOLYLINE
  5
18a
100
AcDbEntity
  8
Ebene_1
 62
3
100
AcDbPolyline
 90
2
 70
0
 10
337.631854
 20
192.127542
 30
0.0
 10
336.043910
 20
191.056429
 30
0.0
  0
SPLINE
  5
18b
100
AcDbEntity
  8
Ebene_1
 62
3
100
AcDbSpline
 70
8
 71
3
 72
8
 73
4
 74
0
 40
0
 40
0
 40
0
 40
0
 40
1
 40
1
 40
1
 40
1
 10
333.868217
 20
258.941778
 30
0.0
 10
334.435382
 20
258.941778
 30
0.0
 10
334.931651
 20
258.658188
 30
0.0
 10
335.357024
 20
258.091007
 30
0.0
  0
LWPOLYLINE
  5
18c
100
AcDbEntity
  8
Ebene_1
 62
3
100
AcDbPolyline
 90
2
 70
0
 10
335.711602
 20
190.187558
 30
0.0
 10
336.303905
 20
190.587083
 30
0.0
  0
SPLINE
  5
18d
100
AcDbEntity
  8
Ebene_1
 62
3
100
AcDbSpline
 70
8
 71
3
 72
8
 73
4
 74
0
 40
0
 40
0
 40
0
 40
0
 40
1
 40
1
 40
1
 40
1
 10
335.569711
 20
257.665621
 30
0.0
 10
336.420457
 20
256.318566
 30
0.0
 10
336.349561
 20
253.943494
 30
0.0
 10
335.357024
 20
250.540407
 30
0.0
  0
LWPOLYLINE
  5
18e
100
AcDbEntity
  8
Ebene_1
 62
3
100
AcDbPolyline
 90
2
 70
0
 10
335.357024
 20
258.091007
 30
0.0
 10
335.569711
 20
257.665621
 30
0.0
  0
SPLINE
  5
18f
100
AcDbEntity
  8
Ebene_1
 62
3
100
AcDbSpline
 70
8
 71
3
 72
8
 73
4
 74
0
 40
0
 40
0
 40
0
 40
0
 40
1
 40
1
 40
1
 40
1
 10
333.761874
 20
245.648467
 30
0.0
 10
335.746950
 20
248.697067
 30
0.0
 10
337.767473
 20
251.143036
 30
0.0
 10
339.823444
 20
252.986376
 30
0.0
  0
SPLINE
  5
190
100
AcDbEntity
  8
Ebene_1
 62
3
100
AcDbSpline
 70
8
 71
3
 72
8
 73
4
 74
0
 40
0
 40
0
 40
0
 40
0
 40
1
 40
1
 40
1
 40
1
 10
339.823444
 20
252.986376
 30
0.0
 10
341.099564
 20
254.049840
 30
0.0
 10
342.233893
 20
254.617021
 30
0.0
 10
343.226430
 20
254.687919
 30
0.0
  0
SPLINE
  5
191
100
AcDbEntity
  8
Ebene_1
 62
3
100
AcDbSpline
 70
8
 71
3
 72
8
 73
4
 74
0
 40
0
 40
0
 40
0
 40
0
 40
1
 40
1
 40
1
 40
1
 10
343.226430
 20
254.687919
 30
0.0
 10
344.077177
 20
254.687919
 30
0.0
 10
344.750685
 20
254.439777
 30
0.0
 10
345.246954
 20
253.943494
 30
0.0
  0
SPLINE
  5
192
100
AcDbEntity
  8
Ebene_1
 62
3
100
AcDbSpline
 70
8
 71
3
 72
8
 73
4
 74
0
 40
0
 40
0
 40
0
 40
0
 40
1
 40
1
 40
1
 40
1
 10
345.246954
 20
253.943494
 30
0.0
 10
345.601432
 20
253.518108
 30
0.0
 10
345.707776
 20
252.986376
 30
0.0
 10
345.565984
 20
252.348297
 30
0.0
  0
LWPOLYLINE
  5
193
100
AcDbEntity
  8
Ebene_1
 62
3
100
AcDbPolyline
 90
3
 70
0
 10
335.357024
 20
250.540407
 30
0.0
 10
333.549187
 20
245.648467
 30
0.0
 10
333.761874
 20
245.648467
 30
0.0
  0
SPLINE
  5
194
100
AcDbEntity
  8
Ebene_1
 62
3
100
AcDbSpline
 70
8
 71
3
 72
8
 73
4
 74
0
 40
0
 40
0
 40
0
 40
0
 40
1
 40
1
 40
1
 40
1
 10
344.715238
 20
250.859445
 30
0.0
 10
344.077178
 20
250.292264
 30
0.0
 10
343.332774
 20
250.115020
 30
0.0
 10
342.482027
 20
250.327713
 30
0.0
  0
LWPOLYLINE
  5
195
100
AcDbEntity
  8
Ebene_1
 62
3
100
AcDbPolyline
 90
2
 70
0
 10
345.565984
 20
252.348297
 30
0.0
 10
344.715238
 20
250.859445
 30
0.0
  0
SPLINE
  5
196
100
AcDbEntity
  8
Ebene_1
 62
3
100
AcDbSpline
 70
8
 71
3
 72
8
 73
4
 74
0
 40
0
 40
0
 40
0
 40
0
 40
1
 40
1
 40
1
 40
1
 10
343.226430
 20
253.624454
 30
0.0
 10
342.375684
 20
253.553556
 30
0.0
 10
341.454042
 20
253.057273
 30
0.0
 10
340.461503
 20
252.135604
 30
0.0
  0
LWPOLYLINE
  5
197
100
AcDbEntity
  8
Ebene_1
 62
3
100
AcDbPolyline
 90
6
 70
0
 10
342.482027
 20
250.327713
 30
0.0
 10
342.588371
 20
251.391179
 30
0.0
 10
344.077177
 20
251.603872
 30
0.0
 10
344.608894
 20
252.454644
 30
0.0
 10
344.396207
 20
253.305416
 30
0.0
 10
343.226430
 20
253.624454
 30
0.0
  0
SPLINE
  5
198
100
AcDbEntity
  8
Ebene_1
 62
3
100
AcDbSpline
 70
8
 71
3
 72
8
 73
4
 74
0
 40
0
 40
0
 40
0
 40
0
 40
1
 40
1
 40
1
 40
1
 10
334.506277
 20
244.797696
 30
0.0
 10
334.577173
 20
243.379742
 30
0.0
 10
333.336500
 20
240.721080
 30
0.0
 10
330.784260
 20
236.821709
 30
0.0
  0
SPLINE
  5
199
100
AcDbEntity
  8
Ebene_1
 62
3
100
AcDbSpline
 70
8
 71
3
 72
8
 73
4
 74
0
 40
0
 40
0
 40
0
 40
0
 40
1
 40
1
 40
1
 40
1
 10
330.784260
 20
236.821709
 30
0.0
 10
328.302915
 20
232.993235
 30
0.0
 10
326.034258
 20
230.263675
 30
0.0
 10
323.978287
 20
228.633029
 30
0.0
  0
SPLINE
  5
19a
100
AcDbEntity
  8
Ebene_1
 62
3
100
AcDbSpline
 70
8
 71
3
 72
8
 73
4
 74
0
 40
0
 40
0
 40
0
 40
0
 40
1
 40
1
 40
1
 40
1
 10
323.978287
 20
228.633029
 30
0.0
 10
327.664855
 20
237.566134
 30
0.0
 10
330.500677
 20
242.989805
 30
0.0
 10
332.485753
 20
244.904042
 30
0.0
  0
LWPOLYLINE
  5
19b
100
AcDbEntity
  8
Ebene_1
 62
3
100
AcDbPolyline
 90
3
 70
0
 10
340.461503
 20
252.135604
 30
0.0
 10
336.845830
 20
248.094436
 30
0.0
 10
334.506277
 20
244.797696
 30
0.0
  0
SPLINE
  5
19c
100
AcDbEntity
  8
Ebene_1
 62
3
100
AcDbSpline
 70
8
 71
3
 72
8
 73
4
 74
0
 40
0
 40
0
 40
0
 40
0
 40
1
 40
1
 40
1
 40
1
 10
334.399934
 20
250.753098
 30
0.0
 10
335.179785
 20
254.014391
 30
0.0
 10
335.321576
 20
256.105873
 30
0.0
 10
334.825308
 20
257.027543
 30
0.0
  0
LWPOLYLINE
  5
19d
100
AcDbEntity
  8
Ebene_1
 62
3
100
AcDbPolyline
 90
3
 70
0
 10
332.485753
 20
244.904042
 30
0.0
 10
332.166724
 20
245.010389
 30
0.0
 10
334.399934
 20
250.753098
 30
0.0
  0
SPLINE
  5
19e
100
AcDbEntity
  8
Ebene_1
 62
3
100
AcDbSpline
 70
8
 71
3
 72
8
 73
4
 74
0
 40
0
 40
0
 40
0
 40
0
 40
1
 40
1
 40
1
 40
1
 10
332.698440
 20
256.708503
 30
0.0
 10
332.627545
 20
256.283117
 30
0.0
 10
332.733888
 20
255.893180
 30
0.0
 10
333.017471
 20
255.538691
 30
0.0
  0
LWPOLYLINE
  5
19f
100
AcDbEntity
  8
Ebene_1
 62
3
100
AcDbPolyline
 90
4
 70
0
 10
334.825308
 20
257.027543
 30
0.0
 10
334.506277
 20
257.452928
 30
0.0
 10
333.123814
 20
257.665621
 30
0.0
 10
332.698440
 20
256.708503
 30
0.0
  0
SPLINE
  5
1a0
100
AcDbEntity
  8
Ebene_1
 62
3
100
AcDbSpline
 70
8
 71
3
 72
8
 73
4
 74
0
 40
0
 40
0
 40
0
 40
0
 40
1
 40
1
 40
1
 40
1
 10
332.166724
 20
254.900613
 30
0.0
 10
331.670455
 20
255.396896
 30
0.0
 10
331.493215
 20
256.034975
 30
0.0
 10
331.635007
 20
256.814850
 30
0.0
  0
SPLINE
  5
1a1
100
AcDbEntity
  8
Ebene_1
 62
3
100
AcDbSpline
 70
8
 71
3
 72
8
 73
4
 74
0
 40
0
 40
0
 40
0
 40
0
 40
1
 40
1
 40
1
 40
1
 10
331.635007
 20
256.814850
 30
0.0
 10
331.705902
 20
257.523826
 30
0.0
 10
331.989485
 20
258.055559
 30
0.0
 10
332.485753
 20
258.410047
 30
0.0
  0
LWPOLYLINE
  5
1a2
100
AcDbEntity
  8
Ebene_1
 62
3
100
AcDbPolyline
 90
4
 70
0
 10
333.017471
 20
255.538691
 30
0.0
 10
333.230156
 20
255.325998
 30
0.0
 10
332.485753
 20
254.687919
 30
0.0
 10
332.166724
 20
254.900613
 30
0.0
  0
LWPOLYLINE
  5
1a3
100
AcDbEntity
  8
Ebene_1
 62
3
100
AcDbPolyline
 90
2
 70
0
 10
332.485753
 20
258.410047
 30
0.0
 10
333.868217
 20
258.941778
 30
0.0
  0
LWPOLYLINE
  5
1a4
100
AcDbEntity
  8
Ebene_1
 62
3
100
AcDbPolyline
 90
2
 70
0
 10
332.913096
 20
258.574414
 30
0.0
 10
332.090096
 20
258.019277
 30
0.0
  0
LWPOLYLINE
  5
1a5
100
AcDbEntity
  8
Ebene_1
 62
3
100
AcDbPolyline
 90
2
 70
0
 10
331.688979
 20
257.103991
 30
0.0
 10
334.314015
 20
258.874653
 30
0.0
  0
LWPOLYLINE
  5
1a6
100
AcDbEntity
  8
Ebene_1
 62
3
100
AcDbPolyline
 90
2
 70
0
 10
334.850821
 20
258.592023
 30
0.0
 10
333.411741
 20
257.621324
 30
0.0
  0
LWPOLYLINE
  5
1a7
100
AcDbEntity
  8
Ebene_1
 62
3
100
AcDbPolyline
 90
2
 70
0
 10
331.600397
 20
256.399519
 30
0.0
 10
332.972429
 20
257.324994
 30
0.0
  0
LWPOLYLINE
  5
1a8
100
AcDbEntity
  8
Ebene_1
 62
3
100
AcDbPolyline
 90
2
 70
0
 10
335.246833
 20
258.214424
 30
0.0
 10
334.190033
 20
257.501583
 30
0.0
  0
LWPOLYLINE
  5
1a9
100
AcDbEntity
  8
Ebene_1
 62
3
100
AcDbPolyline
 90
2
 70
0
 10
331.655699
 20
255.792102
 30
0.0
 10
332.684231
 20
256.485876
 30
0.0
  0
LWPOLYLINE
  5
1aa
100
AcDbEntity
  8
Ebene_1
 62
3
100
AcDbPolyline
 90
2
 70
0
 10
335.524144
 20
257.756758
 30
0.0
 10
334.696899
 20
257.198758
 30
0.0
  0
LWPOLYLINE
  5
1ab
100
AcDbEntity
  8
Ebene_1
 62
3
100
AcDbPolyline
 90
2
 70
0
 10
331.863586
 20
255.287607
 30
0.0
 10
332.796292
 20
255.916744
 30
0.0
  0
LWPOLYLINE
  5
1ac
100
AcDbEntity
  8
Ebene_1
 62
3
100
AcDbPolyline
 90
2
 70
0
 10
335.764758
 20
257.274339
 30
0.0
 10
334.944776
 20
256.721238
 30
0.0
  0
LWPOLYLINE
  5
1ad
100
AcDbEntity
  8
Ebene_1
 62
3
100
AcDbPolyline
 90
2
 70
0
 10
332.206427
 20
254.874143
 30
0.0
 10
333.087624
 20
255.468536
 30
0.0
  0
LWPOLYLINE
  5
1ae
100
AcDbEntity
  8
Ebene_1
 62
3
100
AcDbPolyline
 90
2
 70
0
 10
335.949860
 20
256.754474
 30
0.0
 10
335.069604
 20
256.160718
 30
0.0
  0
LWPOLYLINE
  5
1af
100
AcDbEntity
  8
Ebene_1
 62
3
100
AcDbPolyline
 90
2
 70
0
 10
335.111645
 20
255.544354
 30
0.0
 10
336.072278
 20
256.192330
 30
0.0
  0
LWPOLYLINE
  5
1b0
100
AcDbEntity
  8
Ebene_1
 62
3
100
AcDbPolyline
 90
2
 70
0
 10
336.140407
 20
255.593563
 30
0.0
 10
335.095016
 20
254.888417
 30
0.0
  0
LWPOLYLINE
  5
1b1
100
AcDbEntity
  8
Ebene_1
 62
3
100
AcDbPolyline
 90
2
 70
0
 10
335.018408
 20
254.192023
 30
0.0
 10
336.152955
 20
254.957307
 30
0.0
  0
LWPOLYLINE
  5
1b2
100
AcDbEntity
  8
Ebene_1
 62
3
100
AcDbPolyline
 90
2
 70
0
 10
336.110748
 20
254.284117
 30
0.0
 10
334.929327
 20
253.487215
 30
0.0
  0
LWPOLYLINE
  5
1b3
100
AcDbEntity
  8
Ebene_1
 62
3
100
AcDbPolyline
 90
2
 70
0
 10
334.821282
 20
252.769615
 30
0.0
 10
336.032187
 20
253.586405
 30
0.0
  0
LWPOLYLINE
  5
1b4
100
AcDbEntity
  8
Ebene_1
 62
3
100
AcDbPolyline
 90
2
 70
0
 10
335.921565
 20
252.867067
 30
0.0
 10
334.664467
 20
252.019118
 30
0.0
  0
LWPOLYLINE
  5
1b5
100
AcDbEntity
  8
Ebene_1
 62
3
100
AcDbPolyline
 90
2
 70
0
 10
334.507651
 20
251.268621
 30
0.0
 10
335.759980
 20
252.113353
 30
0.0
  0
LWPOLYLINE
  5
1b6
100
AcDbEntity
  8
Ebene_1
 62
3
100
AcDbPolyline
 90
2
 70
0
 10
335.571687
 20
251.341623
 30
0.0
 10
334.293524
 20
250.479465
 30
0.0
  0
LWPOLYLINE
  5
1b7
100
AcDbEntity
  8
Ebene_1
 62
3
100
AcDbPolyline
 90
2
 70
0
 10
333.953657
 20
249.605494
 30
0.0
 10
335.360849
 20
250.554687
 30
0.0
  0
LWPOLYLINE
  5
1b8
100
AcDbEntity
  8
Ebene_1
 62
3
100
AcDbPolyline
 90
2
 70
0
 10
341.888603
 20
254.313122
 30
0.0
 10
339.602220
 20
252.770892
 30
0.0
  0
LWPOLYLINE
  5
1b9
100
AcDbEntity
  8
Ebene_1
 62
3
100
AcDbPolyline
 90
2
 70
0
 10
333.613789
 20
248.731524
 30
0.0
 10
335.045410
 20
249.697194
 30
0.0
  0
LWPOLYLINE
  5
1ba
100
AcDbEntity
  8
Ebene_1
 62
3
100
AcDbPolyline
 90
2
 70
0
 10
343.382282
 20
254.675930
 30
0.0
 10
337.738046
 20
250.868733
 30
0.0
  0
LWPOLYLINE
  5
1bb
100
AcDbEntity
  8
Ebene_1
 62
3
100
AcDbPolyline
 90
2
 70
0
 10
333.273921
 20
247.857553
 30
0.0
 10
334.728038
 20
248.838397
 30
0.0
  0
LWPOLYLINE
  5
1bc
100
AcDbEntity
  8
Ebene_1
 62
3
100
AcDbPolyline
 90
2
 70
0
 10
344.160383
 20
254.556062
 30
0.0
 10
342.585266
 20
253.493600
 30
0.0
  0
LWPOLYLINE
  5
1bd
100
AcDbEntity
  8
Ebene_1
 62
3
100
AcDbPolyline
 90
2
 70
0
 10
336.439903
 20
249.348378
 30
0.0
 10
340.293294
 20
251.947600
 30
0.0
  0
LWPOLYLINE
  5
1be
100
AcDbEntity
  8
Ebene_1
 62
3
100
AcDbPolyline
 90
2
 70
0
 10
334.410667
 20
247.979600
 30
0.0
 10
332.934055
 20
246.983583
 30
0.0
  0
LWPOLYLINE
  5
1bf
100
AcDbEntity
  8
Ebene_1
 62
3
100
AcDbPolyline
 90
2
 70
0
 10
343.588622
 20
253.525671
 30
0.0
 10
344.754490
 20
254.312083
 30
0.0
  0
LWPOLYLINE
  5
1c0
100
AcDbEntity
  8
Ebene_1
 62
3
100
AcDbPolyline
 90
2
 70
0
 10
338.838443
 20
250.321541
 30
0.0
 10
335.393718
 20
247.997976
 30
0.0
  0
LWPOLYLINE
  5
1c1
100
AcDbEntity
  8
Ebene_1
 62
3
100
AcDbPolyline
 90
2
 70
0
 10
332.594187
 20
246.109612
 30
0.0
 10
334.093295
 20
247.120803
 30
0.0
  0
LWPOLYLINE
  5
1c2
100
AcDbEntity
  8
Ebene_1
 62
3
100
AcDbPolyline
 90
2
 70
0
 10
345.209027
 20
253.973960
 30
0.0
 10
344.269236
 20
253.340045
 30
0.0
  0
LWPOLYLINE
  5
1c3
100
AcDbEntity
  8
Ebene_1
 62
3
100
AcDbPolyline
 90
2
 70
0
 10
334.537459
 20
246.775683
 30
0.0
 10
337.383590
 20
248.695480
 30
0.0
  0
LWPOLYLINE
  5
1c4
100
AcDbEntity
  8
Ebene_1
 62
3
100
AcDbPolyline
 90
2
 70
0
 10
333.775923
 20
246.262006
 30
0.0
 10
332.254320
 20
245.235641
 30
0.0
  0
LWPOLYLINE
  5
1c5
100
AcDbEntity
  8
Ebene_1
 62
3
100
AcDbPolyline
 90
2
 70
0
 10
344.508397
 20
252.856645
 30
0.0
 10
345.493976
 20
253.521447
 30
0.0
  0
LWPOLYLINE
  5
1c6
100
AcDbEntity
  8
Ebene_1
 62
3
100
AcDbPolyline
 90
2
 70
0
 10
336.292592
 20
247.314850
 30
0.0
 10
332.137227
 20
244.511938
 30
0.0
  0
LWPOLYLINE
  5
1c7
100
AcDbEntity
  8
Ebene_1
 62
3
100
AcDbPolyline
 90
2
 70
0
 10
344.419886
 20
252.152222
 30
0.0
 10
345.613845
 20
252.957581
 30
0.0
  0
LWPOLYLINE
  5
1c8
100
AcDbEntity
  8
Ebene_1
 62
3
100
AcDbPolyline
 90
2
 70
0
 10
343.480594
 20
251.518642
 30
0.0
 10
342.537505
 20
250.882502
 30
0.0
  0
LWPOLYLINE
  5
1c9
100
AcDbEntity
  8
Ebene_1
 62
3
100
AcDbPolyline
 90
2
 70
0
 10
331.085045
 20
243.157491
 30
0.0
 10
335.414949
 20
246.078135
 30
0.0
  0
LWPOLYLINE
  5
1ca
100
AcDbEntity
  8
Ebene_1
 62
3
100
AcDbPolyline
 90
2
 70
0
 10
345.503021
 20
252.238107
 30
0.0
 10
342.638419
 20
250.305851
 30
0.0
  0
LWPOLYLINE
  5
1cb
100
AcDbEntity
  8
Ebene_1
 62
3
100
AcDbPolyline
 90
2
 70
0
 10
330.352245
 20
242.018475
 30
0.0
 10
334.537306
 20
244.841419
 30
0.0
  0
LWPOLYLINE
  5
1cc
100
AcDbEntity
  8
Ebene_1
 62
3
100
AcDbPolyline
 90
2
 70
0
 10
344.903572
 20
251.189042
 30
0.0
 10
343.570708
 20
250.289987
 30
0.0
  0
LWPOLYLINE
  5
1cd
100
AcDbEntity
  8
Ebene_1
 62
3
100
AcDbPolyline
 90
2
 70
0
 10
329.715158
 20
240.944022
 30
0.0
 10
334.456757
 20
244.142365
 30
0.0
  0
LWPOLYLINE
  5
1ce
100
AcDbEntity
  8
Ebene_1
 62
3
100
AcDbPolyline
 90
2
 70
0
 10
334.268926
 20
243.370948
 30
0.0
 10
329.155420
 20
239.921742
 30
0.0
  0
LWPOLYLINE
  5
1cf
100
AcDbEntity
  8
Ebene_1
 62
3
100
AcDbPolyline
 90
2
 70
0
 10
328.630278
 20
238.922799
 30
0.0
 10
333.964759
 20
242.521059
 30
0.0
  0
LWPOLYLINE
  5
1d0
100
AcDbEntity
  8
Ebene_1
 62
3
100
AcDbPolyline
 90
2
 70
0
 10
333.560898
 20
241.603924
 30
0.0
 10
328.141113
 20
237.948123
 30
0.0
  0
LWPOLYLINE
  5
1d1
100
AcDbEntity
  8
Ebene_1
 62
3
100
AcDbPolyline
 90
2
 70
0
 10
327.663240
 20
236.981064
 30
0.0
 10
333.070960
 20
240.628725
 30
0.0
  0
LWPOLYLINE
  5
1d2
100
AcDbEntity
  8
Ebene_1
 62
3
100
AcDbPolyline
 90
2
 70
0
 10
332.499700
 20
239.598674
 30
0.0
 10
327.222186
 20
236.038840
 30
0.0
  0
LWPOLYLINE
  5
1d3
100
AcDbEntity
  8
Ebene_1
 62
3
100
AcDbPolyline
 90
2
 70
0
 10
326.781132
 20
235.096615
 30
0.0
 10
331.822666
 20
238.497275
 30
0.0
  0
LWPOLYLINE
  5
1d4
100
AcDbEntity
  8
Ebene_1
 62
3
100
AcDbPolyline
 90
2
 70
0
 10
331.136111
 20
237.389452
 30
0.0
 10
326.359355
 20
234.167395
 30
0.0
  0
LWPOLYLINE
  5
1d5
100
AcDbEntity
  8
Ebene_1
 62
3
100
AcDbPolyline
 90
2
 70
0
 10
325.953201
 20
233.248713
 30
0.0
 10
330.385905
 20
236.238696
 30
0.0
  0
LWPOLYLINE
  5
1d6
100
AcDbEntity
  8
Ebene_1
 62
3
100
AcDbPolyline
 90
2
 70
0
 10
329.568788
 20
235.042807
 30
0.0
 10
325.547047
 20
232.330029
 30
0.0
  0
LWPOLYLINE
  5
1d7
100
AcDbEntity
  8
Ebene_1
 62
3
100
AcDbPolyline
 90
2
 70
0
 10
325.152626
 20
231.419261
 30
0.0
 10
328.711571
 20
233.819870
 30
0.0
  0
LWPOLYLINE
  5
1d8
100
AcDbEntity
  8
Ebene_1
 62
3
100
AcDbPolyline
 90
2
 70
0
 10
327.686554
 20
232.483746
 30
0.0
 10
324.772947
 20
230.518435
 30
0.0
  0
LWPOLYLINE
  5
1d9
100
AcDbEntity
  8
Ebene_1
 62
3
100
AcDbPolyline
 90
2
 70
0
 10
324.393268
 20
229.617610
 30
0.0
 10
326.437602
 20
230.996572
 30
0.0
  0
SPLINE
  5
1da
100
AcDbEntity
  8
Ebene_1
 62
3
100
AcDbSpline
 70
8
 71
3
 72
8
 73
4
 74
0
 40
0
 40
0
 40
0
 40
0
 40
1
 40
1
 40
1
 40
1
 10
291.968942
 20
219.274537
 30
0.0
 10
291.685359
 20
220.905183
 30
0.0
 10
291.685359
 20
222.039546
 30
0.0
 10
291.968942
 20
222.677625
 30
0.0
  0
LWPOLYLINE
  5
1db
100
AcDbEntity
  8
Ebene_1
 62
3
100
AcDbPolyline
 90
2
 70
0
 10
324.321942
 20
228.924779
 30
0.0
 10
324.013589
 20
228.716786
 30
0.0
  0
SPLINE
  5
1dc
100
AcDbEntity
  8
Ebene_1
 62
3
100
AcDbSpline
 70
8
 71
3
 72
8
 73
4
 74
0
 40
0
 40
0
 40
0
 40
0
 40
1
 40
1
 40
1
 40
1
 10
295.797303
 20
222.571278
 30
0.0
 10
296.080884
 20
221.720507
 30
0.0
 10
295.939093
 20
221.011530
 30
0.0
 10
295.371929
 20
220.444349
 30
0.0
  0
LWPOLYLINE
  5
1dd
100
AcDbEntity
  8
Ebene_1
 62
3
100
AcDbPolyline
 90
4
 70
0
 10
291.968942
 20
222.677625
 30
0.0
 10
293.457748
 20
224.166477
 30
0.0
 10
294.840213
 20
223.953783
 30
0.0
 10
295.797303
 20
222.571278
 30
0.0
  0
SPLINE
  5
1de
100
AcDbEntity
  8
Ebene_1
 62
3
100
AcDbSpline
 70
8
 71
3
 72
8
 73
4
 74
0
 40
0
 40
0
 40
0
 40
0
 40
1
 40
1
 40
1
 40
1
 10
294.627526
 20
220.976081
 30
0.0
 10
294.911107
 20
221.330570
 30
0.0
 10
294.982003
 20
221.791405
 30
0.0
 10
294.840213
 20
222.358586
 30
0.0
  0
SPLINE
  5
1df
100
AcDbEntity
  8
Ebene_1
 62
3
100
AcDbSpline
 70
8
 71
3
 72
8
 73
4
 74
0
 40
0
 40
0
 40
0
 40
0
 40
1
 40
1
 40
1
 40
1
 10
294.840213
 20
222.358586
 30
0.0
 10
294.627526
 20
223.067563
 30
0.0
 10
294.237600
 20
223.386602
 30
0.0
 10
293.670435
 20
223.315705
 30
0.0
  0
LWPOLYLINE
  5
1e0
100
AcDbEntity
  8
Ebene_1
 62
3
100
AcDbPolyline
 90
2
 70
0
 10
295.371929
 20
220.444349
 30
0.0
 10
294.627526
 20
220.976081
 30
0.0
  0
SPLINE
  5
1e1
100
AcDbEntity
  8
Ebene_1
 62
3
100
AcDbSpline
 70
8
 71
3
 72
8
 73
4
 74
0
 40
0
 40
0
 40
0
 40
0
 40
1
 40
1
 40
1
 40
1
 10
292.926032
 20
219.487231
 30
0.0
 10
293.634988
 20
217.005812
 30
0.0
 10
294.982003
 20
214.311701
 30
0.0
 10
296.967078
 20
211.404897
 30
0.0
  0
LWPOLYLINE
  5
1e2
100
AcDbEntity
  8
Ebene_1
 62
3
100
AcDbPolyline
 90
3
 70
0
 10
293.670435
 20
223.315705
 30
0.0
 10
292.819689
 20
222.358586
 30
0.0
 10
292.926032
 20
219.487231
 30
0.0
  0
SPLINE
  5
1e3
100
AcDbEntity
  8
Ebene_1
 62
3
100
AcDbSpline
 70
8
 71
3
 72
8
 73
4
 74
0
 40
0
 40
0
 40
0
 40
0
 40
1
 40
1
 40
1
 40
1
 10
296.860735
 20
211.404897
 30
0.0
 10
298.065959
 20
210.908614
 30
0.0
 10
299.838349
 20
208.781684
 30
0.0
 10
302.177903
 20
205.024108
 30
0.0
  0
SPLINE
  5
1e4
100
AcDbEntity
  8
Ebene_1
 62
3
100
AcDbSpline
 70
8
 71
3
 72
8
 73
4
 74
0
 40
0
 40
0
 40
0
 40
0
 40
1
 40
1
 40
1
 40
1
 10
302.177903
 20
205.024108
 30
0.0
 10
304.375665
 20
201.337429
 30
0.0
 10
305.829024
 20
198.288830
 30
0.0
 10
306.537980
 20
195.878309
 30
0.0
  0
SPLINE
  5
1e5
100
AcDbEntity
  8
Ebene_1
 62
3
100
AcDbSpline
 70
8
 71
3
 72
8
 73
4
 74
0
 40
0
 40
0
 40
0
 40
0
 40
1
 40
1
 40
1
 40
1
 10
306.537980
 20
195.878309
 30
0.0
 10
300.440961
 20
202.400894
 30
0.0
 10
296.931631
 20
207.009242
 30
0.0
 10
296.009988
 20
209.703354
 30
0.0
  0
LWPOLYLINE
  5
1e6
100
AcDbEntity
  8
Ebene_1
 62
3
100
AcDbPolyline
 90
2
 70
0
 10
296.967078
 20
211.404897
 30
0.0
 10
296.860735
 20
211.404897
 30
0.0
  0
SPLINE
  5
1e7
100
AcDbEntity
  8
Ebene_1
 62
3
100
AcDbSpline
 70
8
 71
3
 72
8
 73
4
 74
0
 40
0
 40
0
 40
0
 40
0
 40
1
 40
1
 40
1
 40
1
 10
291.649912
 20
213.638173
 30
0.0
 10
289.310358
 20
215.765103
 30
0.0
 10
287.573417
 20
216.722222
 30
0.0
 10
286.439088
 20
216.509528
 30
0.0
  0
LWPOLYLINE
  5
1e8
100
AcDbEntity
  8
Ebene_1
 62
3
100
AcDbPolyline
 90
3
 70
0
 10
296.009988
 20
209.703354
 30
0.0
 10
295.797303
 20
209.490660
 30
0.0
 10
291.649912
 20
213.638173
 30
0.0
  0
SPLINE
  5
1e9
100
AcDbEntity
  8
Ebene_1
 62
3
100
AcDbSpline
 70
8
 71
3
 72
8
 73
4
 74
0
 40
0
 40
0
 40
0
 40
0
 40
1
 40
1
 40
1
 40
1
 10
286.120058
 20
216.403182
 30
0.0
 10
285.481998
 20
216.332284
 30
0.0
 10
285.233863
 20
215.977796
 30
0.0
 10
285.375655
 20
215.339717
 30
0.0
  0
LWPOLYLINE
  5
1ea
100
AcDbEntity
  8
Ebene_1
 62
3
100
AcDbPolyline
 90
2
 70
0
 10
286.439088
 20
216.509528
 30
0.0
 10
286.120058
 20
216.403182
 30
0.0
  0
SPLINE
  5
1eb
100
AcDbEntity
  8
Ebene_1
 62
3
100
AcDbSpline
 70
8
 71
3
 72
8
 73
4
 74
0
 40
0
 40
0
 40
0
 40
0
 40
1
 40
1
 40
1
 40
1
 10
286.439088
 20
217.572994
 30
0.0
 10
287.786104
 20
217.643891
 30
0.0
 10
289.735732
 20
216.580426
 30
0.0
 10
292.287971
 20
214.382598
 30
0.0
  0
LWPOLYLINE
  5
1ec
100
AcDbEntity
  8
Ebene_1
 62
3
100
AcDbPolyline
 90
11
 70
0
 10
285.375655
 20
215.339717
 30
0.0
 10
285.907371
 20
214.595291
 30
0.0
 10
287.077148
 20
214.382598
 30
0.0
 10
287.289835
 20
214.488945
 30
0.0
 10
287.715208
 20
213.531826
 30
0.0
 10
287.396179
 20
213.531826
 30
0.0
 10
285.481998
 20
213.744520
 30
0.0
 10
284.312221
 20
215.127025
 30
0.0
 10
284.524908
 20
216.509528
 30
0.0
 10
285.801029
 20
217.466647
 30
0.0
 10
286.439088
 20
217.572994
 30
0.0
  0
SPLINE
  5
1ed
100
AcDbEntity
  8
Ebene_1
 62
3
100
AcDbSpline
 70
8
 71
3
 72
8
 73
4
 74
0
 40
0
 40
0
 40
0
 40
0
 40
1
 40
1
 40
1
 40
1
 10
295.903645
 20
211.085857
 30
0.0
 10
293.989465
 20
213.921764
 30
0.0
 10
292.677898
 20
216.651324
 30
0.0
 10
291.968942
 20
219.274537
 30
0.0
  0
LWPOLYLINE
  5
1ee
100
AcDbEntity
  8
Ebene_1
 62
3
100
AcDbPolyline
 90
3
 70
0
 10
292.287971
 20
214.382598
 30
0.0
 10
295.903645
 20
210.979511
 30
0.0
 10
295.903645
 20
211.085857
 30
0.0
  0
LWPOLYLINE
  5
1ef
100
AcDbEntity
  8
Ebene_1
 62
3
100
AcDbPolyline
 90
2
 70
0
 10
294.166585
 20
224.057421
 30
0.0
 10
291.933679
 20
222.551262
 30
0.0
  0
LWPOLYLINE
  5
1f0
100
AcDbEntity
  8
Ebene_1
 62
3
100
AcDbPolyline
 90
2
 70
0
 10
293.998088
 20
223.299044
 30
0.0
 10
294.881129
 20
223.894680
 30
0.0
  0
LWPOLYLINE
  5
1f1
100
AcDbEntity
  8
Ebene_1
 62
3
100
AcDbPolyline
 90
2
 70
0
 10
293.142868
 20
222.722174
 30
0.0
 10
291.788561
 20
221.808655
 30
0.0
  0
LWPOLYLINE
  5
1f2
100
AcDbEntity
  8
Ebene_1
 62
3
100
AcDbPolyline
 90
2
 70
0
 10
294.501089
 20
222.993612
 30
0.0
 10
295.185384
 20
223.455189
 30
0.0
  0
LWPOLYLINE
  5
1f3
100
AcDbEntity
  8
Ebene_1
 62
3
100
AcDbPolyline
 90
2
 70
0
 10
292.837724
 20
221.871625
 30
0.0
 10
291.767444
 20
221.149690
 30
0.0
  0
LWPOLYLINE
  5
1f4
100
AcDbEntity
  8
Ebene_1
 62
3
100
AcDbPolyline
 90
2
 70
0
 10
284.482829
 20
216.236011
 30
0.0
 10
286.463151
 20
217.571795
 30
0.0
  0
LWPOLYLINE
  5
1f5
100
AcDbEntity
  8
Ebene_1
 62
3
100
AcDbPolyline
 90
2
 70
0
 10
295.489638
 20
223.015696
 30
0.0
 10
294.768484
 20
222.529257
 30
0.0
  0
LWPOLYLINE
  5
1f6
100
AcDbEntity
  8
Ebene_1
 62
3
100
AcDbPolyline
 90
2
 70
0
 10
291.802436
 20
220.528574
 30
0.0
 10
292.861019
 20
221.242618
 30
0.0
  0
LWPOLYLINE
  5
1f7
100
AcDbEntity
  8
Ebene_1
 62
3
100
AcDbPolyline
 90
2
 70
0
 10
287.278933
 20
217.477341
 30
0.0
 10
284.372161
 20
215.516641
 30
0.0
  0
LWPOLYLINE
  5
1f8
100
AcDbEntity
  8
Ebene_1
 62
3
100
AcDbPolyline
 90
2
 70
0
 10
294.903043
 20
221.975301
 30
0.0
 10
295.793893
 20
222.576205
 30
0.0
  0
LWPOLYLINE
  5
1f9
100
AcDbEntity
  8
Ebene_1
 62
3
100
AcDbPolyline
 90
2
 70
0
 10
292.884315
 20
220.613612
 30
0.0
 10
291.875926
 20
219.933425
 30
0.0
  0
LWPOLYLINE
  5
1fa
100
AcDbEntity
  8
Ebene_1
 62
3
100
AcDbPolyline
 90
2
 70
0
 10
286.831945
 20
216.531115
 30
0.0
 10
287.935345
 20
217.275390
 30
0.0
  0
LWPOLYLINE
  5
1fb
100
AcDbEntity
  8
Ebene_1
 62
3
100
AcDbPolyline
 90
2
 70
0
 10
285.360138
 20
215.538339
 30
0.0
 10
284.471420
 20
214.938874
 30
0.0
  0
LWPOLYLINE
  5
1fc
100
AcDbEntity
  8
Ebene_1
 62
3
100
AcDbPolyline
 90
2
 70
0
 10
294.799734
 20
221.260895
 30
0.0
 10
295.918163
 20
222.015307
 30
0.0
  0
LWPOLYLINE
  5
1fd
100
AcDbEntity
  8
Ebene_1
 62
3
100
AcDbPolyline
 90
2
 70
0
 10
292.907611
 20
219.984605
 30
0.0
 10
291.959028
 20
219.344760
 30
0.0
  0
LWPOLYLINE
  5
1fe
100
AcDbEntity
  8
Ebene_1
 62
3
100
AcDbPolyline
 90
2
 70
0
 10
287.577973
 20
216.389612
 30
0.0
 10
288.516641
 20
217.022771
 30
0.0
  0
LWPOLYLINE
  5
1ff
100
AcDbEntity
  8
Ebene_1
 62
3
100
AcDbPolyline
 90
2
 70
0
 10
285.585640
 20
215.045728
 30
0.0
 10
284.818720
 20
214.528417
 30
0.0
  0
LWPOLYLINE
  5
200
100
AcDbEntity
  8
Ebene_1
 62
3
100
AcDbPolyline
 90
2
 70
0
 10
294.970305
 20
220.731231
 30
0.0
 10
295.883707
 20
221.347346
 30
0.0
  0
LWPOLYLINE
  5
201
100
AcDbEntity
  8
Ebene_1
 62
3
100
AcDbPolyline
 90
2
 70
0
 10
292.961036
 20
219.375921
 30
0.0
 10
292.109621
 20
218.801619
 30
0.0
  0
LWPOLYLINE
  5
202
100
AcDbEntity
  8
Ebene_1
 62
3
100
AcDbPolyline
 90
2
 70
0
 10
288.181341
 20
216.151881
 30
0.0
 10
289.056582
 20
216.742256
 30
0.0
  0
LWPOLYLINE
  5
203
100
AcDbEntity
  8
Ebene_1
 62
3
100
AcDbPolyline
 90
2
 70
0
 10
285.896414
 20
214.610632
 30
0.0
 10
285.166019
 20
214.117961
 30
0.0
  0
LWPOLYLINE
  5
204
100
AcDbEntity
  8
Ebene_1
 62
3
100
AcDbPolyline
 90
2
 70
0
 10
292.270275
 20
218.265263
 30
0.0
 10
293.128305
 20
218.844029
 30
0.0
  0
LWPOLYLINE
  5
205
100
AcDbEntity
  8
Ebene_1
 62
3
100
AcDbPolyline
 90
2
 70
0
 10
289.564344
 20
216.440035
 30
0.0
 10
288.722423
 20
215.872136
 30
0.0
  0
LWPOLYLINE
  5
206
100
AcDbEntity
  8
Ebene_1
 62
3
100
AcDbPolyline
 90
2
 70
0
 10
285.556006
 20
213.736296
 30
0.0
 10
286.633695
 20
214.463228
 30
0.0
  0
LWPOLYLINE
  5
207
100
AcDbEntity
  8
Ebene_1
 62
3
100
AcDbPolyline
 90
2
 70
0
 10
293.306040
 20
218.319195
 30
0.0
 10
292.453280
 20
217.743984
 30
0.0
  0
LWPOLYLINE
  5
208
100
AcDbEntity
  8
Ebene_1
 62
3
100
AcDbPolyline
 90
2
 70
0
 10
289.224796
 20
215.566279
 30
0.0
 10
290.045790
 20
216.120063
 30
0.0
  0
LWPOLYLINE
  5
209
100
AcDbEntity
  8
Ebene_1
 62
3
100
AcDbPolyline
 90
2
 70
0
 10
287.367744
 20
214.313645
 30
0.0
 10
286.376634
 20
213.645112
 30
0.0
  0
LWPOLYLINE
  5
20a
100
AcDbEntity
  8
Ebene_1
 62
3
100
AcDbPolyline
 90
2
 70
0
 10
292.638948
 20
217.224503
 30
0.0
 10
293.497037
 20
217.803309
 30
0.0
  0
LWPOLYLINE
  5
20b
100
AcDbEntity
  8
Ebene_1
 62
3
100
AcDbPolyline
 90
2
 70
0
 10
290.518437
 20
215.794157
 30
0.0
 10
289.693587
 20
215.237773
 30
0.0
  0
LWPOLYLINE
  5
20c
100
AcDbEntity
  8
Ebene_1
 62
3
100
AcDbPolyline
 90
2
 70
0
 10
287.197261
 20
213.553928
 30
0.0
 10
287.588190
 20
213.817622
 30
0.0
  0
LWPOLYLINE
  5
20d
100
AcDbEntity
  8
Ebene_1
 62
3
100
AcDbPolyline
 90
2
 70
0
 10
293.700467
 20
217.295806
 30
0.0
 10
292.843482
 20
216.717746
 30
0.0
  0
LWPOLYLINE
  5
20e
100
AcDbEntity
  8
Ebene_1
 62
3
100
AcDbPolyline
 90
2
 70
0
 10
290.149918
 20
214.900861
 30
0.0
 10
290.967264
 20
215.452183
 30
0.0
  0
LWPOLYLINE
  5
20f
100
AcDbEntity
  8
Ebene_1
 62
3
100
AcDbPolyline
 90
2
 70
0
 10
293.912924
 20
216.794394
 30
0.0
 10
293.050678
 20
216.212785
 30
0.0
  0
LWPOLYLINE
  5
210
100
AcDbEntity
  8
Ebene_1
 62
3
100
AcDbPolyline
 90
2
 70
0
 10
290.587523
 20
214.551316
 30
0.0
 10
291.413510
 20
215.108469
 30
0.0
  0
LWPOLYLINE
  5
211
100
AcDbEntity
  8
Ebene_1
 62
3
100
AcDbPolyline
 90
2
 70
0
 10
294.137549
 20
216.301191
 30
0.0
 10
293.275185
 20
215.719501
 30
0.0
  0
LWPOLYLINE
  5
212
100
AcDbEntity
  8
Ebene_1
 62
3
100
AcDbPolyline
 90
2
 70
0
 10
291.014123
 20
214.194350
 30
0.0
 10
291.842009
 20
214.752782
 30
0.0
  0
LWPOLYLINE
  5
213
100
AcDbEntity
  8
Ebene_1
 62
3
100
AcDbPolyline
 90
2
 70
0
 10
294.369507
 20
215.812932
 30
0.0
 10
293.501565
 20
215.227480
 30
0.0
  0
LWPOLYLINE
  5
214
100
AcDbEntity
  8
Ebene_1
 62
3
100
AcDbPolyline
 90
2
 70
0
 10
291.430256
 20
213.830323
 30
0.0
 10
292.270506
 20
214.397095
 30
0.0
  0
LWPOLYLINE
  5
215
100
AcDbEntity
  8
Ebene_1
 62
3
100
AcDbPolyline
 90
2
 70
0
 10
294.616494
 20
215.334811
 30
0.0
 10
293.753465
 20
214.752673
 30
0.0
  0
LWPOLYLINE
  5
216
100
AcDbEntity
  8
Ebene_1
 62
3
100
AcDbPolyline
 90
2
 70
0
 10
291.831695
 20
213.456384
 30
0.0
 10
292.670733
 20
214.022341
 30
0.0
  0
LWPOLYLINE
  5
217
100
AcDbEntity
  8
Ebene_1
 62
3
100
AcDbPolyline
 90
2
 70
0
 10
294.874577
 20
214.864176
 30
0.0
 10
294.005364
 20
214.277866
 30
0.0
  0
LWPOLYLINE
  5
218
100
AcDbEntity
  8
Ebene_1
 62
3
100
AcDbPolyline
 90
2
 70
0
 10
292.216703
 20
213.071364
 30
0.0
 10
293.069761
 20
213.646775
 30
0.0
  0
LWPOLYLINE
  5
219
100
AcDbEntity
  8
Ebene_1
 62
3
100
AcDbPolyline
 90
2
 70
0
 10
295.132659
 20
214.393538
 30
0.0
 10
294.257264
 20
213.803059
 30
0.0
  0
LWPOLYLINE
  5
21a
100
AcDbEntity
  8
Ebene_1
 62
3
100
AcDbPolyline
 90
2
 70
0
 10
292.601713
 20
212.686343
 30
0.0
 10
293.468788
 20
213.271210
 30
0.0
  0
LWPOLYLINE
  5
21b
100
AcDbEntity
  8
Ebene_1
 62
3
100
AcDbPolyline
 90
2
 70
0
 10
295.390744
 20
213.922903
 30
0.0
 10
294.509164
 20
213.328253
 30
0.0
  0
LWPOLYLINE
  5
21c
100
AcDbEntity
  8
Ebene_1
 62
3
100
AcDbPolyline
 90
2
 70
0
 10
292.986722
 20
212.301323
 30
0.0
 10
293.867813
 20
212.895643
 30
0.0
  0
LWPOLYLINE
  5
21d
100
AcDbEntity
  8
Ebene_1
 62
3
100
AcDbPolyline
 90
2
 70
0
 10
295.654752
 20
213.456264
 30
0.0
 10
294.784242
 20
212.869080
 30
0.0
  0
LWPOLYLINE
  5
21e
100
AcDbEntity
  8
Ebene_1
 62
3
100
AcDbPolyline
 90
2
 70
0
 10
293.371732
 20
211.916302
 30
0.0
 10
294.266841
 20
212.520078
 30
0.0
  0
LWPOLYLINE
  5
21f
100
AcDbEntity
  8
Ebene_1
 62
3
100
AcDbPolyline
 90
2
 70
0
 10
295.942873
 20
213.005888
 30
0.0
 10
295.068568
 20
212.416145
 30
0.0
  0
LWPOLYLINE
  5
220
100
AcDbEntity
  8
Ebene_1
 62
3
100
AcDbPolyline
 90
2
 70
0
 10
293.756742
 20
211.531282
 30
0.0
 10
294.665866
 20
212.144512
 30
0.0
  0
LWPOLYLINE
  5
221
100
AcDbEntity
  8
Ebene_1
 62
3
100
AcDbPolyline
 90
2
 70
0
 10
296.230992
 20
212.555513
 30
0.0
 10
295.352893
 20
211.963211
 30
0.0
  0
LWPOLYLINE
  5
222
100
AcDbEntity
  8
Ebene_1
 62
3
100
AcDbPolyline
 90
2
 70
0
 10
294.141750
 20
211.146260
 30
0.0
 10
295.064893
 20
211.768947
 30
0.0
  0
LWPOLYLINE
  5
223
100
AcDbEntity
  8
Ebene_1
 62
3
100
AcDbPolyline
 90
2
 70
0
 10
296.519112
 20
212.105138
 30
0.0
 10
295.637219
 20
211.510276
 30
0.0
  0
LWPOLYLINE
  5
224
100
AcDbEntity
  8
Ebene_1
 62
3
100
AcDbPolyline
 90
2
 70
0
 10
294.526760
 20
210.761240
 30
0.0
 10
295.463921
 20
211.393381
 30
0.0
  0
LWPOLYLINE
  5
225
100
AcDbEntity
  8
Ebene_1
 62
3
100
AcDbPolyline
 90
2
 70
0
 10
296.807232
 20
211.654763
 30
0.0
 10
295.903645
 20
211.045268
 30
0.0
  0
LWPOLYLINE
  5
226
100
AcDbEntity
  8
Ebene_1
 62
3
100
AcDbPolyline
 90
2
 70
0
 10
294.911769
 20
210.376219
 30
0.0
 10
295.862948
 20
211.017816
 30
0.0
  0
LWPOLYLINE
  5
227
100
AcDbEntity
  8
Ebene_1
 62
3
100
AcDbPolyline
 90
2
 70
0
 10
297.154046
 20
211.243979
 30
0.0
 10
295.296779
 20
209.991199
 30
0.0
  0
LWPOLYLINE
  5
228
100
AcDbEntity
  8
Ebene_1
 62
3
100
AcDbPolyline
 90
2
 70
0
 10
295.681787
 20
209.606178
 30
0.0
 10
297.626511
 20
210.917949
 30
0.0
  0
LWPOLYLINE
  5
229
100
AcDbEntity
  8
Ebene_1
 62
3
100
AcDbPolyline
 90
2
 70
0
 10
298.046435
 20
210.556479
 30
0.0
 10
296.181749
 20
209.298695
 30
0.0
  0
LWPOLYLINE
  5
22a
100
AcDbEntity
  8
Ebene_1
 62
3
100
AcDbPolyline
 90
2
 70
0
 10
296.394494
 20
208.797478
 30
0.0
 10
298.438089
 20
210.175941
 30
0.0
  0
LWPOLYLINE
  5
22b
100
AcDbEntity
  8
Ebene_1
 62
3
100
AcDbPolyline
 90
2
 70
0
 10
298.796884
 20
209.773239
 30
0.0
 10
296.636309
 20
208.315869
 30
0.0
  0
LWPOLYLINE
  5
22c
100
AcDbEntity
  8
Ebene_1
 62
3
100
AcDbPolyline
 90
2
 70
0
 10
296.896501
 20
207.846655
 30
0.0
 10
299.149950
 20
209.366671
 30
0.0
  0
LWPOLYLINE
  5
22d
100
AcDbEntity
  8
Ebene_1
 62
3
100
AcDbPolyline
 90
2
 70
0
 10
299.482454
 20
208.946233
 30
0.0
 10
297.156694
 20
207.377442
 30
0.0
  0
LWPOLYLINE
  5
22e
100
AcDbEntity
  8
Ebene_1
 62
3
100
AcDbPolyline
 90
2
 70
0
 10
297.445189
 20
206.927319
 30
0.0
 10
299.813289
 20
208.524671
 30
0.0
  0
LWPOLYLINE
  5
22f
100
AcDbEntity
  8
Ebene_1
 62
3
100
AcDbPolyline
 90
2
 70
0
 10
300.127170
 20
208.091671
 30
0.0
 10
297.737332
 20
206.479657
 30
0.0
  0
LWPOLYLINE
  5
230
100
AcDbEntity
  8
Ebene_1
 62
3
100
AcDbPolyline
 90
2
 70
0
 10
298.029475
 20
206.031998
 30
0.0
 10
300.441050
 20
207.658672
 30
0.0
  0
LWPOLYLINE
  5
231
100
AcDbEntity
  8
Ebene_1
 62
3
100
AcDbPolyline
 90
2
 70
0
 10
300.740097
 20
207.215668
 30
0.0
 10
298.336023
 20
205.594052
 30
0.0
  0
LWPOLYLINE
  5
232
100
AcDbEntity
  8
Ebene_1
 62
3
100
AcDbPolyline
 90
2
 70
0
 10
298.651149
 20
205.161892
 30
0.0
 10
301.033315
 20
206.768732
 30
0.0
  0
LWPOLYLINE
  5
233
100
AcDbEntity
  8
Ebene_1
 62
3
100
AcDbPolyline
 90
2
 70
0
 10
301.326535
 20
206.321796
 30
0.0
 10
298.966275
 20
204.729733
 30
0.0
  0
LWPOLYLINE
  5
234
100
AcDbEntity
  8
Ebene_1
 62
3
100
AcDbPolyline
 90
2
 70
0
 10
299.281399
 20
204.297573
 30
0.0
 10
301.619755
 20
205.874860
 30
0.0
  0
LWPOLYLINE
  5
235
100
AcDbEntity
  8
Ebene_1
 62
3
100
AcDbPolyline
 90
2
 70
0
 10
301.912973
 20
205.427924
 30
0.0
 10
299.611000
 20
203.875178
 30
0.0
  0
LWPOLYLINE
  5
236
100
AcDbEntity
  8
Ebene_1
 62
3
100
AcDbPolyline
 90
2
 70
0
 10
299.943449
 20
203.454703
 30
0.0
 10
302.203523
 20
204.979187
 30
0.0
  0
LWPOLYLINE
  5
237
100
AcDbEntity
  8
Ebene_1
 62
3
100
AcDbPolyline
 90
2
 70
0
 10
302.469070
 20
204.513586
 30
0.0
 10
300.275898
 20
203.034229
 30
0.0
  0
LWPOLYLINE
  5
238
100
AcDbEntity
  8
Ebene_1
 62
3
100
AcDbPolyline
 90
2
 70
0
 10
300.608347
 20
202.613755
 30
0.0
 10
302.734619
 20
204.047987
 30
0.0
  0
LWPOLYLINE
  5
239
100
AcDbEntity
  8
Ebene_1
 62
3
100
AcDbPolyline
 90
2
 70
0
 10
303.000166
 20
203.582386
 30
0.0
 10
300.947723
 20
202.197954
 30
0.0
  0
LWPOLYLINE
  5
23a
100
AcDbEntity
  8
Ebene_1
 62
3
100
AcDbPolyline
 90
2
 70
0
 10
301.293699
 20
201.786605
 30
0.0
 10
303.265715
 20
203.116786
 30
0.0
  0
LWPOLYLINE
  5
23b
100
AcDbEntity
  8
Ebene_1
 62
3
100
AcDbPolyline
 90
2
 70
0
 10
303.531264
 20
202.651185
 30
0.0
 10
301.639675
 20
201.375254
 30
0.0
  0
LWPOLYLINE
  5
23c
100
AcDbEntity
  8
Ebene_1
 62
3
100
AcDbPolyline
 90
2
 70
0
 10
301.985650
 20
200.963905
 30
0.0
 10
303.788293
 20
202.179839
 30
0.0
  0
LWPOLYLINE
  5
23d
100
AcDbEntity
  8
Ebene_1
 62
3
100
AcDbPolyline
 90
2
 70
0
 10
304.033310
 20
201.700389
 30
0.0
 10
302.331626
 20
200.552554
 30
0.0
  0
LWPOLYLINE
  5
23e
100
AcDbEntity
  8
Ebene_1
 62
3
100
AcDbPolyline
 90
2
 70
0
 10
302.684729
 20
200.146012
 30
0.0
 10
304.278326
 20
201.220938
 30
0.0
  0
LWPOLYLINE
  5
23f
100
AcDbEntity
  8
Ebene_1
 62
3
100
AcDbPolyline
 90
2
 70
0
 10
304.523341
 20
200.741488
 30
0.0
 10
303.041560
 20
199.741984
 30
0.0
  0
LWPOLYLINE
  5
240
100
AcDbEntity
  8
Ebene_1
 62
3
100
AcDbPolyline
 90
2
 70
0
 10
303.398389
 20
199.337956
 30
0.0
 10
304.768357
 20
200.262038
 30
0.0
  0
LWPOLYLINE
  5
241
100
AcDbEntity
  8
Ebene_1
 62
3
100
AcDbPolyline
 90
2
 70
0
 10
305.002754
 20
199.775424
 30
0.0
 10
303.755219
 20
198.933926
 30
0.0
  0
LWPOLYLINE
  5
242
100
AcDbEntity
  8
Ebene_1
 62
3
100
AcDbPolyline
 90
2
 70
0
 10
304.112048
 20
198.529898
 30
0.0
 10
305.220983
 20
199.277906
 30
0.0
  0
LWPOLYLINE
  5
243
100
AcDbEntity
  8
Ebene_1
 62
3
100
AcDbPolyline
 90
2
 70
0
 10
305.439214
 20
198.780388
 30
0.0
 10
304.471273
 20
198.127485
 30
0.0
  0
LWPOLYLINE
  5
244
100
AcDbEntity
  8
Ebene_1
 62
3
100
AcDbPolyline
 90
2
 70
0
 10
304.837007
 20
197.729462
 30
0.0
 10
305.657444
 20
198.282870
 30
0.0
  0
LWPOLYLINE
  5
245
100
AcDbEntity
  8
Ebene_1
 62
3
100
AcDbPolyline
 90
2
 70
0
 10
305.874598
 20
197.784627
 30
0.0
 10
305.202739
 20
197.331439
 30
0.0
  0
LWPOLYLINE
  5
246
100
AcDbEntity
  8
Ebene_1
 62
3
100
AcDbPolyline
 90
2
 70
0
 10
305.568471
 20
196.933415
 30
0.0
 10
306.066695
 20
197.269481
 30
0.0
  0
LWPOLYLINE
  5
247
100
AcDbEntity
  8
Ebene_1
 62
3
100
AcDbPolyline
 90
2
 70
0
 10
306.256376
 20
196.752706
 30
0.0
 10
305.934205
 20
196.535392
 30
0.0
  0
SPLINE
  5
248
100
AcDbEntity
  8
Ebene_1
 62
7
100
AcDbSpline
 70
8
 71
3
 72
8
 73
4
 74
0
 40
0
 40
0
 40
0
 40
0
 40
1
 40
1
 40
1
 40
1
 10
415.577528
 20
-35.087317
 30
0.0
 10
415.577533
 20
-36.468025
 30
0.0
 10
414.458255
 20
-37.587316
 30
0.0
 10
413.077547
 20
-37.587326
 30
0.0
  0
SPLINE
  5
249
100
AcDbEntity
  8
Ebene_1
 62
7
100
AcDbSpline
 70
8
 71
3
 72
8
 73
4
 74
0
 40
0
 40
0
 40
0
 40
0
 40
1
 40
1
 40
1
 40
1
 10
413.077547
 20
-37.587326
 30
0.0
 10
412.414503
 20
-37.587329
 30
0.0
 10
411.778614
 20
-37.323937
 30
0.0
 10
411.309771
 20
-36.855093
 30
0.0
  0
SPLINE
  5
24a
100
AcDbEntity
  8
Ebene_1
 62
7
100
AcDbSpline
 70
8
 71
3
 72
8
 73
4
 74
0
 40
0
 40
0
 40
0
 40
0
 40
1
 40
1
 40
1
 40
1
 10
411.309771
 20
-36.855093
 30
0.0
 10
410.840928
 20
-36.386250
 30
0.0
 10
410.577536
 20
-35.750362
 30
0.0
 10
410.577538
 20
-35.087317
 30
0.0
  0
SPLINE
  5
24b
100
AcDbEntity
  8
Ebene_1
 62
7
100
AcDbSpline
 70
8
 71
3
 72
8
 73
4
 74
0
 40
0
 40
0
 40
0
 40
0
 40
1
 40
1
 40
1
 40
1
 10
410.577538
 20
-35.087317
 30
0.0
 10
410.577536
 20
-34.424273
 30
0.0
 10
410.840928
 20
-33.788384
 30
0.0
 10
411.309771
 20
-33.319541
 30
0.0
  0
SPLINE
  5
24c
100
AcDbEntity
  8
Ebene_1
 62
7
100
AcDbSpline
 70
8
 71
3
 72
8
 73
4
 74
0
 40
0
 40
0
 40
0
 40
0
 40
1
 40
1
 40
1
 40
1
 10
411.309771
 20
-33.319541
 30
0.0
 10
411.778614
 20
-32.850698
 30
0.0
 10
412.414503
 20
-32.587306
 30
0.0
 10
413.077547
 20
-32.587308
 30
0.0
  0
SPLINE
  5
24d
100
AcDbEntity
  8
Ebene_1
 62
7
100
AcDbSpline
 70
8
 71
3
 72
8
 73
4
 74
0
 40
0
 40
0
 40
0
 40
0
 40
1
 40
1
 40
1
 40
1
 10
413.077547
 20
-32.587308
 30
0.0
 10
414.458255
 20
-32.587319
 30
0.0
 10
415.577533
 20
-33.706609
 30
0.0
 10
415.577528
 20
-35.087317
 30
0.0
  0
LWPOLYLINE
  5
24e
100
AcDbEntity
  8
Ebene_1
 62
3
100
AcDbPolyline
 90
2
 70
0
 10
306.299937
 20
196.137368
 30
0.0
 10
306.426955
 20
196.223047
 30
0.0
  0
SPLINE
  5
24f
100
AcDbEntity
  8
Ebene_1
 62
7
100
AcDbSpline
 70
8
 71
3
 72
8
 73
4
 74
0
 40
0
 40
0
 40
0
 40
0
 40
1
 40
1
 40
1
 40
1
 10
416.266178
 20
271.691765
 30
0.0
 10
416.266183
 20
270.311057
 30
0.0
 10
415.146906
 20
269.191766
 30
0.0
 10
413.766198
 20
269.191756
 30
0.0
  0
SPLINE
  5
250
100
AcDbEntity
  8
Ebene_1
 62
7
100
AcDbSpline
 70
8
 71
3
 72
8
 73
4
 74
0
 40
0
 40
0
 40
0
 40
0
 40
1
 40
1
 40
1
 40
1
 10
413.766198
 20
269.191756
 30
0.0
 10
413.103153
 20
269.191753
 30
0.0
 10
412.467265
 20
269.455146
 30
0.0
 10
411.998421
 20
269.923989
 30
0.0
  0
SPLINE
  5
251
100
AcDbEntity
  8
Ebene_1
 62
7
100
AcDbSpline
 70
8
 71
3
 72
8
 73
4
 74
0
 40
0
 40
0
 40
0
 40
0
 40
1
 40
1
 40
1
 40
1
 10
411.998421
 20
269.923989
 30
0.0
 10
411.529578
 20
270.392832
 30
0.0
 10
411.266186
 20
271.028721
 30
0.0
 10
411.266188
 20
271.691765
 30
0.0
  0
SPLINE
  5
252
100
AcDbEntity
  8
Ebene_1
 62
7
100
AcDbSpline
 70
8
 71
3
 72
8
 73
4
 74
0
 40
0
 40
0
 40
0
 40
0
 40
1
 40
1
 40
1
 40
1
 10
411.266188
 20
271.691765
 30
0.0
 10
411.266186
 20
272.354809
 30
0.0
 10
411.529578
 20
272.990698
 30
0.0
 10
411.998421
 20
273.459541
 30
0.0
  0
SPLINE
  5
253
100
AcDbEntity
  8
Ebene_1
 62
7
100
AcDbSpline
 70
8
 71
3
 72
8
 73
4
 74
0
 40
0
 40
0
 40
0
 40
0
 40
1
 40
1
 40
1
 40
1
 10
411.998421
 20
273.459541
 30
0.0
 10
412.467265
 20
273.928384
 30
0.0
 10
413.103153
 20
274.191776
 30
0.0
 10
413.766198
 20
274.191774
 30
0.0
  0
SPLINE
  5
254
100
AcDbEntity
  8
Ebene_1
 62
7
100
AcDbSpline
 70
8
 71
3
 72
8
 73
4
 74
0
 40
0
 40
0
 40
0
 40
0
 40
1
 40
1
 40
1
 40
1
 10
413.766198
 20
274.191774
 30
0.0
 10
415.146906
 20
274.191763
 30
0.0
 10
416.266183
 20
273.072473
 30
0.0
 10
416.266178
 20
271.691765
 30
0.0
  0
LWPOLYLINE
  5
255
100
AcDbEntity
  8
Ebene_1
 62
7
100
AcDbPolyline
 90
2
 70
1
 10
415.577528
 20
-35.087317
 30
0.0
 10
415.577528
 20
-35.087317
 30
0.0
  0
LWPOLYLINE
  5
256
100
AcDbEntity
  8
Ebene_1
 62
7
100
AcDbPolyline
 90
2
 70
1
 10
416.266178
 20
271.691765
 30
0.0
 10
416.266178
 20
271.691765
 30
0.0
  0
LWPOLYLINE
  5
257
100
AcDbEntity
  8
Ebene_1
 62
7
100
AcDbPolyline
 90
5
 70
1
 10
-30.220937
 20
219.536349
 30
0.0
 10
-24.208715
 20
219.536349
 30
0.0
 10
-24.208715
 20
220.024126
 30
0.0
 10
-30.220937
 20
220.024126
 30
0.0
 10
-30.220937
 20
219.536349
 30
0.0
  0
LWPOLYLINE
  5
258
100
AcDbEntity
  8
Ebene_1
 62
7
100
AcDbPolyline
 90
5
 70
1
 10
-30.220937
 20
230.536349
 30
0.0
 10
-24.208715
 20
230.536349
 30
0.0
 10
-24.208715
 20
231.024126
 30
0.0
 10
-30.220937
 20
231.024126
 30
0.0
 10
-30.220937
 20
230.536349
 30
0.0
  0
SPLINE
  5
259
100
AcDbEntity
  8
Ebene_1
 62
3
100
AcDbSpline
 70
8
 71
3
 72
8
 73
4
 74
0
 40
0
 40
0
 40
0
 40
0
 40
1
 40
1
 40
1
 40
1
 10
108.120805
 20
238.326060
 30
0.0
 10
104.008739
 20
243.643227
 30
0.0
 10
101.350077
 20
248.251438
 30
0.0
 10
100.144817
 20
252.150695
 30
0.0
  0
SPLINE
  5
25a
100
AcDbEntity
  8
Ebene_1
 62
3
100
AcDbSpline
 70
8
 71
3
 72
8
 73
4
 74
0
 40
0
 40
0
 40
0
 40
0
 40
1
 40
1
 40
1
 40
1
 10
100.144817
 20
252.150695
 30
0.0
 10
99.010454
 20
255.979054
 30
0.0
 10
99.719431
 20
257.538756
 30
0.0
 10
102.271747
 20
256.829800
 30
0.0
  0
SPLINE
  5
25b
100
AcDbEntity
  8
Ebene_1
 62
3
100
AcDbSpline
 70
8
 71
3
 72
8
 73
4
 74
0
 40
0
 40
0
 40
0
 40
0
 40
1
 40
1
 40
1
 40
1
 10
102.271747
 20
256.829800
 30
0.0
 10
104.682267
 20
256.049950
 30
0.0
 10
107.021890
 20
254.135770
 30
0.0
 10
109.290615
 20
251.087261
 30
0.0
  0
SPLINE
  5
25c
100
AcDbEntity
  8
Ebene_1
 62
3
100
AcDbSpline
 70
8
 71
3
 72
8
 73
4
 74
0
 40
0
 40
0
 40
0
 40
0
 40
1
 40
1
 40
1
 40
1
 10
109.290615
 20
251.087261
 30
0.0
 10
111.346648
 20
248.180543
 30
0.0
 10
112.516459
 20
245.380169
 30
0.0
 10
112.800049
 20
242.686137
 30
0.0
  0
SPLINE
  5
25d
100
AcDbEntity
  8
Ebene_1
 62
3
100
AcDbSpline
 70
8
 71
3
 72
8
 73
4
 74
0
 40
0
 40
0
 40
0
 40
0
 40
1
 40
1
 40
1
 40
1
 10
112.800049
 20
242.686137
 30
0.0
 10
113.863515
 20
244.813004
 30
0.0
 10
116.557626
 20
246.053676
 30
0.0
 10
120.882384
 20
246.408154
 30
0.0
  0
SPLINE
  5
25e
100
AcDbEntity
  8
Ebene_1
 62
3
100
AcDbSpline
 70
8
 71
3
 72
8
 73
4
 74
0
 40
0
 40
0
 40
0
 40
0
 40
1
 40
1
 40
1
 40
1
 10
120.882384
 20
246.408154
 30
0.0
 10
125.490731
 20
246.691735
 30
0.0
 10
128.220291
 20
245.061137
 30
0.0
 10
129.071064
 20
241.516360
 30
0.0
  0
SPLINE
  5
25f
100
AcDbEntity
  8
Ebene_1
 62
3
100
AcDbSpline
 70
8
 71
3
 72
8
 73
4
 74
0
 40
0
 40
0
 40
0
 40
0
 40
1
 40
1
 40
1
 40
1
 10
129.071064
 20
241.516360
 30
0.0
 10
129.921835
 20
238.255165
 30
0.0
 10
128.468433
 20
235.880163
 30
0.0
 10
124.710856
 20
234.391356
 30
0.0
  0
LWPOLYLINE
  5
260
100
AcDbEntity
  8
Ebene_1
 62
7
100
AcDbPolyline
 90
5
 70
1
 10
-47.720939
 20
272.786349
 30
0.0
 10
199.291287
 20
272.786349
 30
0.0
 10
199.291287
 20
177.774130
 30
0.0
 10
-47.720939
 20
177.774130
 30
0.0
 10
-47.720939
 20
272.786349
 30
0.0
  0
SPLINE
  5
261
100
AcDbEntity
  8
Ebene_1
 62
3
100
AcDbSpline
 70
8
 71
3
 72
8
 73
4
 74
0
 40
0
 40
0
 40
0
 40
0
 40
1
 40
1
 40
1
 40
1
 10
116.947563
 20
232.583520
 30
0.0
 10
118.861800
 20
228.684264
 30
0.0
 10
119.996163
 20
225.635755
 30
0.0
 10
120.350650
 20
223.437992
 30
0.0
  0
SPLINE
  5
262
100
AcDbEntity
  8
Ebene_1
 62
3
100
AcDbSpline
 70
8
 71
3
 72
8
 73
4
 74
0
 40
0
 40
0
 40
0
 40
0
 40
1
 40
1
 40
1
 40
1
 10
120.350650
 20
223.437992
 30
0.0
 10
120.917832
 20
219.467842
 30
0.0
 10
119.570776
 20
217.057393
 30
0.0
 10
116.309485
 20
216.206645
 30
0.0
  0
SPLINE
  5
263
100
AcDbEntity
  8
Ebene_1
 62
3
100
AcDbSpline
 70
8
 71
3
 72
8
 73
4
 74
0
 40
0
 40
0
 40
0
 40
0
 40
1
 40
1
 40
1
 40
1
 10
116.309485
 20
216.206645
 30
0.0
 10
112.835498
 20
215.285004
 30
0.0
 10
109.928694
 20
216.561124
 30
0.0
 10
107.589071
 20
220.035006
 30
0.0
  0
SPLINE
  5
264
100
AcDbEntity
  8
Ebene_1
 62
3
100
AcDbSpline
 70
8
 71
3
 72
8
 73
4
 74
0
 40
0
 40
0
 40
0
 40
0
 40
1
 40
1
 40
1
 40
1
 10
107.589071
 20
220.035006
 30
0.0
 10
105.391244
 20
223.154411
 30
0.0
 10
104.575921
 20
226.380158
 30
0.0
 10
105.143102
 20
229.712249
 30
0.0
  0
SPLINE
  5
265
100
AcDbEntity
  8
Ebene_1
 62
3
100
AcDbSpline
 70
8
 71
3
 72
8
 73
4
 74
0
 40
0
 40
0
 40
0
 40
0
 40
1
 40
1
 40
1
 40
1
 10
105.143102
 20
229.712249
 30
0.0
 10
103.512457
 20
227.230905
 30
0.0
 10
100.357510
 20
226.167471
 30
0.0
 10
95.678264
 20
226.521950
 30
0.0
  0
SPLINE
  5
266
100
AcDbEntity
  8
Ebene_1
 62
3
100
AcDbSpline
 70
8
 71
3
 72
8
 73
4
 74
0
 40
0
 40
0
 40
0
 40
0
 40
1
 40
1
 40
1
 40
1
 10
95.678264
 20
226.521950
 30
0.0
 10
90.928121
 20
226.734636
 30
0.0
 10
88.446703
 20
228.471577
 30
0.0
 10
88.234009
 20
231.732773
 30
0.0
  0
SPLINE
  5
267
100
AcDbEntity
  8
Ebene_1
 62
3
100
AcDbSpline
 70
8
 71
3
 72
8
 73
4
 74
0
 40
0
 40
0
 40
0
 40
0
 40
1
 40
1
 40
1
 40
1
 10
88.234009
 20
231.732773
 30
0.0
 10
88.092215
 20
234.639491
 30
0.0
 10
90.679980
 20
236.624567
 30
0.0
 10
95.997304
 20
237.688001
 30
0.0
  0
SPLINE
  5
268
100
AcDbEntity
  8
Ebene_1
 62
3
100
AcDbSpline
 70
8
 71
3
 72
8
 73
4
 74
0
 40
0
 40
0
 40
0
 40
0
 40
1
 40
1
 40
1
 40
1
 10
95.997304
 20
237.688001
 30
0.0
 10
99.542187
 20
238.326061
 30
0.0
 10
103.583354
 20
238.538747
 30
0.0
 10
108.120805
 20
238.326060
 30
0.0
  0
SPLINE
  5
269
100
AcDbEntity
  8
Ebene_1
 62
3
100
AcDbSpline
 70
8
 71
3
 72
8
 73
4
 74
0
 40
0
 40
0
 40
0
 40
0
 40
1
 40
1
 40
1
 40
1
 10
126.625093
 20
205.784999
 30
0.0
 10
122.867517
 20
206.352164
 30
0.0
 10
121.839501
 20
207.592836
 30
0.0
 10
123.541046
 20
209.507016
 30
0.0
  0
SPLINE
  5
26a
100
AcDbEntity
  8
Ebene_1
 62
3
100
AcDbSpline
 70
8
 71
3
 72
8
 73
4
 74
0
 40
0
 40
0
 40
0
 40
0
 40
1
 40
1
 40
1
 40
1
 10
123.541046
 20
209.507016
 30
0.0
 10
125.100794
 20
211.279405
 30
0.0
 10
127.617661
 20
212.484630
 30
0.0
 10
131.091646
 20
213.122690
 30
0.0
  0
SPLINE
  5
26b
100
AcDbEntity
  8
Ebene_1
 62
3
100
AcDbSpline
 70
8
 71
3
 72
8
 73
4
 74
0
 40
0
 40
0
 40
0
 40
0
 40
1
 40
1
 40
1
 40
1
 10
131.091646
 20
213.122690
 30
0.0
 10
134.423836
 20
213.760750
 30
0.0
 10
137.330641
 20
213.654406
 30
0.0
 10
139.812059
 20
212.803659
 30
0.0
  0
SPLINE
  5
26c
100
AcDbEntity
  8
Ebene_1
 62
3
100
AcDbSpline
 70
8
 71
3
 72
8
 73
4
 74
0
 40
0
 40
0
 40
0
 40
0
 40
1
 40
1
 40
1
 40
1
 10
139.812059
 20
212.803659
 30
0.0
 10
138.394106
 20
214.576048
 30
0.0
 10
138.429554
 20
217.376423
 30
0.0
 10
139.918406
 20
221.204783
 30
0.0
  0
SPLINE
  5
26d
100
AcDbEntity
  8
Ebene_1
 62
3
100
AcDbSpline
 70
8
 71
3
 72
8
 73
4
 74
0
 40
0
 40
0
 40
0
 40
0
 40
1
 40
1
 40
1
 40
1
 10
139.918406
 20
221.204783
 30
0.0
 10
141.407256
 20
225.316725
 30
0.0
 10
143.853226
 20
226.982771
 30
0.0
 10
147.256314
 20
226.202919
 30
0.0
  0
SPLINE
  5
26e
100
AcDbEntity
  8
Ebene_1
 62
3
100
AcDbSpline
 70
8
 71
3
 72
8
 73
4
 74
0
 40
0
 40
0
 40
0
 40
0
 40
1
 40
1
 40
1
 40
1
 10
147.256314
 20
226.202919
 30
0.0
 10
150.375810
 20
225.564859
 30
0.0
 10
151.829212
 20
223.367097
 30
0.0
 10
151.616520
 20
219.609632
 30
0.0
  0
LWPOLYLINE
  5
26f
100
AcDbEntity
  8
Ebene_1
 62
3
100
AcDbPolyline
 90
2
 70
0
 10
124.710856
 20
234.391356
 30
0.0
 10
116.947563
 20
232.583520
 30
0.0
  0
SPLINE
  5
270
100
AcDbEntity
  8
Ebene_1
 62
3
100
AcDbSpline
 70
8
 71
3
 72
8
 73
4
 74
0
 40
0
 40
0
 40
0
 40
0
 40
1
 40
1
 40
1
 40
1
 10
149.914976
 20
212.378285
 30
0.0
 10
154.097938
 20
212.378285
 30
0.0
 10
157.181986
 20
212.059255
 30
0.0
 10
159.167120
 20
211.421195
 30
0.0
  0
SPLINE
  5
271
100
AcDbEntity
  8
Ebene_1
 62
3
100
AcDbSpline
 70
8
 71
3
 72
8
 73
4
 74
0
 40
0
 40
0
 40
0
 40
0
 40
1
 40
1
 40
1
 40
1
 10
159.167120
 20
211.421195
 30
0.0
 10
162.782901
 20
210.357762
 30
0.0
 10
164.342650
 20
208.266343
 30
0.0
 10
163.846366
 20
205.146938
 30
0.0
  0
SPLINE
  5
272
100
AcDbEntity
  8
Ebene_1
 62
3
100
AcDbSpline
 70
8
 71
3
 72
8
 73
4
 74
0
 40
0
 40
0
 40
0
 40
0
 40
1
 40
1
 40
1
 40
1
 10
163.846366
 20
205.146938
 30
0.0
 10
163.208287
 20
201.814847
 30
0.0
 10
160.904113
 20
199.865220
 30
0.0
 10
156.933844
 20
199.298055
 30
0.0
  0
SPLINE
  5
273
100
AcDbEntity
  8
Ebene_1
 62
3
100
AcDbSpline
 70
8
 71
3
 72
8
 73
4
 74
0
 40
0
 40
0
 40
0
 40
0
 40
1
 40
1
 40
1
 40
1
 10
156.933844
 20
199.298055
 30
0.0
 10
153.388961
 20
198.659995
 30
0.0
 10
150.340362
 20
199.262608
 30
0.0
 10
147.788046
 20
201.105892
 30
0.0
  0
SPLINE
  5
274
100
AcDbEntity
  8
Ebene_1
 62
3
100
AcDbSpline
 70
8
 71
3
 72
8
 73
4
 74
0
 40
0
 40
0
 40
0
 40
0
 40
1
 40
1
 40
1
 40
1
 10
147.788046
 20
201.105892
 30
0.0
 10
149.205999
 20
198.695443
 30
0.0
 10
148.851511
 20
195.540591
 30
0.0
 10
146.724581
 20
191.641334
 30
0.0
  0
SPLINE
  5
275
100
AcDbEntity
  8
Ebene_1
 62
3
100
AcDbSpline
 70
8
 71
3
 72
8
 73
4
 74
0
 40
0
 40
0
 40
0
 40
0
 40
1
 40
1
 40
1
 40
1
 10
146.724581
 20
191.641334
 30
0.0
 10
144.597651
 20
187.742079
 30
0.0
 10
142.116233
 20
186.359616
 30
0.0
 10
139.280326
 20
187.493945
 30
0.0
  0
SPLINE
  5
276
100
AcDbEntity
  8
Ebene_1
 62
3
100
AcDbSpline
 70
8
 71
3
 72
8
 73
4
 74
0
 40
0
 40
0
 40
0
 40
0
 40
1
 40
1
 40
1
 40
1
 10
139.280326
 20
187.493945
 30
0.0
 10
136.728011
 20
188.557378
 30
0.0
 10
136.054483
 20
191.570439
 30
0.0
 10
137.259744
 20
196.533128
 30
0.0
  0
SPLINE
  5
277
100
AcDbEntity
  8
Ebene_1
 62
3
100
AcDbSpline
 70
8
 71
3
 72
8
 73
4
 74
0
 40
0
 40
0
 40
0
 40
0
 40
1
 40
1
 40
1
 40
1
 10
137.259744
 20
196.533128
 30
0.0
 10
138.110515
 20
199.794324
 30
0.0
 10
139.528468
 20
203.303654
 30
0.0
 10
141.513603
 20
207.061118
 30
0.0
  0
SPLINE
  5
278
100
AcDbEntity
  8
Ebene_1
 62
3
100
AcDbSpline
 70
8
 71
3
 72
8
 73
4
 74
0
 40
0
 40
0
 40
0
 40
0
 40
1
 40
1
 40
1
 40
1
 10
141.513603
 20
207.061118
 30
0.0
 10
135.416404
 20
205.643208
 30
0.0
 10
130.453567
 20
205.217835
 30
0.0
 10
126.625093
 20
205.784999
 30
0.0
  0
SPLINE
  5
279
100
AcDbEntity
  8
Ebene_1
 62
3
100
AcDbSpline
 70
8
 71
3
 72
8
 73
4
 74
0
 40
0
 40
0
 40
0
 40
0
 40
1
 40
1
 40
1
 40
1
 10
141.726296
 20
259.488385
 30
0.0
 10
140.662830
 20
262.607788
 30
0.0
 10
141.194563
 20
263.883908
 30
0.0
 10
143.321493
 20
263.316747
 30
0.0
  0
SPLINE
  5
27a
100
AcDbEntity
  8
Ebene_1
 62
3
100
AcDbSpline
 70
8
 71
3
 72
8
 73
4
 74
0
 40
0
 40
0
 40
0
 40
0
 40
1
 40
1
 40
1
 40
1
 10
143.321493
 20
263.316747
 30
0.0
 10
145.306628
 20
262.820473
 30
0.0
 10
147.256313
 20
261.331665
 30
0.0
 10
149.170549
 20
258.850324
 30
0.0
  0
SPLINE
  5
27b
100
AcDbEntity
  8
Ebene_1
 62
3
100
AcDbSpline
 70
8
 71
3
 72
8
 73
4
 74
0
 40
0
 40
0
 40
0
 40
0
 40
1
 40
1
 40
1
 40
1
 10
149.170549
 20
258.850324
 30
0.0
 10
151.013889
 20
256.510771
 30
0.0
 10
152.112803
 20
254.242113
 30
0.0
 10
152.467292
 20
252.044351
 30
0.0
  0
SPLINE
  5
27c
100
AcDbEntity
  8
Ebene_1
 62
3
100
AcDbSpline
 70
8
 71
3
 72
8
 73
4
 74
0
 40
0
 40
0
 40
0
 40
0
 40
1
 40
1
 40
1
 40
1
 10
152.467292
 20
252.044351
 30
0.0
 10
153.247166
 20
253.816740
 30
0.0
 10
155.409544
 20
254.880173
 30
0.0
 10
158.954427
 20
255.234650
 30
0.0
  0
SPLINE
  5
27d
100
AcDbEntity
  8
Ebene_1
 62
3
100
AcDbSpline
 70
8
 71
3
 72
8
 73
4
 74
0
 40
0
 40
0
 40
0
 40
0
 40
1
 40
1
 40
1
 40
1
 10
158.954427
 20
255.234650
 30
0.0
 10
162.712003
 20
255.660024
 30
0.0
 10
165.016177
 20
254.419352
 30
0.0
 10
165.866949
 20
251.512633
 30
0.0
  0
SPLINE
  5
27e
100
AcDbEntity
  8
Ebene_1
 62
3
100
AcDbSpline
 70
8
 71
3
 72
8
 73
4
 74
0
 40
0
 40
0
 40
0
 40
0
 40
1
 40
1
 40
1
 40
1
 10
165.866949
 20
251.512633
 30
0.0
 10
166.575926
 20
248.818603
 30
0.0
 10
165.441563
 20
246.833527
 30
0.0
 10
162.463862
 20
245.557407
 30
0.0
  0
LWPOLYLINE
  5
27f
100
AcDbEntity
  8
Ebene_1
 62
3
100
AcDbPolyline
 90
2
 70
0
 10
151.616520
 20
219.609632
 30
0.0
 10
149.914976
 20
212.378285
 30
0.0
  0
SPLINE
  5
280
100
AcDbEntity
  8
Ebene_1
 62
3
100
AcDbSpline
 70
8
 71
3
 72
8
 73
4
 74
0
 40
0
 40
0
 40
0
 40
0
 40
1
 40
1
 40
1
 40
1
 10
156.189419
 20
243.855914
 30
0.0
 10
157.820065
 20
240.665614
 30
0.0
 10
158.812632
 20
238.148821
 30
0.0
 10
159.167120
 20
236.305537
 30
0.0
  0
SPLINE
  5
281
100
AcDbEntity
  8
Ebene_1
 62
3
100
AcDbSpline
 70
8
 71
3
 72
8
 73
4
 74
0
 40
0
 40
0
 40
0
 40
0
 40
1
 40
1
 40
1
 40
1
 10
159.167120
 20
236.305537
 30
0.0
 10
159.734302
 20
233.044340
 30
0.0
 10
158.706286
 20
231.023817
 30
0.0
 10
156.083072
 20
230.243967
 30
0.0
  0
SPLINE
  5
282
100
AcDbEntity
  8
Ebene_1
 62
3
100
AcDbSpline
 70
8
 71
3
 72
8
 73
4
 74
0
 40
0
 40
0
 40
0
 40
0
 40
1
 40
1
 40
1
 40
1
 10
156.083072
 20
230.243967
 30
0.0
 10
153.247166
 20
229.393220
 30
0.0
 10
150.801197
 20
230.350310
 30
0.0
 10
148.745164
 20
233.115237
 30
0.0
  0
SPLINE
  5
283
100
AcDbEntity
  8
Ebene_1
 62
3
100
AcDbSpline
 70
8
 71
3
 72
8
 73
4
 74
0
 40
0
 40
0
 40
0
 40
0
 40
1
 40
1
 40
1
 40
1
 10
148.745164
 20
233.115237
 30
0.0
 10
146.830927
 20
235.667476
 30
0.0
 10
146.086502
 20
238.326060
 30
0.0
 10
146.511887
 20
241.090987
 30
0.0
  0
SPLINE
  5
284
100
AcDbEntity
  8
Ebene_1
 62
3
100
AcDbSpline
 70
8
 71
3
 72
8
 73
4
 74
0
 40
0
 40
0
 40
0
 40
0
 40
1
 40
1
 40
1
 40
1
 10
146.511887
 20
241.090987
 30
0.0
 10
145.164832
 20
239.035016
 30
0.0
 10
142.577068
 20
238.042478
 30
0.0
 10
138.748594
 20
238.113373
 30
0.0
  0
SPLINE
  5
285
100
AcDbEntity
  8
Ebene_1
 62
3
100
AcDbSpline
 70
8
 71
3
 72
8
 73
4
 74
0
 40
0
 40
0
 40
0
 40
0
 40
1
 40
1
 40
1
 40
1
 10
138.748594
 20
238.113373
 30
0.0
 10
134.849222
 20
238.255165
 30
0.0
 10
132.757741
 20
239.637628
 30
0.0
 10
132.474151
 20
242.260764
 30
0.0
  0
SPLINE
  5
286
100
AcDbEntity
  8
Ebene_1
 62
3
100
AcDbSpline
 70
8
 71
3
 72
8
 73
4
 74
0
 40
0
 40
0
 40
0
 40
0
 40
1
 40
1
 40
1
 40
1
 10
132.474151
 20
242.260764
 30
0.0
 10
132.332356
 20
244.671213
 30
0.0
 10
134.423836
 20
246.372706
 30
0.0
 10
138.748594
 20
247.365244
 30
0.0
  0
SPLINE
  5
287
100
AcDbEntity
  8
Ebene_1
 62
3
100
AcDbSpline
 70
8
 71
3
 72
8
 73
4
 74
0
 40
0
 40
0
 40
0
 40
0
 40
1
 40
1
 40
1
 40
1
 10
138.748594
 20
247.365244
 30
0.0
 10
141.513602
 20
248.003304
 30
0.0
 10
144.810344
 20
248.322334
 30
0.0
 10
148.638818
 20
248.322334
 30
0.0
  0
SPLINE
  5
288
100
AcDbEntity
  8
Ebene_1
 62
3
100
AcDbSpline
 70
8
 71
3
 72
8
 73
4
 74
0
 40
0
 40
0
 40
0
 40
0
 40
1
 40
1
 40
1
 40
1
 10
148.638818
 20
248.322334
 30
0.0
 10
145.093935
 20
252.505172
 30
0.0
 10
142.789761
 20
256.227189
 30
0.0
 10
141.726296
 20
259.488385
 30
0.0
  0
SPLINE
  5
289
100
AcDbEntity
  8
Ebene_1
 62
3
100
AcDbSpline
 70
8
 71
3
 72
8
 73
4
 74
0
 40
0
 40
0
 40
0
 40
0
 40
1
 40
1
 40
1
 40
1
 10
132.899536
 20
250.023827
 30
0.0
 10
132.899536
 20
250.520096
 30
0.0
 10
133.112230
 20
250.945470
 30
0.0
 10
133.537616
 20
251.299948
 30
0.0
  0
LWPOLYLINE
  5
28a
100
AcDbEntity
  8
Ebene_1
 62
3
100
AcDbPolyline
 90
2
 70
0
 10
162.463862
 20
245.557407
 30
0.0
 10
156.189419
 20
243.855914
 30
0.0
  0
SPLINE
  5
28b
100
AcDbEntity
  8
Ebene_1
 62
3
100
AcDbSpline
 70
8
 71
3
 72
8
 73
4
 74
0
 40
0
 40
0
 40
0
 40
0
 40
1
 40
1
 40
1
 40
1
 10
133.856655
 20
251.618977
 30
0.0
 10
134.920120
 20
252.257037
 30
0.0
 10
136.905255
 20
252.257037
 30
0.0
 10
139.812059
 20
251.618977
 30
0.0
  0
LWPOLYLINE
  5
28c
100
AcDbEntity
  8
Ebene_1
 62
3
100
AcDbPolyline
 90
2
 70
0
 10
133.537616
 20
251.299948
 30
0.0
 10
133.856655
 20
251.618977
 30
0.0
  0
SPLINE
  5
28d
100
AcDbEntity
  8
Ebene_1
 62
3
100
AcDbSpline
 70
8
 71
3
 72
8
 73
4
 74
0
 40
0
 40
0
 40
0
 40
0
 40
1
 40
1
 40
1
 40
1
 10
143.853225
 20
250.449201
 30
0.0
 10
141.371807
 20
251.867112
 30
0.0
 10
139.280326
 20
253.462262
 30
0.0
 10
137.578782
 20
255.234650
 30
0.0
  0
SPLINE
  5
28e
100
AcDbEntity
  8
Ebene_1
 62
3
100
AcDbSpline
 70
8
 71
3
 72
8
 73
4
 74
0
 40
0
 40
0
 40
0
 40
0
 40
1
 40
1
 40
1
 40
1
 10
137.578782
 20
255.234650
 30
0.0
 10
136.728011
 20
256.156293
 30
0.0
 10
136.267176
 20
257.042488
 30
0.0
 10
136.196278
 20
257.893234
 30
0.0
  0
LWPOLYLINE
  5
28f
100
AcDbEntity
  8
Ebene_1
 62
3
100
AcDbPolyline
 90
3
 70
0
 10
139.812059
 20
251.618977
 30
0.0
 10
143.959572
 20
250.236514
 30
0.0
 10
143.853225
 20
250.449201
 30
0.0
  0
SPLINE
  5
290
100
AcDbEntity
  8
Ebene_1
 62
3
100
AcDbSpline
 70
8
 71
3
 72
8
 73
4
 74
0
 40
0
 40
0
 40
0
 40
0
 40
1
 40
1
 40
1
 40
1
 10
136.621664
 20
259.594727
 30
0.0
 10
137.543334
 20
260.303683
 30
0.0
 10
138.429554
 20
260.197340
 30
0.0
 10
139.280326
 20
259.275698
 30
0.0
  0
LWPOLYLINE
  5
291
100
AcDbEntity
  8
Ebene_1
 62
3
100
AcDbPolyline
 90
2
 70
0
 10
136.196278
 20
257.893234
 30
0.0
 10
136.621664
 20
259.594727
 30
0.0
  0
SPLINE
  5
292
100
AcDbEntity
  8
Ebene_1
 62
3
100
AcDbSpline
 70
8
 71
3
 72
8
 73
4
 74
0
 40
0
 40
0
 40
0
 40
0
 40
1
 40
1
 40
1
 40
1
 10
138.642247
 20
258.743980
 30
0.0
 10
138.216862
 20
259.311145
 30
0.0
 10
137.791475
 20
259.382040
 30
0.0
 10
137.366089
 20
258.956667
 30
0.0
  0
LWPOLYLINE
  5
293
100
AcDbEntity
  8
Ebene_1
 62
3
100
AcDbPolyline
 90
4
 70
0
 10
139.280326
 20
259.275698
 30
0.0
 10
139.705712
 20
257.467861
 30
0.0
 10
138.854941
 20
257.574205
 30
0.0
 10
138.642247
 20
258.743980
 30
0.0
  0
SPLINE
  5
294
100
AcDbEntity
  8
Ebene_1
 62
3
100
AcDbSpline
 70
8
 71
3
 72
8
 73
4
 74
0
 40
0
 40
0
 40
0
 40
0
 40
1
 40
1
 40
1
 40
1
 10
144.491305
 20
250.980917
 30
0.0
 10
145.696565
 20
251.122709
 30
0.0
 10
147.965290
 20
250.201066
 30
0.0
 10
151.297480
 20
248.215991
 30
0.0
  0
SPLINE
  5
295
100
AcDbEntity
  8
Ebene_1
 62
3
100
AcDbSpline
 70
8
 71
3
 72
8
 73
4
 74
0
 40
0
 40
0
 40
0
 40
0
 40
1
 40
1
 40
1
 40
1
 10
151.297480
 20
248.215991
 30
0.0
 10
154.416977
 20
246.230915
 30
0.0
 10
156.721151
 20
244.458526
 30
0.0
 10
158.210002
 20
242.898824
 30
0.0
  0
SPLINE
  5
296
100
AcDbEntity
  8
Ebene_1
 62
3
100
AcDbSpline
 70
8
 71
3
 72
8
 73
4
 74
0
 40
0
 40
0
 40
0
 40
0
 40
1
 40
1
 40
1
 40
1
 10
158.210002
 20
242.898824
 30
0.0
 10
150.836645
 20
245.592855
 30
0.0
 10
146.263747
 20
247.719721
 30
0.0
 10
144.491305
 20
249.279424
 30
0.0
  0
LWPOLYLINE
  5
297
100
AcDbEntity
  8
Ebene_1
 62
3
100
AcDbPolyline
 90
6
 70
0
 10
137.366089
 20
258.956667
 30
0.0
 10
137.047050
 20
257.999577
 30
0.0
 10
138.216861
 20
255.766368
 30
0.0
 10
141.726296
 20
252.788754
 30
0.0
 10
144.491305
 20
251.087261
 30
0.0
 10
144.491305
 20
250.980917
 30
0.0
  0
SPLINE
  5
298
100
AcDbEntity
  8
Ebene_1
 62
3
100
AcDbSpline
 70
8
 71
3
 72
8
 73
4
 74
0
 40
0
 40
0
 40
0
 40
0
 40
1
 40
1
 40
1
 40
1
 10
139.493019
 20
250.661887
 30
0.0
 10
136.940703
 20
251.370843
 30
0.0
 10
135.239159
 20
251.441738
 30
0.0
 10
134.388388
 20
250.874574
 30
0.0
  0
LWPOLYLINE
  5
299
100
AcDbEntity
  8
Ebene_1
 62
3
100
AcDbPolyline
 90
3
 70
0
 10
144.491305
 20
249.279424
 30
0.0
 10
144.384958
 20
249.173081
 30
0.0
 10
139.493019
 20
250.661887
 30
0.0
  0
SPLINE
  5
29a
100
AcDbEntity
  8
Ebene_1
 62
3
100
AcDbSpline
 70
8
 71
3
 72
8
 73
4
 74
0
 40
0
 40
0
 40
0
 40
0
 40
1
 40
1
 40
1
 40
1
 10
133.963001
 20
249.492111
 30
0.0
 10
134.530183
 20
248.924947
 30
0.0
 10
135.132813
 20
248.924947
 30
0.0
 10
135.770892
 20
249.492111
 30
0.0
  0
LWPOLYLINE
  5
29b
100
AcDbEntity
  8
Ebene_1
 62
3
100
AcDbPolyline
 90
3
 70
0
 10
134.388388
 20
250.874574
 30
0.0
 10
134.069348
 20
250.661887
 30
0.0
 10
133.963001
 20
249.492111
 30
0.0
  0
SPLINE
  5
29c
100
AcDbEntity
  8
Ebene_1
 62
3
100
AcDbSpline
 70
8
 71
3
 72
8
 73
4
 74
0
 40
0
 40
0
 40
0
 40
0
 40
1
 40
1
 40
1
 40
1
 10
136.302625
 20
248.854050
 30
0.0
 10
135.806341
 20
248.428677
 30
0.0
 10
135.274608
 20
248.251438
 30
0.0
 10
134.707427
 20
248.322334
 30
0.0
  0
SPLINE
  5
29d
100
AcDbEntity
  8
Ebene_1
 62
3
100
AcDbSpline
 70
8
 71
3
 72
8
 73
4
 74
0
 40
0
 40
0
 40
0
 40
0
 40
1
 40
1
 40
1
 40
1
 10
134.707427
 20
248.322334
 30
0.0
 10
134.140245
 20
248.393230
 30
0.0
 10
133.679411
 20
248.605916
 30
0.0
 10
133.324923
 20
248.960394
 30
0.0
  0
LWPOLYLINE
  5
29e
100
AcDbEntity
  8
Ebene_1
 62
3
100
AcDbPolyline
 90
4
 70
0
 10
135.770892
 20
249.492111
 30
0.0
 10
135.877238
 20
249.598453
 30
0.0
 10
136.515317
 20
249.066737
 30
0.0
 10
136.302625
 20
248.854050
 30
0.0
  0
LWPOLYLINE
  5
29f
100
AcDbEntity
  8
Ebene_1
 62
3
100
AcDbPolyline
 90
2
 70
0
 10
133.324923
 20
248.960394
 30
0.0
 10
132.899536
 20
250.023827
 30
0.0
  0
LWPOLYLINE
  5
2a0
100
AcDbEntity
  8
Ebene_1
 62
3
100
AcDbPolyline
 90
2
 70
0
 10
132.933880
 20
250.332906
 30
0.0
 10
134.214913
 20
248.433752
 30
0.0
  0
LWPOLYLINE
  5
2a1
100
AcDbEntity
  8
Ebene_1
 62
3
100
AcDbPolyline
 90
2
 70
0
 10
133.984705
 20
249.730847
 30
0.0
 10
133.187737
 20
250.912365
 30
0.0
  0
LWPOLYLINE
  5
2a2
100
AcDbEntity
  8
Ebene_1
 62
3
100
AcDbPolyline
 90
2
 70
0
 10
134.327093
 20
249.223252
 30
0.0
 10
134.937248
 20
248.318686
 30
0.0
  0
LWPOLYLINE
  5
2a3
100
AcDbEntity
  8
Ebene_1
 62
3
100
AcDbPolyline
 90
2
 70
0
 10
134.061279
 20
250.573134
 30
0.0
 10
133.557567
 20
251.319898
 30
0.0
  0
LWPOLYLINE
  5
2a4
100
AcDbEntity
  8
Ebene_1
 62
3
100
AcDbPolyline
 90
2
 70
0
 10
135.060079
 20
249.092397
 30
0.0
 10
135.526451
 20
248.400991
 30
0.0
  0
LWPOLYLINE
  5
2a5
100
AcDbEntity
  8
Ebene_1
 62
3
100
AcDbPolyline
 90
2
 70
0
 10
134.473451
 20
250.917891
 30
0.0
 10
133.965706
 20
251.670631
 30
0.0
  0
LWPOLYLINE
  5
2a6
100
AcDbEntity
  8
Ebene_1
 62
3
100
AcDbPolyline
 90
2
 70
0
 10
135.540322
 20
249.336238
 30
0.0
 10
136.008346
 20
248.642383
 30
0.0
  0
LWPOLYLINE
  5
2a7
100
AcDbEntity
  8
Ebene_1
 62
3
100
AcDbPolyline
 90
2
 70
0
 10
134.980091
 20
251.122599
 30
0.0
 10
134.471124
 20
251.877150
 30
0.0
  0
LWPOLYLINE
  5
2a8
100
AcDbEntity
  8
Ebene_1
 62
3
100
AcDbPolyline
 90
2
 70
0
 10
136.176232
 20
249.349301
 30
0.0
 10
136.426641
 20
248.978064
 30
0.0
  0
LWPOLYLINE
  5
2a9
100
AcDbEntity
  8
Ebene_1
 62
3
100
AcDbPolyline
 90
2
 70
0
 10
135.555524
 20
251.225318
 30
0.0
 10
135.028105
 20
252.007226
 30
0.0
  0
LWPOLYLINE
  5
2aa
100
AcDbEntity
  8
Ebene_1
 62
3
100
AcDbPolyline
 90
2
 70
0
 10
135.626773
 20
252.075499
 30
0.0
 10
136.186207
 20
251.246129
 30
0.0
  0
LWPOLYLINE
  5
2ab
100
AcDbEntity
  8
Ebene_1
 62
3
100
AcDbPolyline
 90
2
 70
0
 10
136.861929
 20
251.200168
 30
0.0
 10
136.259623
 20
252.093097
 30
0.0
  0
LWPOLYLINE
  5
2ac
100
AcDbEntity
  8
Ebene_1
 62
3
100
AcDbPolyline
 90
2
 70
0
 10
136.921292
 20
252.067972
 30
0.0
 10
137.574851
 20
251.099058
 30
0.0
  0
LWPOLYLINE
  5
2ad
100
AcDbEntity
  8
Ebene_1
 62
3
100
AcDbPolyline
 90
2
 70
0
 10
138.330267
 20
250.934949
 30
0.0
 10
137.613535
 20
251.997518
 30
0.0
  0
LWPOLYLINE
  5
2ae
100
AcDbEntity
  8
Ebene_1
 62
3
100
AcDbPolyline
 90
2
 70
0
 10
138.335508
 20
251.882988
 30
0.0
 10
139.096340
 20
250.755044
 30
0.0
  0
LWPOLYLINE
  5
2af
100
AcDbEntity
  8
Ebene_1
 62
3
100
AcDbPolyline
 90
2
 70
0
 10
139.884201
 20
250.542835
 30
0.0
 10
139.068653
 20
251.751901
 30
0.0
  0
LWPOLYLINE
  5
2b0
100
AcDbEntity
  8
Ebene_1
 62
3
100
AcDbPolyline
 90
2
 70
0
 10
139.801795
 20
251.620813
 30
0.0
 10
140.695461
 20
250.295938
 30
0.0
  0
LWPOLYLINE
  5
2b1
100
AcDbEntity
  8
Ebene_1
 62
3
100
AcDbPolyline
 90
2
 70
0
 10
138.800393
 20
254.061217
 30
0.0
 10
136.201500
 20
257.914120
 30
0.0
  0
LWPOLYLINE
  5
2b2
100
AcDbEntity
  8
Ebene_1
 62
3
100
AcDbPolyline
 90
2
 70
0
 10
140.632136
 20
251.345626
 30
0.0
 10
141.506722
 20
250.049040
 30
0.0
  0
LWPOLYLINE
  5
2b3
100
AcDbEntity
  8
Ebene_1
 62
3
100
AcDbPolyline
 90
2
 70
0
 10
137.945467
 20
256.284467
 30
0.0
 10
136.375841
 20
258.611464
 30
0.0
  0
LWPOLYLINE
  5
2b4
100
AcDbEntity
  8
Ebene_1
 62
3
100
AcDbPolyline
 90
2
 70
0
 10
138.399422
 20
255.611472
 30
0.0
 10
140.274638
 20
252.831432
 30
0.0
  0
LWPOLYLINE
  5
2b5
100
AcDbEntity
  8
Ebene_1
 62
3
100
AcDbPolyline
 90
2
 70
0
 10
142.317980
 20
249.802141
 30
0.0
 10
141.463858
 20
251.068394
 30
0.0
  0
LWPOLYLINE
  5
2b6
100
AcDbEntity
  8
Ebene_1
 62
3
100
AcDbPolyline
 90
2
 70
0
 10
136.550183
 20
259.308810
 30
0.0
 10
137.174797
 20
258.382808
 30
0.0
  0
LWPOLYLINE
  5
2b7
100
AcDbEntity
  8
Ebene_1
 62
3
100
AcDbPolyline
 90
2
 70
0
 10
141.531353
 20
251.924140
 30
0.0
 10
139.906870
 20
254.332464
 30
0.0
  0
LWPOLYLINE
  5
2b8
100
AcDbEntity
  8
Ebene_1
 62
3
100
AcDbPolyline
 90
2
 70
0
 10
142.295579
 20
250.791161
 30
0.0
 10
143.129241
 20
249.555244
 30
0.0
  0
LWPOLYLINE
  5
2b9
100
AcDbEntity
  8
Ebene_1
 62
3
100
AcDbPolyline
 90
2
 70
0
 10
137.410984
 20
258.988468
 30
0.0
 10
136.884646
 20
259.768772
 30
0.0
  0
LWPOLYLINE
  5
2ba
100
AcDbEntity
  8
Ebene_1
 62
3
100
AcDbPolyline
 90
2
 70
0
 10
141.414319
 20
253.053454
 30
0.0
 10
142.689485
 20
251.162997
 30
0.0
  0
LWPOLYLINE
  5
2bb
100
AcDbEntity
  8
Ebene_1
 62
3
100
AcDbPolyline
 90
2
 70
0
 10
143.940501
 20
249.308346
 30
0.0
 10
143.127301
 20
250.513930
 30
0.0
  0
LWPOLYLINE
  5
2bc
100
AcDbEntity
  8
Ebene_1
 62
3
100
AcDbPolyline
 90
2
 70
0
 10
137.380171
 20
259.989956
 30
0.0
 10
137.896309
 20
259.224773
 30
0.0
  0
LWPOLYLINE
  5
2bd
100
AcDbEntity
  8
Ebene_1
 62
3
100
AcDbPolyline
 90
2
 70
0
 10
139.023911
 20
257.553084
 30
0.0
 10
138.797843
 20
257.888234
 30
0.0
  0
LWPOLYLINE
  5
2be
100
AcDbEntity
  8
Ebene_1
 62
3
100
AcDbPolyline
 90
2
 70
0
 10
142.600421
 20
252.250847
 30
0.0
 10
143.789188
 20
250.488480
 30
0.0
  0
LWPOLYLINE
  5
2bf
100
AcDbEntity
  8
Ebene_1
 62
3
100
AcDbPolyline
 90
2
 70
0
 10
144.726727
 20
249.098563
 30
0.0
 10
143.959022
 20
250.236698
 30
0.0
  0
LWPOLYLINE
  5
2c0
100
AcDbEntity
  8
Ebene_1
 62
3
100
AcDbPolyline
 90
2
 70
0
 10
137.988339
 20
260.044147
 30
0.0
 10
139.694781
 20
257.514315
 30
0.0
  0
LWPOLYLINE
  5
2c1
100
AcDbEntity
  8
Ebene_1
 62
3
100
AcDbPolyline
 90
2
 70
0
 10
145.937199
 20
248.259826
 30
0.0
 10
143.702662
 20
251.572566
 30
0.0
  0
LWPOLYLINE
  5
2c2
100
AcDbEntity
  8
Ebene_1
 62
3
100
AcDbPolyline
 90
2
 70
0
 10
138.929627
 20
259.604479
 30
0.0
 10
139.349394
 20
258.982167
 30
0.0
  0
LWPOLYLINE
  5
2c3
100
AcDbEntity
  8
Ebene_1
 62
3
100
AcDbPolyline
 90
2
 70
0
 10
146.991729
 20
247.652277
 30
0.0
 10
144.745330
 20
250.982600
 30
0.0
  0
LWPOLYLINE
  5
2c4
100
AcDbEntity
  8
Ebene_1
 62
3
100
AcDbPolyline
 90
2
 70
0
 10
145.436903
 20
250.913141
 30
0.0
 10
147.990028
 20
247.128090
 30
0.0
  0
LWPOLYLINE
  5
2c5
100
AcDbEntity
  8
Ebene_1
 62
3
100
AcDbPolyline
 90
2
 70
0
 10
148.950016
 20
246.660701
 30
0.0
 10
146.215831
 20
250.714177
 30
0.0
  0
LWPOLYLINE
  5
2c6
100
AcDbEntity
  8
Ebene_1
 62
3
100
AcDbPolyline
 90
2
 70
0
 10
147.067971
 20
250.406673
 30
0.0
 10
149.884255
 20
246.231485
 30
0.0
  0
LWPOLYLINE
  5
2c7
100
AcDbEntity
  8
Ebene_1
 62
3
100
AcDbPolyline
 90
2
 70
0
 10
150.806774
 20
245.819642
 30
0.0
 10
147.982081
 20
250.007298
 30
0.0
  0
LWPOLYLINE
  5
2c8
100
AcDbEntity
  8
Ebene_1
 62
3
100
AcDbPolyline
 90
2
 70
0
 10
148.949106
 20
249.529476
 30
0.0
 10
151.711272
 20
245.434518
 30
0.0
  0
LWPOLYLINE
  5
2c9
100
AcDbEntity
  8
Ebene_1
 62
3
100
AcDbPolyline
 90
2
 70
0
 10
152.607522
 20
245.061622
 30
0.0
 10
149.982491
 20
248.953274
 30
0.0
  0
LWPOLYLINE
  5
2ca
100
AcDbEntity
  8
Ebene_1
 62
3
100
AcDbPolyline
 90
2
 70
0
 10
151.019340
 20
248.371937
 30
0.0
 10
153.494647
 20
244.702252
 30
0.0
  0
LWPOLYLINE
  5
2cb
100
AcDbEntity
  8
Ebene_1
 62
3
100
AcDbPolyline
 90
2
 70
0
 10
154.363518
 20
244.369945
 30
0.0
 10
152.150498
 20
247.650785
 30
0.0
  0
LWPOLYLINE
  5
2cc
100
AcDbEntity
  8
Ebene_1
 62
3
100
AcDbPolyline
 90
2
 70
0
 10
153.316228
 20
246.878379
 30
0.0
 10
155.232390
 20
244.037638
 30
0.0
  0
LWPOLYLINE
  5
2cd
100
AcDbEntity
  8
Ebene_1
 62
3
100
AcDbPolyline
 90
2
 70
0
 10
156.101261
 20
243.705331
 30
0.0
 10
154.568295
 20
245.977979
 30
0.0
  0
LWPOLYLINE
  5
2ce
100
AcDbEntity
  8
Ebene_1
 62
3
100
AcDbPolyline
 90
2
 70
0
 10
155.899019
 20
244.960967
 30
0.0
 10
156.970132
 20
243.373024
 30
0.0
  0
SPLINE
  5
2cf
100
AcDbEntity
  8
Ebene_1
 62
3
100
AcDbSpline
 70
8
 71
3
 72
8
 73
4
 74
0
 40
0
 40
0
 40
0
 40
0
 40
1
 40
1
 40
1
 40
1
 10
89.084783
 20
241.197331
 30
0.0
 10
89.084783
 20
241.764495
 30
0.0
 10
89.368373
 20
242.260764
 30
0.0
 10
89.935554
 20
242.686137
 30
0.0
  0
LWPOLYLINE
  5
2d0
100
AcDbEntity
  8
Ebene_1
 62
3
100
AcDbPolyline
 90
2
 70
0
 10
157.839003
 20
243.040715
 30
0.0
 10
157.439478
 20
243.633018
 30
0.0
  0
SPLINE
  5
2d1
100
AcDbEntity
  8
Ebene_1
 62
3
100
AcDbSpline
 70
8
 71
3
 72
8
 73
4
 74
0
 40
0
 40
0
 40
0
 40
0
 40
1
 40
1
 40
1
 40
1
 10
90.360940
 20
242.898824
 30
0.0
 10
91.707995
 20
243.749570
 30
0.0
 10
94.083067
 20
243.678674
 30
0.0
 10
97.486154
 20
242.686137
 30
0.0
  0
LWPOLYLINE
  5
2d2
100
AcDbEntity
  8
Ebene_1
 62
3
100
AcDbPolyline
 90
2
 70
0
 10
89.935554
 20
242.686137
 30
0.0
 10
90.360940
 20
242.898824
 30
0.0
  0
SPLINE
  5
2d3
100
AcDbEntity
  8
Ebene_1
 62
3
100
AcDbSpline
 70
8
 71
3
 72
8
 73
4
 74
0
 40
0
 40
0
 40
0
 40
0
 40
1
 40
1
 40
1
 40
1
 10
102.378094
 20
241.090987
 30
0.0
 10
99.329494
 20
243.076063
 30
0.0
 10
96.883525
 20
245.096586
 30
0.0
 10
95.040185
 20
247.152557
 30
0.0
  0
SPLINE
  5
2d4
100
AcDbEntity
  8
Ebene_1
 62
3
100
AcDbSpline
 70
8
 71
3
 72
8
 73
4
 74
0
 40
0
 40
0
 40
0
 40
0
 40
1
 40
1
 40
1
 40
1
 10
95.040185
 20
247.152557
 30
0.0
 10
93.976721
 20
248.428677
 30
0.0
 10
93.409540
 20
249.563006
 30
0.0
 10
93.338642
 20
250.555543
 30
0.0
  0
SPLINE
  5
2d5
100
AcDbEntity
  8
Ebene_1
 62
3
100
AcDbSpline
 70
8
 71
3
 72
8
 73
4
 74
0
 40
0
 40
0
 40
0
 40
0
 40
1
 40
1
 40
1
 40
1
 10
93.338642
 20
250.555543
 30
0.0
 10
93.338642
 20
251.406290
 30
0.0
 10
93.586784
 20
252.079798
 30
0.0
 10
94.083067
 20
252.576067
 30
0.0
  0
SPLINE
  5
2d6
100
AcDbEntity
  8
Ebene_1
 62
3
100
AcDbSpline
 70
8
 71
3
 72
8
 73
4
 74
0
 40
0
 40
0
 40
0
 40
0
 40
1
 40
1
 40
1
 40
1
 10
94.083067
 20
252.576067
 30
0.0
 10
94.508453
 20
252.930545
 30
0.0
 10
95.040185
 20
253.036889
 30
0.0
 10
95.678264
 20
252.895098
 30
0.0
  0
LWPOLYLINE
  5
2d7
100
AcDbEntity
  8
Ebene_1
 62
3
100
AcDbPolyline
 90
3
 70
0
 10
97.486154
 20
242.686137
 30
0.0
 10
102.378094
 20
240.878300
 30
0.0
 10
102.378094
 20
241.090987
 30
0.0
  0
SPLINE
  5
2d8
100
AcDbEntity
  8
Ebene_1
 62
3
100
AcDbSpline
 70
8
 71
3
 72
8
 73
4
 74
0
 40
0
 40
0
 40
0
 40
0
 40
1
 40
1
 40
1
 40
1
 10
97.167116
 20
252.044351
 30
0.0
 10
97.734297
 20
251.406291
 30
0.0
 10
97.911541
 20
250.661887
 30
0.0
 10
97.698848
 20
249.811140
 30
0.0
  0
LWPOLYLINE
  5
2d9
100
AcDbEntity
  8
Ebene_1
 62
3
100
AcDbPolyline
 90
2
 70
0
 10
95.678264
 20
252.895098
 30
0.0
 10
97.167116
 20
252.044351
 30
0.0
  0
SPLINE
  5
2da
100
AcDbEntity
  8
Ebene_1
 62
3
100
AcDbSpline
 70
8
 71
3
 72
8
 73
4
 74
0
 40
0
 40
0
 40
0
 40
0
 40
1
 40
1
 40
1
 40
1
 10
94.402107
 20
250.555543
 30
0.0
 10
94.473005
 20
249.704797
 30
0.0
 10
94.969288
 20
248.783155
 30
0.0
 10
95.890957
 20
247.790616
 30
0.0
  0
LWPOLYLINE
  5
2db
100
AcDbEntity
  8
Ebene_1
 62
3
100
AcDbPolyline
 90
6
 70
0
 10
97.698848
 20
249.811140
 30
0.0
 10
96.635383
 20
249.917484
 30
0.0
 10
96.422689
 20
251.406290
 30
0.0
 10
95.571917
 20
251.938008
 30
0.0
 10
94.721145
 20
251.725320
 30
0.0
 10
94.402107
 20
250.555543
 30
0.0
  0
SPLINE
  5
2dc
100
AcDbEntity
  8
Ebene_1
 62
3
100
AcDbSpline
 70
8
 71
3
 72
8
 73
4
 74
0
 40
0
 40
0
 40
0
 40
0
 40
1
 40
1
 40
1
 40
1
 10
103.228865
 20
241.835390
 30
0.0
 10
104.646819
 20
241.906286
 30
0.0
 10
107.305481
 20
240.665614
 30
0.0
 10
111.204852
 20
238.113373
 30
0.0
  0
SPLINE
  5
2dd
100
AcDbEntity
  8
Ebene_1
 62
3
100
AcDbSpline
 70
8
 71
3
 72
8
 73
4
 74
0
 40
0
 40
0
 40
0
 40
0
 40
1
 40
1
 40
1
 40
1
 10
111.204852
 20
238.113373
 30
0.0
 10
115.033326
 20
235.632029
 30
0.0
 10
117.762886
 20
233.363371
 30
0.0
 10
119.393532
 20
231.307400
 30
0.0
  0
SPLINE
  5
2de
100
AcDbEntity
  8
Ebene_1
 62
3
100
AcDbSpline
 70
8
 71
3
 72
8
 73
4
 74
0
 40
0
 40
0
 40
0
 40
0
 40
1
 40
1
 40
1
 40
1
 10
119.393532
 20
231.307400
 30
0.0
 10
110.460427
 20
234.993969
 30
0.0
 10
105.036756
 20
237.829791
 30
0.0
 10
103.122519
 20
239.814866
 30
0.0
  0
LWPOLYLINE
  5
2df
100
AcDbEntity
  8
Ebene_1
 62
3
100
AcDbPolyline
 90
3
 70
0
 10
95.890957
 20
247.790616
 30
0.0
 10
99.932125
 20
244.174943
 30
0.0
 10
103.228865
 20
241.835390
 30
0.0
  0
SPLINE
  5
2e0
100
AcDbEntity
  8
Ebene_1
 62
3
100
AcDbSpline
 70
8
 71
3
 72
8
 73
4
 74
0
 40
0
 40
0
 40
0
 40
0
 40
1
 40
1
 40
1
 40
1
 10
97.273463
 20
241.729047
 30
0.0
 10
94.012170
 20
242.508898
 30
0.0
 10
91.920688
 20
242.650689
 30
0.0
 10
90.999018
 20
242.154421
 30
0.0
  0
LWPOLYLINE
  5
2e1
100
AcDbEntity
  8
Ebene_1
 62
3
100
AcDbPolyline
 90
3
 70
0
 10
103.122519
 20
239.814866
 30
0.0
 10
103.016172
 20
239.495837
 30
0.0
 10
97.273463
 20
241.729047
 30
0.0
  0
SPLINE
  5
2e2
100
AcDbEntity
  8
Ebene_1
 62
3
100
AcDbSpline
 70
8
 71
3
 72
8
 73
4
 74
0
 40
0
 40
0
 40
0
 40
0
 40
1
 40
1
 40
1
 40
1
 10
91.318058
 20
240.027553
 30
0.0
 10
91.743444
 20
239.956658
 30
0.0
 10
92.133381
 20
240.063001
 30
0.0
 10
92.487870
 20
240.346584
 30
0.0
  0
LWPOLYLINE
  5
2e3
100
AcDbEntity
  8
Ebene_1
 62
3
100
AcDbPolyline
 90
4
 70
0
 10
90.999018
 20
242.154421
 30
0.0
 10
90.573633
 20
241.835390
 30
0.0
 10
90.360940
 20
240.452928
 30
0.0
 10
91.318058
 20
240.027553
 30
0.0
  0
SPLINE
  5
2e4
100
AcDbEntity
  8
Ebene_1
 62
3
100
AcDbSpline
 70
8
 71
3
 72
8
 73
4
 74
0
 40
0
 40
0
 40
0
 40
0
 40
1
 40
1
 40
1
 40
1
 10
93.125948
 20
239.495837
 30
0.0
 10
92.629665
 20
238.999568
 30
0.0
 10
91.991586
 20
238.822328
 30
0.0
 10
91.211711
 20
238.964120
 30
0.0
  0
SPLINE
  5
2e5
100
AcDbEntity
  8
Ebene_1
 62
3
100
AcDbSpline
 70
8
 71
3
 72
8
 73
4
 74
0
 40
0
 40
0
 40
0
 40
0
 40
1
 40
1
 40
1
 40
1
 10
91.211711
 20
238.964120
 30
0.0
 10
90.502735
 20
239.035016
 30
0.0
 10
89.971002
 20
239.318598
 30
0.0
 10
89.616514
 20
239.814866
 30
0.0
  0
LWPOLYLINE
  5
2e6
100
AcDbEntity
  8
Ebene_1
 62
3
100
AcDbPolyline
 90
4
 70
0
 10
92.487870
 20
240.346584
 30
0.0
 10
92.700563
 20
240.559270
 30
0.0
 10
93.338642
 20
239.814866
 30
0.0
 10
93.125948
 20
239.495837
 30
0.0
  0
LWPOLYLINE
  5
2e7
100
AcDbEntity
  8
Ebene_1
 62
3
100
AcDbPolyline
 90
2
 70
0
 10
89.616514
 20
239.814866
 30
0.0
 10
89.084783
 20
241.197331
 30
0.0
  0
LWPOLYLINE
  5
2e8
100
AcDbEntity
  8
Ebene_1
 62
3
100
AcDbPolyline
 90
2
 70
0
 10
89.452147
 20
240.242209
 30
0.0
 10
90.007284
 20
239.419210
 30
0.0
  0
LWPOLYLINE
  5
2e9
100
AcDbEntity
  8
Ebene_1
 62
3
100
AcDbPolyline
 90
2
 70
0
 10
90.922570
 20
239.018092
 30
0.0
 10
89.151908
 20
241.643128
 30
0.0
  0
LWPOLYLINE
  5
2ea
100
AcDbEntity
  8
Ebene_1
 62
3
100
AcDbPolyline
 90
2
 70
0
 10
89.434538
 20
242.179934
 30
0.0
 10
90.405237
 20
240.740854
 30
0.0
  0
LWPOLYLINE
  5
2eb
100
AcDbEntity
  8
Ebene_1
 62
3
100
AcDbPolyline
 90
2
 70
0
 10
91.627042
 20
238.929510
 30
0.0
 10
90.701567
 20
240.301543
 30
0.0
  0
LWPOLYLINE
  5
2ec
100
AcDbEntity
  8
Ebene_1
 62
3
100
AcDbPolyline
 90
2
 70
0
 10
89.812137
 20
242.575947
 30
0.0
 10
90.524978
 20
241.519147
 30
0.0
  0
LWPOLYLINE
  5
2ed
100
AcDbEntity
  8
Ebene_1
 62
3
100
AcDbPolyline
 90
2
 70
0
 10
92.234459
 20
238.984812
 30
0.0
 10
91.540685
 20
240.013344
 30
0.0
  0
LWPOLYLINE
  5
2ee
100
AcDbEntity
  8
Ebene_1
 62
3
100
AcDbPolyline
 90
2
 70
0
 10
90.269803
 20
242.853257
 30
0.0
 10
90.827803
 20
242.026012
 30
0.0
  0
LWPOLYLINE
  5
2ef
100
AcDbEntity
  8
Ebene_1
 62
3
100
AcDbPolyline
 90
2
 70
0
 10
92.738954
 20
239.192699
 30
0.0
 10
92.109817
 20
240.125405
 30
0.0
  0
LWPOLYLINE
  5
2f0
100
AcDbEntity
  8
Ebene_1
 62
3
100
AcDbPolyline
 90
2
 70
0
 10
90.752222
 20
243.093871
 30
0.0
 10
91.305323
 20
242.273890
 30
0.0
  0
LWPOLYLINE
  5
2f1
100
AcDbEntity
  8
Ebene_1
 62
3
100
AcDbPolyline
 90
2
 70
0
 10
93.152418
 20
239.535540
 30
0.0
 10
92.558025
 20
240.416737
 30
0.0
  0
LWPOLYLINE
  5
2f2
100
AcDbEntity
  8
Ebene_1
 62
3
100
AcDbPolyline
 90
2
 70
0
 10
91.272087
 20
243.278973
 30
0.0
 10
91.865843
 20
242.398717
 30
0.0
  0
LWPOLYLINE
  5
2f3
100
AcDbEntity
  8
Ebene_1
 62
3
100
AcDbPolyline
 90
2
 70
0
 10
92.482207
 20
242.440758
 30
0.0
 10
91.834231
 20
243.401391
 30
0.0
  0
LWPOLYLINE
  5
2f4
100
AcDbEntity
  8
Ebene_1
 62
3
100
AcDbPolyline
 90
2
 70
0
 10
92.432998
 20
243.469520
 30
0.0
 10
93.138144
 20
242.424129
 30
0.0
  0
LWPOLYLINE
  5
2f5
100
AcDbEntity
  8
Ebene_1
 62
3
100
AcDbPolyline
 90
2
 70
0
 10
93.834538
 20
242.347521
 30
0.0
 10
93.069254
 20
243.482069
 30
0.0
  0
LWPOLYLINE
  5
2f6
100
AcDbEntity
  8
Ebene_1
 62
3
100
AcDbPolyline
 90
2
 70
0
 10
93.742444
 20
243.439861
 30
0.0
 10
94.539346
 20
242.258440
 30
0.0
  0
LWPOLYLINE
  5
2f7
100
AcDbEntity
  8
Ebene_1
 62
3
100
AcDbPolyline
 90
2
 70
0
 10
95.256946
 20
242.150395
 30
0.0
 10
94.440156
 20
243.361300
 30
0.0
  0
LWPOLYLINE
  5
2f8
100
AcDbEntity
  8
Ebene_1
 62
3
100
AcDbPolyline
 90
2
 70
0
 10
95.159494
 20
243.250678
 30
0.0
 10
96.007443
 20
241.993580
 30
0.0
  0
LWPOLYLINE
  5
2f9
100
AcDbEntity
  8
Ebene_1
 62
3
100
AcDbPolyline
 90
2
 70
0
 10
96.757940
 20
241.836765
 30
0.0
 10
95.913208
 20
243.089093
 30
0.0
  0
LWPOLYLINE
  5
2fa
100
AcDbEntity
  8
Ebene_1
 62
3
100
AcDbPolyline
 90
2
 70
0
 10
96.684938
 20
242.900800
 30
0.0
 10
97.547096
 20
241.622638
 30
0.0
  0
LWPOLYLINE
  5
2fb
100
AcDbEntity
  8
Ebene_1
 62
3
100
AcDbPolyline
 90
2
 70
0
 10
98.421067
 20
241.282770
 30
0.0
 10
97.471874
 20
242.689962
 30
0.0
  0
LWPOLYLINE
  5
2fc
100
AcDbEntity
  8
Ebene_1
 62
3
100
AcDbPolyline
 90
2
 70
0
 10
93.713439
 20
249.217716
 30
0.0
 10
95.255669
 20
246.931333
 30
0.0
  0
LWPOLYLINE
  5
2fd
100
AcDbEntity
  8
Ebene_1
 62
3
100
AcDbPolyline
 90
2
 70
0
 10
99.295037
 20
240.942902
 30
0.0
 10
98.329367
 20
242.374523
 30
0.0
  0
LWPOLYLINE
  5
2fe
100
AcDbEntity
  8
Ebene_1
 62
3
100
AcDbPolyline
 90
2
 70
0
 10
93.350631
 20
250.711395
 30
0.0
 10
97.157828
 20
245.067159
 30
0.0
  0
LWPOLYLINE
  5
2ff
100
AcDbEntity
  8
Ebene_1
 62
3
100
AcDbPolyline
 90
2
 70
0
 10
100.169008
 20
240.603034
 30
0.0
 10
99.188164
 20
242.057151
 30
0.0
  0
LWPOLYLINE
  5
300
100
AcDbEntity
  8
Ebene_1
 62
3
100
AcDbPolyline
 90
2
 70
0
 10
93.470499
 20
251.489496
 30
0.0
 10
94.532961
 20
249.914379
 30
0.0
  0
LWPOLYLINE
  5
301
100
AcDbEntity
  8
Ebene_1
 62
3
100
AcDbPolyline
 90
2
 70
0
 10
98.678183
 20
243.769016
 30
0.0
 10
96.078961
 20
247.622407
 30
0.0
  0
LWPOLYLINE
  5
302
100
AcDbEntity
  8
Ebene_1
 62
3
100
AcDbPolyline
 90
2
 70
0
 10
100.046961
 20
241.739781
 30
0.0
 10
101.042978
 20
240.263168
 30
0.0
  0
LWPOLYLINE
  5
303
100
AcDbEntity
  8
Ebene_1
 62
3
100
AcDbPolyline
 90
2
 70
0
 10
94.500890
 20
250.917736
 30
0.0
 10
93.714478
 20
252.083603
 30
0.0
  0
LWPOLYLINE
  5
304
100
AcDbEntity
  8
Ebene_1
 62
3
100
AcDbPolyline
 90
2
 70
0
 10
97.705020
 20
246.167556
 30
0.0
 10
100.028585
 20
242.722831
 30
0.0
  0
LWPOLYLINE
  5
305
100
AcDbEntity
  8
Ebene_1
 62
3
100
AcDbPolyline
 90
2
 70
0
 10
101.916949
 20
239.923301
 30
0.0
 10
100.905758
 20
241.422408
 30
0.0
  0
LWPOLYLINE
  5
306
100
AcDbEntity
  8
Ebene_1
 62
3
100
AcDbPolyline
 90
2
 70
0
 10
94.052601
 20
252.538140
 30
0.0
 10
94.686516
 20
251.598349
 30
0.0
  0
LWPOLYLINE
  5
307
100
AcDbEntity
  8
Ebene_1
 62
3
100
AcDbPolyline
 90
2
 70
0
 10
101.250878
 20
241.866572
 30
0.0
 10
99.331081
 20
244.712703
 30
0.0
  0
LWPOLYLINE
  5
308
100
AcDbEntity
  8
Ebene_1
 62
3
100
AcDbPolyline
 90
2
 70
0
 10
101.764555
 20
241.105036
 30
0.0
 10
102.790920
 20
239.583433
 30
0.0
  0
LWPOLYLINE
  5
309
100
AcDbEntity
  8
Ebene_1
 62
3
100
AcDbPolyline
 90
2
 70
0
 10
95.169916
 20
251.837510
 30
0.0
 10
94.505114
 20
252.823089
 30
0.0
  0
LWPOLYLINE
  5
30a
100
AcDbEntity
  8
Ebene_1
 62
3
100
AcDbPolyline
 90
2
 70
0
 10
100.711711
 20
243.621706
 30
0.0
 10
103.514623
 20
239.466340
 30
0.0
  0
LWPOLYLINE
  5
30b
100
AcDbEntity
  8
Ebene_1
 62
3
100
AcDbPolyline
 90
2
 70
0
 10
95.874339
 20
251.749000
 30
0.0
 10
95.068980
 20
252.942958
 30
0.0
  0
LWPOLYLINE
  5
30c
100
AcDbEntity
  8
Ebene_1
 62
3
100
AcDbPolyline
 90
2
 70
0
 10
96.507919
 20
250.809708
 30
0.0
 10
97.144059
 20
249.866618
 30
0.0
  0
LWPOLYLINE
  5
30d
100
AcDbEntity
  8
Ebene_1
 62
3
100
AcDbPolyline
 90
2
 70
0
 10
104.869070
 20
238.414158
 30
0.0
 10
101.948426
 20
242.744062
 30
0.0
  0
LWPOLYLINE
  5
30e
100
AcDbEntity
  8
Ebene_1
 62
3
100
AcDbPolyline
 90
2
 70
0
 10
95.788454
 20
252.832134
 30
0.0
 10
97.720710
 20
249.967533
 30
0.0
  0
LWPOLYLINE
  5
30f
100
AcDbEntity
  8
Ebene_1
 62
3
100
AcDbPolyline
 90
2
 70
0
 10
106.008086
 20
237.681358
 30
0.0
 10
103.185142
 20
241.866419
 30
0.0
  0
LWPOLYLINE
  5
310
100
AcDbEntity
  8
Ebene_1
 62
3
100
AcDbPolyline
 90
2
 70
0
 10
96.837519
 20
252.232686
 30
0.0
 10
97.736574
 20
250.899821
 30
0.0
  0
LWPOLYLINE
  5
311
100
AcDbEntity
  8
Ebene_1
 62
3
100
AcDbPolyline
 90
2
 70
0
 10
107.082539
 20
237.044271
 30
0.0
 10
103.884196
 20
241.785870
 30
0.0
  0
LWPOLYLINE
  5
312
100
AcDbEntity
  8
Ebene_1
 62
3
100
AcDbPolyline
 90
2
 70
0
 10
104.655613
 20
241.598039
 30
0.0
 10
108.104819
 20
236.484533
 30
0.0
  0
LWPOLYLINE
  5
313
100
AcDbEntity
  8
Ebene_1
 62
3
100
AcDbPolyline
 90
2
 70
0
 10
109.103762
 20
235.959391
 30
0.0
 10
105.505502
 20
241.293872
 30
0.0
  0
LWPOLYLINE
  5
314
100
AcDbEntity
  8
Ebene_1
 62
3
100
AcDbPolyline
 90
2
 70
0
 10
106.422637
 20
240.890011
 30
0.0
 10
110.078438
 20
235.470226
 30
0.0
  0
LWPOLYLINE
  5
315
100
AcDbEntity
  8
Ebene_1
 62
3
100
AcDbPolyline
 90
2
 70
0
 10
111.045497
 20
234.992353
 30
0.0
 10
107.397836
 20
240.400073
 30
0.0
  0
LWPOLYLINE
  5
316
100
AcDbEntity
  8
Ebene_1
 62
3
100
AcDbPolyline
 90
2
 70
0
 10
108.427887
 20
239.828813
 30
0.0
 10
111.987721
 20
234.551299
 30
0.0
  0
LWPOLYLINE
  5
317
100
AcDbEntity
  8
Ebene_1
 62
3
100
AcDbPolyline
 90
2
 70
0
 10
112.929946
 20
234.110245
 30
0.0
 10
109.529286
 20
239.151779
 30
0.0
  0
LWPOLYLINE
  5
318
100
AcDbEntity
  8
Ebene_1
 62
3
100
AcDbPolyline
 90
2
 70
0
 10
110.637109
 20
238.465224
 30
0.0
 10
113.859166
 20
233.688469
 30
0.0
  0
LWPOLYLINE
  5
319
100
AcDbEntity
  8
Ebene_1
 62
3
100
AcDbPolyline
 90
2
 70
0
 10
114.777848
 20
233.282315
 30
0.0
 10
111.787865
 20
237.715018
 30
0.0
  0
LWPOLYLINE
  5
31a
100
AcDbEntity
  8
Ebene_1
 62
3
100
AcDbPolyline
 90
2
 70
0
 10
112.983754
 20
236.897901
 30
0.0
 10
115.696532
 20
232.876160
 30
0.0
  0
LWPOLYLINE
  5
31b
100
AcDbEntity
  8
Ebene_1
 62
3
100
AcDbPolyline
 90
2
 70
0
 10
116.607300
 20
232.481739
 30
0.0
 10
114.206691
 20
236.040684
 30
0.0
  0
LWPOLYLINE
  5
31c
100
AcDbEntity
  8
Ebene_1
 62
3
100
AcDbPolyline
 90
2
 70
0
 10
115.542815
 20
235.015667
 30
0.0
 10
117.508126
 20
232.102060
 30
0.0
  0
LWPOLYLINE
  5
31d
100
AcDbEntity
  8
Ebene_1
 62
3
100
AcDbPolyline
 90
2
 70
0
 10
118.408951
 20
231.722381
 30
0.0
 10
117.029989
 20
233.766715
 30
0.0
  0
SPLINE
  5
31e
100
AcDbEntity
  8
Ebene_1
 62
3
100
AcDbSpline
 70
8
 71
3
 72
8
 73
4
 74
0
 40
0
 40
0
 40
0
 40
0
 40
1
 40
1
 40
1
 40
1
 10
128.752024
 20
199.298055
 30
0.0
 10
127.121378
 20
199.014473
 30
0.0
 10
125.987015
 20
199.014473
 30
0.0
 10
125.348936
 20
199.298055
 30
0.0
  0
LWPOLYLINE
  5
31f
100
AcDbEntity
  8
Ebene_1
 62
3
100
AcDbPolyline
 90
2
 70
0
 10
119.101782
 20
231.651055
 30
0.0
 10
119.309775
 20
231.342702
 30
0.0
  0
SPLINE
  5
320
100
AcDbEntity
  8
Ebene_1
 62
3
100
AcDbSpline
 70
8
 71
3
 72
8
 73
4
 74
0
 40
0
 40
0
 40
0
 40
0
 40
1
 40
1
 40
1
 40
1
 10
125.455283
 20
203.126416
 30
0.0
 10
126.306054
 20
203.409998
 30
0.0
 10
127.015031
 20
203.268206
 30
0.0
 10
127.582212
 20
202.701042
 30
0.0
  0
LWPOLYLINE
  5
321
100
AcDbEntity
  8
Ebene_1
 62
3
100
AcDbPolyline
 90
4
 70
0
 10
125.348936
 20
199.298055
 30
0.0
 10
123.860084
 20
200.786862
 30
0.0
 10
124.072778
 20
202.169326
 30
0.0
 10
125.455283
 20
203.126416
 30
0.0
  0
SPLINE
  5
322
100
AcDbEntity
  8
Ebene_1
 62
3
100
AcDbSpline
 70
8
 71
3
 72
8
 73
4
 74
0
 40
0
 40
0
 40
0
 40
0
 40
1
 40
1
 40
1
 40
1
 10
127.050480
 20
201.956639
 30
0.0
 10
126.695991
 20
202.240220
 30
0.0
 10
126.235156
 20
202.311116
 30
0.0
 10
125.667975
 20
202.169326
 30
0.0
  0
SPLINE
  5
323
100
AcDbEntity
  8
Ebene_1
 62
3
100
AcDbSpline
 70
8
 71
3
 72
8
 73
4
 74
0
 40
0
 40
0
 40
0
 40
0
 40
1
 40
1
 40
1
 40
1
 10
125.667975
 20
202.169326
 30
0.0
 10
124.958998
 20
201.956639
 30
0.0
 10
124.639959
 20
201.566713
 30
0.0
 10
124.710856
 20
200.999549
 30
0.0
  0
LWPOLYLINE
  5
324
100
AcDbEntity
  8
Ebene_1
 62
3
100
AcDbPolyline
 90
2
 70
0
 10
127.582212
 20
202.701042
 30
0.0
 10
127.050480
 20
201.956639
 30
0.0
  0
SPLINE
  5
325
100
AcDbEntity
  8
Ebene_1
 62
3
100
AcDbSpline
 70
8
 71
3
 72
8
 73
4
 74
0
 40
0
 40
0
 40
0
 40
0
 40
1
 40
1
 40
1
 40
1
 10
128.539330
 20
200.255145
 30
0.0
 10
131.020749
 20
200.964101
 30
0.0
 10
133.714860
 20
202.311117
 30
0.0
 10
136.621664
 20
204.296191
 30
0.0
  0
LWPOLYLINE
  5
326
100
AcDbEntity
  8
Ebene_1
 62
3
100
AcDbPolyline
 90
3
 70
0
 10
124.710856
 20
200.999549
 30
0.0
 10
125.667975
 20
200.148802
 30
0.0
 10
128.539330
 20
200.255145
 30
0.0
  0
SPLINE
  5
327
100
AcDbEntity
  8
Ebene_1
 62
3
100
AcDbSpline
 70
8
 71
3
 72
8
 73
4
 74
0
 40
0
 40
0
 40
0
 40
0
 40
1
 40
1
 40
1
 40
1
 10
136.621664
 20
204.189848
 30
0.0
 10
137.117947
 20
205.395072
 30
0.0
 10
139.244877
 20
207.167462
 30
0.0
 10
143.002453
 20
209.507016
 30
0.0
  0
SPLINE
  5
328
100
AcDbEntity
  8
Ebene_1
 62
3
100
AcDbSpline
 70
8
 71
3
 72
8
 73
4
 74
0
 40
0
 40
0
 40
0
 40
0
 40
1
 40
1
 40
1
 40
1
 10
143.002453
 20
209.507016
 30
0.0
 10
146.689132
 20
211.704778
 30
0.0
 10
149.737731
 20
213.158137
 30
0.0
 10
152.148252
 20
213.867093
 30
0.0
  0
SPLINE
  5
329
100
AcDbEntity
  8
Ebene_1
 62
3
100
AcDbSpline
 70
8
 71
3
 72
8
 73
4
 74
0
 40
0
 40
0
 40
0
 40
0
 40
1
 40
1
 40
1
 40
1
 10
152.148252
 20
213.867093
 30
0.0
 10
145.625667
 20
207.770075
 30
0.0
 10
141.017319
 20
204.260744
 30
0.0
 10
138.323207
 20
203.339101
 30
0.0
  0
LWPOLYLINE
  5
32a
100
AcDbEntity
  8
Ebene_1
 62
3
100
AcDbPolyline
 90
2
 70
0
 10
136.621664
 20
204.296191
 30
0.0
 10
136.621664
 20
204.189848
 30
0.0
  0
SPLINE
  5
32b
100
AcDbEntity
  8
Ebene_1
 62
3
100
AcDbSpline
 70
8
 71
3
 72
8
 73
4
 74
0
 40
0
 40
0
 40
0
 40
0
 40
1
 40
1
 40
1
 40
1
 10
134.388388
 20
198.979025
 30
0.0
 10
132.261458
 20
196.639471
 30
0.0
 10
131.304339
 20
194.902530
 30
0.0
 10
131.517033
 20
193.768202
 30
0.0
  0
LWPOLYLINE
  5
32c
100
AcDbEntity
  8
Ebene_1
 62
3
100
AcDbPolyline
 90
3
 70
0
 10
138.323207
 20
203.339101
 30
0.0
 10
138.535901
 20
203.126416
 30
0.0
 10
134.388388
 20
198.979025
 30
0.0
  0
SPLINE
  5
32d
100
AcDbEntity
  8
Ebene_1
 62
3
100
AcDbSpline
 70
8
 71
3
 72
8
 73
4
 74
0
 40
0
 40
0
 40
0
 40
0
 40
1
 40
1
 40
1
 40
1
 10
131.623379
 20
193.449171
 30
0.0
 10
131.694277
 20
192.811111
 30
0.0
 10
132.048765
 20
192.562977
 30
0.0
 10
132.686844
 20
192.704768
 30
0.0
  0
LWPOLYLINE
  5
32e
100
AcDbEntity
  8
Ebene_1
 62
3
100
AcDbPolyline
 90
2
 70
0
 10
131.517033
 20
193.768202
 30
0.0
 10
131.623379
 20
193.449171
 30
0.0
  0
SPLINE
  5
32f
100
AcDbEntity
  8
Ebene_1
 62
3
100
AcDbSpline
 70
8
 71
3
 72
8
 73
4
 74
0
 40
0
 40
0
 40
0
 40
0
 40
1
 40
1
 40
1
 40
1
 10
130.453567
 20
193.768202
 30
0.0
 10
130.382670
 20
195.115217
 30
0.0
 10
131.446135
 20
197.064845
 30
0.0
 10
133.643963
 20
199.617084
 30
0.0
  0
LWPOLYLINE
  5
330
100
AcDbEntity
  8
Ebene_1
 62
3
100
AcDbPolyline
 90
11
 70
0
 10
132.686844
 20
192.704768
 30
0.0
 10
133.431270
 20
193.236484
 30
0.0
 10
133.643963
 20
194.406261
 30
0.0
 10
133.537616
 20
194.618948
 30
0.0
 10
134.494735
 20
195.044321
 30
0.0
 10
134.494735
 20
194.725292
 30
0.0
 10
134.282041
 20
192.811112
 30
0.0
 10
132.899536
 20
191.641334
 30
0.0
 10
131.517033
 20
191.854021
 30
0.0
 10
130.559914
 20
193.130142
 30
0.0
 10
130.453567
 20
193.768202
 30
0.0
  0
SPLINE
  5
331
100
AcDbEntity
  8
Ebene_1
 62
3
100
AcDbSpline
 70
8
 71
3
 72
8
 73
4
 74
0
 40
0
 40
0
 40
0
 40
0
 40
1
 40
1
 40
1
 40
1
 10
136.940704
 20
203.232758
 30
0.0
 10
134.104797
 20
201.318579
 30
0.0
 10
131.375238
 20
200.007011
 30
0.0
 10
128.752024
 20
199.298055
 30
0.0
  0
LWPOLYLINE
  5
332
100
AcDbEntity
  8
Ebene_1
 62
3
100
AcDbPolyline
 90
3
 70
0
 10
133.643963
 20
199.617084
 30
0.0
 10
137.047050
 20
203.232758
 30
0.0
 10
136.940704
 20
203.232758
 30
0.0
  0
LWPOLYLINE
  5
333
100
AcDbEntity
  8
Ebene_1
 62
3
100
AcDbPolyline
 90
2
 70
0
 10
123.969140
 20
201.495699
 30
0.0
 10
125.475299
 20
199.262792
 30
0.0
  0
LWPOLYLINE
  5
334
100
AcDbEntity
  8
Ebene_1
 62
3
100
AcDbPolyline
 90
2
 70
0
 10
124.727517
 20
201.327201
 30
0.0
 10
124.131881
 20
202.210243
 30
0.0
  0
LWPOLYLINE
  5
335
100
AcDbEntity
  8
Ebene_1
 62
3
100
AcDbPolyline
 90
2
 70
0
 10
125.304387
 20
200.471982
 30
0.0
 10
126.217906
 20
199.117674
 30
0.0
  0
LWPOLYLINE
  5
336
100
AcDbEntity
  8
Ebene_1
 62
3
100
AcDbPolyline
 90
2
 70
0
 10
125.032949
 20
201.830202
 30
0.0
 10
124.571372
 20
202.514497
 30
0.0
  0
LWPOLYLINE
  5
337
100
AcDbEntity
  8
Ebene_1
 62
3
100
AcDbPolyline
 90
2
 70
0
 10
126.154936
 20
200.166837
 30
0.0
 10
126.876871
 20
199.096557
 30
0.0
  0
LWPOLYLINE
  5
338
100
AcDbEntity
  8
Ebene_1
 62
3
100
AcDbPolyline
 90
2
 70
0
 10
131.790550
 20
191.811942
 30
0.0
 10
130.454766
 20
193.792264
 30
0.0
  0
LWPOLYLINE
  5
339
100
AcDbEntity
  8
Ebene_1
 62
3
100
AcDbPolyline
 90
2
 70
0
 10
125.010865
 20
202.818751
 30
0.0
 10
125.497304
 20
202.097597
 30
0.0
  0
LWPOLYLINE
  5
33a
100
AcDbEntity
  8
Ebene_1
 62
3
100
AcDbPolyline
 90
2
 70
0
 10
127.497987
 20
199.131549
 30
0.0
 10
126.783943
 20
200.190133
 30
0.0
  0
LWPOLYLINE
  5
33b
100
AcDbEntity
  8
Ebene_1
 62
3
100
AcDbPolyline
 90
2
 70
0
 10
130.549220
 20
194.608046
 30
0.0
 10
132.509920
 20
191.701274
 30
0.0
  0
LWPOLYLINE
  5
33c
100
AcDbEntity
  8
Ebene_1
 62
3
100
AcDbPolyline
 90
2
 70
0
 10
126.051260
 20
202.232156
 30
0.0
 10
125.450356
 20
203.123006
 30
0.0
  0
LWPOLYLINE
  5
33d
100
AcDbEntity
  8
Ebene_1
 62
3
100
AcDbPolyline
 90
2
 70
0
 10
127.412949
 20
200.213428
 30
0.0
 10
128.093136
 20
199.205039
 30
0.0
  0
LWPOLYLINE
  5
33e
100
AcDbEntity
  8
Ebene_1
 62
3
100
AcDbPolyline
 90
2
 70
0
 10
131.495447
 20
194.161058
 30
0.0
 10
130.751171
 20
195.264458
 30
0.0
  0
LWPOLYLINE
  5
33f
100
AcDbEntity
  8
Ebene_1
 62
3
100
AcDbPolyline
 90
2
 70
0
 10
132.488222
 20
192.689251
 30
0.0
 10
133.087687
 20
191.800534
 30
0.0
  0
LWPOLYLINE
  5
340
100
AcDbEntity
  8
Ebene_1
 62
3
100
AcDbPolyline
 90
2
 70
0
 10
126.765666
 20
202.128847
 30
0.0
 10
126.011254
 20
203.247276
 30
0.0
  0
LWPOLYLINE
  5
341
100
AcDbEntity
  8
Ebene_1
 62
3
100
AcDbPolyline
 90
2
 70
0
 10
128.041956
 20
200.236724
 30
0.0
 10
128.681801
 20
199.288141
 30
0.0
  0
LWPOLYLINE
  5
342
100
AcDbEntity
  8
Ebene_1
 62
3
100
AcDbPolyline
 90
2
 70
0
 10
131.636949
 20
194.907086
 30
0.0
 10
131.003790
 20
195.845755
 30
0.0
  0
LWPOLYLINE
  5
343
100
AcDbEntity
  8
Ebene_1
 62
3
100
AcDbPolyline
 90
2
 70
0
 10
132.980833
 20
192.914754
 30
0.0
 10
133.498144
 20
192.147834
 30
0.0
  0
LWPOLYLINE
  5
344
100
AcDbEntity
  8
Ebene_1
 62
3
100
AcDbPolyline
 90
2
 70
0
 10
127.295330
 20
202.299419
 30
0.0
 10
126.679215
 20
203.212820
 30
0.0
  0
LWPOLYLINE
  5
345
100
AcDbEntity
  8
Ebene_1
 62
3
100
AcDbPolyline
 90
2
 70
0
 10
128.650640
 20
200.290149
 30
0.0
 10
129.224942
 20
199.438734
 30
0.0
  0
LWPOLYLINE
  5
346
100
AcDbEntity
  8
Ebene_1
 62
3
100
AcDbPolyline
 90
2
 70
0
 10
131.874680
 20
195.510454
 30
0.0
 10
131.284305
 20
196.385696
 30
0.0
  0
LWPOLYLINE
  5
347
100
AcDbEntity
  8
Ebene_1
 62
3
100
AcDbPolyline
 90
2
 70
0
 10
133.415930
 20
193.225527
 30
0.0
 10
133.908600
 20
192.495132
 30
0.0
  0
LWPOLYLINE
  5
348
100
AcDbEntity
  8
Ebene_1
 62
3
100
AcDbPolyline
 90
2
 70
0
 10
129.761298
 20
199.599388
 30
0.0
 10
129.182532
 20
200.457418
 30
0.0
  0
LWPOLYLINE
  5
349
100
AcDbEntity
  8
Ebene_1
 62
3
100
AcDbPolyline
 90
2
 70
0
 10
131.586526
 20
196.893458
 30
0.0
 10
132.154425
 20
196.051536
 30
0.0
  0
LWPOLYLINE
  5
34a
100
AcDbEntity
  8
Ebene_1
 62
3
100
AcDbPolyline
 90
2
 70
0
 10
134.290265
 20
192.885119
 30
0.0
 10
133.563333
 20
193.962808
 30
0.0
  0
LWPOLYLINE
  5
34b
100
AcDbEntity
  8
Ebene_1
 62
3
100
AcDbPolyline
 90
2
 70
0
 10
129.707366
 20
200.635153
 30
0.0
 10
130.282577
 20
199.782393
 30
0.0
  0
LWPOLYLINE
  5
34c
100
AcDbEntity
  8
Ebene_1
 62
3
100
AcDbPolyline
 90
2
 70
0
 10
132.460282
 20
196.553909
 30
0.0
 10
131.906498
 20
197.374903
 30
0.0
  0
LWPOLYLINE
  5
34d
100
AcDbEntity
  8
Ebene_1
 62
3
100
AcDbPolyline
 90
2
 70
0
 10
133.712916
 20
194.696857
 30
0.0
 10
134.381449
 20
193.705747
 30
0.0
  0
LWPOLYLINE
  5
34e
100
AcDbEntity
  8
Ebene_1
 62
3
100
AcDbPolyline
 90
2
 70
0
 10
130.802058
 20
199.968062
 30
0.0
 10
130.223252
 20
200.826151
 30
0.0
  0
LWPOLYLINE
  5
34f
100
AcDbEntity
  8
Ebene_1
 62
3
100
AcDbPolyline
 90
2
 70
0
 10
132.232404
 20
197.847550
 30
0.0
 10
132.788788
 20
197.022700
 30
0.0
  0
LWPOLYLINE
  5
350
100
AcDbEntity
  8
Ebene_1
 62
3
100
AcDbPolyline
 90
2
 70
0
 10
134.472633
 20
194.526375
 30
0.0
 10
134.208939
 20
194.917304
 30
0.0
  0
LWPOLYLINE
  5
351
100
AcDbEntity
  8
Ebene_1
 62
3
100
AcDbPolyline
 90
2
 70
0
 10
130.730755
 20
201.029580
 30
0.0
 10
131.308815
 20
200.172596
 30
0.0
  0
LWPOLYLINE
  5
352
100
AcDbEntity
  8
Ebene_1
 62
3
100
AcDbPolyline
 90
2
 70
0
 10
133.125700
 20
197.479031
 30
0.0
 10
132.574379
 20
198.296377
 30
0.0
  0
LWPOLYLINE
  5
353
100
AcDbEntity
  8
Ebene_1
 62
3
100
AcDbPolyline
 90
2
 70
0
 10
131.232167
 20
201.242037
 30
0.0
 10
131.813776
 20
200.379791
 30
0.0
  0
LWPOLYLINE
  5
354
100
AcDbEntity
  8
Ebene_1
 62
3
100
AcDbPolyline
 90
2
 70
0
 10
133.475245
 20
197.916636
 30
0.0
 10
132.918092
 20
198.742624
 30
0.0
  0
LWPOLYLINE
  5
355
100
AcDbEntity
  8
Ebene_1
 62
3
100
AcDbPolyline
 90
2
 70
0
 10
131.725371
 20
201.466663
 30
0.0
 10
132.307060
 20
200.604298
 30
0.0
  0
LWPOLYLINE
  5
356
100
AcDbEntity
  8
Ebene_1
 62
3
100
AcDbPolyline
 90
2
 70
0
 10
133.832211
 20
198.343236
 30
0.0
 10
133.273779
 20
199.171122
 30
0.0
  0
LWPOLYLINE
  5
357
100
AcDbEntity
  8
Ebene_1
 62
3
100
AcDbPolyline
 90
2
 70
0
 10
132.213629
 20
201.698620
 30
0.0
 10
132.799081
 20
200.830678
 30
0.0
  0
LWPOLYLINE
  5
358
100
AcDbEntity
  8
Ebene_1
 62
3
100
AcDbPolyline
 90
2
 70
0
 10
134.196238
 20
198.759370
 30
0.0
 10
133.629466
 20
199.599619
 30
0.0
  0
LWPOLYLINE
  5
359
100
AcDbEntity
  8
Ebene_1
 62
3
100
AcDbPolyline
 90
2
 70
0
 10
132.691750
 20
201.945607
 30
0.0
 10
133.273888
 20
201.082578
 30
0.0
  0
LWPOLYLINE
  5
35a
100
AcDbEntity
  8
Ebene_1
 62
3
100
AcDbPolyline
 90
2
 70
0
 10
134.570177
 20
199.160808
 30
0.0
 10
134.004220
 20
199.999847
 30
0.0
  0
LWPOLYLINE
  5
35b
100
AcDbEntity
  8
Ebene_1
 62
3
100
AcDbPolyline
 90
2
 70
0
 10
133.162385
 20
202.203690
 30
0.0
 10
133.748695
 20
201.334478
 30
0.0
  0
LWPOLYLINE
  5
35c
100
AcDbEntity
  8
Ebene_1
 62
3
100
AcDbPolyline
 90
2
 70
0
 10
134.955197
 20
199.545817
 30
0.0
 10
134.379786
 20
200.398874
 30
0.0
  0
LWPOLYLINE
  5
35d
100
AcDbEntity
  8
Ebene_1
 62
3
100
AcDbPolyline
 90
2
 70
0
 10
133.633023
 20
202.461773
 30
0.0
 10
134.223502
 20
201.586377
 30
0.0
  0
LWPOLYLINE
  5
35e
100
AcDbEntity
  8
Ebene_1
 62
3
100
AcDbPolyline
 90
2
 70
0
 10
135.340218
 20
199.930827
 30
0.0
 10
134.755351
 20
200.797901
 30
0.0
  0
LWPOLYLINE
  5
35f
100
AcDbEntity
  8
Ebene_1
 62
3
100
AcDbPolyline
 90
2
 70
0
 10
134.103658
 20
202.719857
 30
0.0
 10
134.698308
 20
201.838277
 30
0.0
  0
LWPOLYLINE
  5
360
100
AcDbEntity
  8
Ebene_1
 62
3
100
AcDbPolyline
 90
2
 70
0
 10
135.725238
 20
200.315835
 30
0.0
 10
135.130918
 20
201.196927
 30
0.0
  0
LWPOLYLINE
  5
361
100
AcDbEntity
  8
Ebene_1
 62
3
100
AcDbPolyline
 90
2
 70
0
 10
134.570297
 20
202.983865
 30
0.0
 10
135.157481
 20
202.113355
 30
0.0
  0
LWPOLYLINE
  5
362
100
AcDbEntity
  8
Ebene_1
 62
3
100
AcDbPolyline
 90
2
 70
0
 10
136.110259
 20
200.700845
 30
0.0
 10
135.506484
 20
201.595954
 30
0.0
  0
LWPOLYLINE
  5
363
100
AcDbEntity
  8
Ebene_1
 62
3
100
AcDbPolyline
 90
2
 70
0
 10
135.020673
 20
203.271986
 30
0.0
 10
135.610416
 20
202.397681
 30
0.0
  0
LWPOLYLINE
  5
364
100
AcDbEntity
  8
Ebene_1
 62
3
100
AcDbPolyline
 90
2
 70
0
 10
136.495279
 20
201.085855
 30
0.0
 10
135.882049
 20
201.994979
 30
0.0
  0
LWPOLYLINE
  5
365
100
AcDbEntity
  8
Ebene_1
 62
3
100
AcDbPolyline
 90
2
 70
0
 10
135.471048
 20
203.560105
 30
0.0
 10
136.063350
 20
202.682007
 30
0.0
  0
LWPOLYLINE
  5
366
100
AcDbEntity
  8
Ebene_1
 62
3
100
AcDbPolyline
 90
2
 70
0
 10
136.880301
 20
201.470864
 30
0.0
 10
136.257614
 20
202.394007
 30
0.0
  0
LWPOLYLINE
  5
367
100
AcDbEntity
  8
Ebene_1
 62
3
100
AcDbPolyline
 90
2
 70
0
 10
135.921423
 20
203.848226
 30
0.0
 10
136.516285
 20
202.966332
 30
0.0
  0
LWPOLYLINE
  5
368
100
AcDbEntity
  8
Ebene_1
 62
3
100
AcDbPolyline
 90
2
 70
0
 10
137.265321
 20
201.855874
 30
0.0
 10
136.633180
 20
202.793034
 30
0.0
  0
LWPOLYLINE
  5
369
100
AcDbEntity
  8
Ebene_1
 62
3
100
AcDbPolyline
 90
2
 70
0
 10
136.371798
 20
204.136345
 30
0.0
 10
136.981293
 20
203.232758
 30
0.0
  0
LWPOLYLINE
  5
36a
100
AcDbEntity
  8
Ebene_1
 62
3
100
AcDbPolyline
 90
2
 70
0
 10
137.650342
 20
202.240882
 30
0.0
 10
137.008745
 20
203.192061
 30
0.0
  0
LWPOLYLINE
  5
36b
100
AcDbEntity
  8
Ebene_1
 62
3
100
AcDbPolyline
 90
2
 70
0
 10
136.782582
 20
204.483159
 30
0.0
 10
138.035362
 20
202.625892
 30
0.0
  0
LWPOLYLINE
  5
36c
100
AcDbEntity
  8
Ebene_1
 62
3
100
AcDbPolyline
 90
2
 70
0
 10
138.420384
 20
203.010901
 30
0.0
 10
137.108612
 20
204.955624
 30
0.0
  0
LWPOLYLINE
  5
36d
100
AcDbEntity
  8
Ebene_1
 62
3
100
AcDbPolyline
 90
2
 70
0
 10
137.470082
 20
205.375548
 30
0.0
 10
138.727866
 20
203.510862
 30
0.0
  0
LWPOLYLINE
  5
36e
100
AcDbEntity
  8
Ebene_1
 62
3
100
AcDbPolyline
 90
2
 70
0
 10
139.229083
 20
203.723607
 30
0.0
 10
137.850620
 20
205.767202
 30
0.0
  0
LWPOLYLINE
  5
36f
100
AcDbEntity
  8
Ebene_1
 62
3
100
AcDbPolyline
 90
2
 70
0
 10
138.253323
 20
206.125997
 30
0.0
 10
139.710692
 20
203.965422
 30
0.0
  0
LWPOLYLINE
  5
370
100
AcDbEntity
  8
Ebene_1
 62
3
100
AcDbPolyline
 90
2
 70
0
 10
140.179906
 20
204.225614
 30
0.0
 10
138.659890
 20
206.479063
 30
0.0
  0
LWPOLYLINE
  5
371
100
AcDbEntity
  8
Ebene_1
 62
3
100
AcDbPolyline
 90
2
 70
0
 10
139.080328
 20
206.811567
 30
0.0
 10
140.649119
 20
204.485807
 30
0.0
  0
LWPOLYLINE
  5
372
100
AcDbEntity
  8
Ebene_1
 62
3
100
AcDbPolyline
 90
2
 70
0
 10
141.099242
 20
204.774302
 30
0.0
 10
139.501890
 20
207.142402
 30
0.0
  0
LWPOLYLINE
  5
373
100
AcDbEntity
  8
Ebene_1
 62
3
100
AcDbPolyline
 90
2
 70
0
 10
139.934890
 20
207.456283
 30
0.0
 10
141.546904
 20
205.066445
 30
0.0
  0
LWPOLYLINE
  5
374
100
AcDbEntity
  8
Ebene_1
 62
3
100
AcDbPolyline
 90
2
 70
0
 10
141.994564
 20
205.358588
 30
0.0
 10
140.367889
 20
207.770163
 30
0.0
  0
LWPOLYLINE
  5
375
100
AcDbEntity
  8
Ebene_1
 62
3
100
AcDbPolyline
 90
2
 70
0
 10
140.810893
 20
208.069210
 30
0.0
 10
142.432509
 20
205.665136
 30
0.0
  0
LWPOLYLINE
  5
376
100
AcDbEntity
  8
Ebene_1
 62
3
100
AcDbPolyline
 90
2
 70
0
 10
142.864669
 20
205.980262
 30
0.0
 10
141.257829
 20
208.362428
 30
0.0
  0
LWPOLYLINE
  5
377
100
AcDbEntity
  8
Ebene_1
 62
3
100
AcDbPolyline
 90
2
 70
0
 10
141.704765
 20
208.655648
 30
0.0
 10
143.296828
 20
206.295388
 30
0.0
  0
LWPOLYLINE
  5
378
100
AcDbEntity
  8
Ebene_1
 62
3
100
AcDbPolyline
 90
2
 70
0
 10
143.728988
 20
206.610512
 30
0.0
 10
142.151701
 20
208.948868
 30
0.0
  0
LWPOLYLINE
  5
379
100
AcDbEntity
  8
Ebene_1
 62
3
100
AcDbPolyline
 90
2
 70
0
 10
142.598637
 20
209.242086
 30
0.0
 10
144.151383
 20
206.940113
 30
0.0
  0
LWPOLYLINE
  5
37a
100
AcDbEntity
  8
Ebene_1
 62
3
100
AcDbPolyline
 90
2
 70
0
 10
144.571858
 20
207.272562
 30
0.0
 10
143.047374
 20
209.532636
 30
0.0
  0
LWPOLYLINE
  5
37b
100
AcDbEntity
  8
Ebene_1
 62
3
100
AcDbPolyline
 90
2
 70
0
 10
143.512975
 20
209.798183
 30
0.0
 10
144.992332
 20
207.605011
 30
0.0
  0
LWPOLYLINE
  5
37c
100
AcDbEntity
  8
Ebene_1
 62
3
100
AcDbPolyline
 90
2
 70
0
 10
145.412806
 20
207.937460
 30
0.0
 10
143.978574
 20
210.063732
 30
0.0
  0
LWPOLYLINE
  5
37d
100
AcDbEntity
  8
Ebene_1
 62
3
100
AcDbPolyline
 90
2
 70
0
 10
144.444175
 20
210.329279
 30
0.0
 10
145.828607
 20
208.276836
 30
0.0
  0
LWPOLYLINE
  5
37e
100
AcDbEntity
  8
Ebene_1
 62
3
100
AcDbPolyline
 90
2
 70
0
 10
146.239956
 20
208.622813
 30
0.0
 10
144.909775
 20
210.594828
 30
0.0
  0
LWPOLYLINE
  5
37f
100
AcDbEntity
  8
Ebene_1
 62
3
100
AcDbPolyline
 90
2
 70
0
 10
145.375376
 20
210.860377
 30
0.0
 10
146.651307
 20
208.968789
 30
0.0
  0
LWPOLYLINE
  5
380
100
AcDbEntity
  8
Ebene_1
 62
3
100
AcDbPolyline
 90
2
 70
0
 10
147.062656
 20
209.314763
 30
0.0
 10
145.846722
 20
211.117406
 30
0.0
  0
LWPOLYLINE
  5
381
100
AcDbEntity
  8
Ebene_1
 62
3
100
AcDbPolyline
 90
2
 70
0
 10
146.326172
 20
211.362423
 30
0.0
 10
147.474007
 20
209.660739
 30
0.0
  0
LWPOLYLINE
  5
382
100
AcDbEntity
  8
Ebene_1
 62
3
100
AcDbPolyline
 90
2
 70
0
 10
147.880549
 20
210.013842
 30
0.0
 10
146.805623
 20
211.607439
 30
0.0
  0
LWPOLYLINE
  5
383
100
AcDbEntity
  8
Ebene_1
 62
3
100
AcDbPolyline
 90
2
 70
0
 10
147.285073
 20
211.852454
 30
0.0
 10
148.284577
 20
210.370673
 30
0.0
  0
LWPOLYLINE
  5
384
100
AcDbEntity
  8
Ebene_1
 62
3
100
AcDbPolyline
 90
2
 70
0
 10
148.688605
 20
210.727502
 30
0.0
 10
147.764523
 20
212.097470
 30
0.0
  0
LWPOLYLINE
  5
385
100
AcDbEntity
  8
Ebene_1
 62
3
100
AcDbPolyline
 90
2
 70
0
 10
148.251137
 20
212.331868
 30
0.0
 10
149.092635
 20
211.084332
 30
0.0
  0
LWPOLYLINE
  5
386
100
AcDbEntity
  8
Ebene_1
 62
3
100
AcDbPolyline
 90
2
 70
0
 10
149.496663
 20
211.441162
 30
0.0
 10
148.748655
 20
212.550096
 30
0.0
  0
LWPOLYLINE
  5
387
100
AcDbEntity
  8
Ebene_1
 62
3
100
AcDbPolyline
 90
2
 70
0
 10
149.246173
 20
212.768327
 30
0.0
 10
149.899076
 20
211.800387
 30
0.0
  0
LWPOLYLINE
  5
388
100
AcDbEntity
  8
Ebene_1
 62
3
100
AcDbPolyline
 90
2
 70
0
 10
150.297099
 20
212.166120
 30
0.0
 10
149.743691
 20
212.986557
 30
0.0
  0
LWPOLYLINE
  5
389
100
AcDbEntity
  8
Ebene_1
 62
3
100
AcDbPolyline
 90
2
 70
0
 10
150.241934
 20
213.203711
 30
0.0
 10
150.695123
 20
212.531852
 30
0.0
  0
LWPOLYLINE
  5
38a
100
AcDbEntity
  8
Ebene_1
 62
3
100
AcDbPolyline
 90
2
 70
0
 10
151.093146
 20
212.897584
 30
0.0
 10
150.757080
 20
213.395808
 30
0.0
  0
LWPOLYLINE
  5
38b
100
AcDbEntity
  8
Ebene_1
 62
3
100
AcDbPolyline
 90
2
 70
0
 10
151.273855
 20
213.585490
 30
0.0
 10
151.491169
 20
213.263318
 30
0.0
  0
SPLINE
  5
38c
100
AcDbEntity
  8
Ebene_1
 62
7
100
AcDbSpline
 70
8
 71
3
 72
8
 73
4
 74
0
 40
0
 40
0
 40
0
 40
0
 40
1
 40
1
 40
1
 40
1
 10
192.157291
 20
225.280245
 30
0.0
 10
192.157295
 20
224.451821
 30
0.0
 10
191.485728
 20
223.780246
 30
0.0
 10
190.657302
 20
223.780240
 30
0.0
  0
SPLINE
  5
38d
100
AcDbEntity
  8
Ebene_1
 62
7
100
AcDbSpline
 70
8
 71
3
 72
8
 73
4
 74
0
 40
0
 40
0
 40
0
 40
0
 40
1
 40
1
 40
1
 40
1
 10
190.657302
 20
223.780240
 30
0.0
 10
190.259474
 20
223.780236
 30
0.0
 10
189.877938
 20
223.938271
 30
0.0
 10
189.596630
 20
224.219577
 30
0.0
  0
SPLINE
  5
38e
100
AcDbEntity
  8
Ebene_1
 62
7
100
AcDbSpline
 70
8
 71
3
 72
8
 73
4
 74
0
 40
0
 40
0
 40
0
 40
0
 40
1
 40
1
 40
1
 40
1
 10
189.596630
 20
224.219577
 30
0.0
 10
189.315322
 20
224.500883
 30
0.0
 10
189.157286
 20
224.882418
 30
0.0
 10
189.157288
 20
225.280245
 30
0.0
  0
SPLINE
  5
38f
100
AcDbEntity
  8
Ebene_1
 62
7
100
AcDbSpline
 70
8
 71
3
 72
8
 73
4
 74
0
 40
0
 40
0
 40
0
 40
0
 40
1
 40
1
 40
1
 40
1
 10
189.157288
 20
225.280245
 30
0.0
 10
189.157289
 20
225.678071
 30
0.0
 10
189.315327
 20
226.059603
 30
0.0
 10
189.596634
 20
226.340907
 30
0.0
  0
SPLINE
  5
390
100
AcDbEntity
  8
Ebene_1
 62
7
100
AcDbSpline
 70
8
 71
3
 72
8
 73
4
 74
0
 40
0
 40
0
 40
0
 40
0
 40
1
 40
1
 40
1
 40
1
 10
189.596634
 20
226.340907
 30
0.0
 10
189.877942
 20
226.622210
 30
0.0
 10
190.259476
 20
226.780243
 30
0.0
 10
190.657302
 20
226.780240
 30
0.0
  0
SPLINE
  5
391
100
AcDbEntity
  8
Ebene_1
 62
7
100
AcDbSpline
 70
8
 71
3
 72
8
 73
4
 74
0
 40
0
 40
0
 40
0
 40
0
 40
1
 40
1
 40
1
 40
1
 10
190.657302
 20
226.780240
 30
0.0
 10
191.485724
 20
226.780233
 30
0.0
 10
192.157289
 20
226.108665
 30
0.0
 10
192.157291
 20
225.280245
 30
0.0
  0
LWPOLYLINE
  5
392
100
AcDbEntity
  8
Ebene_1
 62
3
100
AcDbPolyline
 90
2
 70
0
 10
151.889193
 20
213.629050
 30
0.0
 10
151.803514
 20
213.756069
 30
0.0
  0
LWPOLYLINE
  5
393
100
AcDbEntity
  8
Ebene_1
 62
7
100
AcDbPolyline
 90
2
 70
1
 10
192.157291
 20
225.280245
 30
0.0
 10
192.157291
 20
225.280245
 30
0.0
  0
ENDSEC
  0
SECTION
  2
OBJECTS
  0
DICTIONARY
  5
C
330
0
100
AcDbDictionary
  3
ACAD_GROUP
350
D
  3
ACAD_MLINESTYLE
350
17
  0
DICTIONARY
  5
D
330
C
100
AcDbDictionary
  0
DICTIONARY
  5
1A
330
C
100
AcDbDictionary
  0
DICTIONARY
  5
17
330
C
100
AcDbDictionary
  3
STANDARD
350
18
  0
DICTIONARY
  5
19
330
C
100
AcDbDictionary
  0
ENDSEC
  0
EOF
